Foldit-Thin.ufo
<glyph name="exclam.color0" format="2">
  <advance width="600"/>
  <unicode hex="0021"/>
  <outline>
    <contour>
      <point x="57" y="104" type="line"/>
      <point x="81" y="104" type="line"/>
      <point x="81" y="703" type="line"/>
      <point x="80" y="703" type="line"/>
      <point x="57" y="680" type="line"/>
    </contour>
  </outline>
</glyph>
<glyph name="quotedbl.color2" format="2">
  <advance width="600"/>
  <unicode hex="0022"/>
  <outline>
    <contour>
      <point x="84" y="665" type="line"/>
      <point x="125" y="665" type="line"/>
      <point x="102" y="700" type="line"/>
      <point x="84" y="700" type="line"/>
    </contour>
  </outline>
</glyph>
<glyph name="quotedbl.color3" format="2">
  <advance width="600"/>
  <unicode hex="0022"/>
  <outline>
    <contour>
      <point x="91" y="586" type="line"/>
      <point x="91" y="585" type="line"/>
      <point x="112" y="585" type="line"/>
      <point x="125" y="665" type="line"/>
      <point x="101" y="665" type="line"/>
    </contour>
  </outline>
</glyph>
<glyph name="dollar.color5" format="2">
  <advance width="600"/>
  <unicode hex="0024"/>
  <outline>
    <contour>
      <point x="176" y="0" type="line"/>
      <point x="177" y="0" type="line"/>
      <point x="200" y="24" type="line"/>
      <point x="200" y="353" type="line"/>
      <point x="177" y="377" type="line"/>
      <point x="176" y="377" type="line"/>
    </contour>
  </outline>
</glyph>
<glyph name="ampersand.color3" format="2">
  <advance width="600"/>
  <unicode hex="0026"/>
  <outline>
    <contour>
      <point x="67" y="0" type="line"/>
      <point x="180" y="0" type="line"/>
      <point x="180" y="24" type="line"/>
      <point x="67" y="24" type="line"/>
    </contour>
  </outline>
</glyph>
<glyph name="ampersand.color4" format="2">
  <advance width="600"/>
  <unicode hex="0026"/>
  <outline>
    <contour>
      <point x="67" y="353" type="line"/>
      <point x="180" y="353" type="line"/>
      <point x="180" y="377" type="line"/>
      <point x="67" y="377" type="line"/>
    </contour>
  </outline>
</glyph>
<glyph name="ampersand.color6" format="2">
  <advance width="600"/>
  <unicode hex="0026"/>
  <outline>
    <contour>
      <point x="180" y="0" type="line"/>
      <point x="181" y="0" type="line"/>
      <point x="204" y="24" type="line"/>
      <point x="320" y="347" type="line"/>
      <point x="320" y="348" type="line"/>
      <point x="300" y="360" type="line"/>
      <point x="180" y="24" type="line"/>
    </contour>
  </outline>
</glyph>
<glyph name="ampersand.color7" format="2">
  <advance width="600"/>
  <unicode hex="0026"/>
  <outline>
    <contour>
      <point x="180" y="353" type="line"/>
      <point x="181" y="353" type="line"/>
      <point x="204" y="377" type="line"/>
      <point x="204" y="647" type="line"/>
      <point x="181" y="670" type="line"/>
      <point x="180" y="670" type="line"/>
    </contour>
  </outline>
</glyph>
<glyph name="parenright" format="2">
  <advance width="187"/>
  <unicode hex="0029"/>
  <outline>
    <contour>
      <point x="110" y="-70" type="line"/>
      <point x="111" y="-70" type="line"/>
      <point x="134" y="-62" type="line"/>
      <point x="134" y="646" type="line"/>
      <point x="110" y="656" type="line"/>
    </contour>
    <contour>
      <point x="20" y="-100" type="line"/>
      <point x="110" y="-70" type="line"/>
      <point x="110" y="-46" type="line"/>
      <point x="20" y="-76" type="line"/>
    </contour>
    <contour>
      <point x="20" y="676" type="line"/>
      <point x="134" y="631" type="line"/>
      <point x="134" y="647" type="line"/>
      <point x="134" y="654" type="line"/>
      <point x="20" y="700" type="line"/>
    </contour>
  </outline>
</glyph>
<glyph name="asterisk.color2" format="2">
  <advance width="600"/>
  <unicode hex="002A"/>
  <outline>
    <contour>
      <point x="73" y="539" type="line"/>
      <point x="113" y="539" type="line"/>
      <point x="135" y="663" type="line"/>
      <point x="135" y="664" type="line"/>
      <point x="90" y="730" type="line"/>
      <point x="89" y="730" type="line"/>
      <point x="73" y="540" type="line"/>
    </contour>
  </outline>
</glyph>
<glyph name="asterisk" format="2">
  <advance width="178"/>
  <unicode hex="002A"/>
  <outline>
    <contour>
      <point x="65" y="539" type="line"/>
      <point x="73" y="539" type="line"/>
      <point x="73" y="540" type="line"/>
      <point x="93" y="585" type="line"/>
      <point x="43" y="663" type="line"/>
    </contour>
    <contour>
      <point x="93" y="585" type="line"/>
      <point x="89" y="730" type="line"/>
      <point x="88" y="730" type="line"/>
      <point x="43" y="664" type="line"/>
      <point x="43" y="663" type="line"/>
    </contour>
    <contour>
      <point x="73" y="539" type="line"/>
      <point x="113" y="539" type="line"/>
      <point x="135" y="663" type="line"/>
      <point x="135" y="664" type="line"/>
      <point x="90" y="730" type="line"/>
      <point x="89" y="730" type="line"/>
      <point x="73" y="540" type="line"/>
    </contour>
  </outline>
</glyph>
<glyph name="plus.color3" format="2">
  <advance width="600"/>
  <unicode hex="002B"/>
  <outline>
    <contour>
      <point x="98" y="329" type="line"/>
      <point x="164" y="329" type="line"/>
      <point x="164" y="353" type="line"/>
      <point x="121" y="353" type="line"/>
    </contour>
  </outline>
</glyph>
<glyph name="period" format="2">
  <advance width="97"/>
  <unicode hex="002E"/>
  <outline>
    <contour>
      <point x="33" y="0" type="line"/>
      <point x="64" y="0" type="line"/>
      <point x="64" y="24" type="line"/>
      <point x="33" y="24" type="line"/>
    </contour>
  </outline>
</glyph>
<glyph name="one.color2" format="2">
  <advance width="600"/>
  <unicode hex="0031"/>
  <outline>
    <contour>
      <point x="145" y="0" type="line"/>
      <point x="237" y="0" type="line"/>
      <point x="237" y="24" type="line"/>
      <point x="168" y="24" type="line"/>
    </contour>
  </outline>
</glyph>
<glyph name="one.color3" format="2">
  <advance width="600"/>
  <unicode hex="0031"/>
  <outline>
    <contour>
      <point x="63" y="646" type="line"/>
      <point x="144" y="646" type="line"/>
      <point x="167" y="670" type="line"/>
      <point x="63" y="670" type="line"/>
    </contour>
  </outline>
</glyph>
<glyph name="one" format="2">
  <advance width="290"/>
  <unicode hex="0031"/>
  <outline>
    <contour>
      <point x="144" y="0" type="line"/>
      <point x="145" y="0" type="line"/>
      <point x="168" y="24" type="line"/>
      <point x="168" y="670" type="line"/>
      <point x="167" y="670" type="line"/>
      <point x="144" y="646" type="line"/>
    </contour>
    <contour>
      <point x="54" y="0" type="line"/>
      <point x="144" y="0" type="line"/>
      <point x="144" y="24" type="line"/>
      <point x="54" y="24" type="line"/>
    </contour>
    <contour>
      <point x="145" y="0" type="line"/>
      <point x="237" y="0" type="line"/>
      <point x="237" y="24" type="line"/>
      <point x="168" y="24" type="line"/>
    </contour>
    <contour>
      <point x="63" y="646" type="line"/>
      <point x="144" y="646" type="line"/>
      <point x="167" y="670" type="line"/>
      <point x="63" y="670" type="line"/>
    </contour>
  </outline>
</glyph>
<glyph name="two.color2" format="2">
  <advance width="600"/>
  <unicode hex="0032"/>
  <outline>
    <contour>
      <point x="63" y="0" type="line"/>
      <point x="219" y="0" type="line"/>
      <point x="219" y="24" type="line"/>
      <point x="63" y="24" type="line"/>
    </contour>
  </outline>
</glyph>
<glyph name="three.color1" format="2">
  <advance width="600"/>
  <unicode hex="0033"/>
  <outline>
    <contour>
      <point x="58" y="0" type="line"/>
      <point x="193" y="0" type="line"/>
      <point x="193" y="24" type="line"/>
      <point x="35" y="24" type="line"/>
      <point x="35" y="23" type="line"/>
    </contour>
  </outline>
</glyph>
<glyph name="three.color4" format="2">
  <advance width="600"/>
  <unicode hex="0033"/>
  <outline>
    <contour>
      <point x="193" y="0" type="line"/>
      <point x="194" y="0" type="line"/>
      <point x="217" y="24" type="line"/>
      <point x="217" y="403" type="line"/>
      <point x="194" y="427" type="line"/>
      <point x="193" y="427" type="line"/>
    </contour>
  </outline>
</glyph>
<glyph name="five.color1" format="2">
  <advance width="600"/>
  <unicode hex="0035"/>
  <outline>
    <contour>
      <point x="68" y="403" type="line"/>
      <point x="208" y="403" type="line"/>
      <point x="208" y="427" type="line"/>
      <point x="68" y="427" type="line"/>
    </contour>
  </outline>
</glyph>
<glyph name="five.color2" format="2">
  <advance width="600"/>
  <unicode hex="0035"/>
  <outline>
    <contour>
      <point x="68" y="427" type="line"/>
      <point x="92" y="427" type="line"/>
      <point x="92" y="670" type="line"/>
      <point x="68" y="670" type="line"/>
    </contour>
  </outline>
</glyph>
<glyph name="six.color3" format="2">
  <advance width="600"/>
  <unicode hex="0036"/>
  <outline>
    <contour>
      <point x="53" y="377" type="line"/>
      <point x="77" y="377" type="line"/>
      <point x="77" y="670" type="line"/>
      <point x="76" y="670" type="line"/>
      <point x="53" y="647" type="line"/>
    </contour>
  </outline>
</glyph>
<glyph name="six" format="2">
  <advance width="290"/>
  <unicode hex="0036"/>
  <outline>
    <contour>
      <point x="76" y="0" type="line"/>
      <point x="213" y="0" type="line"/>
      <point x="213" y="24" type="line"/>
      <point x="53" y="24" type="line"/>
      <point x="53" y="23" type="line"/>
    </contour>
    <contour>
      <point x="53" y="24" type="line"/>
      <point x="77" y="24" type="line"/>
      <point x="77" y="353" type="line"/>
      <point x="53" y="376" type="line"/>
    </contour>
    <contour>
      <point x="77" y="353" type="line"/>
      <point x="213" y="353" type="line"/>
      <point x="213" y="377" type="line"/>
      <point x="53" y="377" type="line"/>
      <point x="53" y="376" type="line"/>
    </contour>
    <contour>
      <point x="53" y="377" type="line"/>
      <point x="77" y="377" type="line"/>
      <point x="77" y="670" type="line"/>
      <point x="76" y="670" type="line"/>
      <point x="53" y="647" type="line"/>
    </contour>
    <contour>
      <point x="213" y="0" type="line"/>
      <point x="214" y="0" type="line"/>
      <point x="237" y="24" type="line"/>
      <point x="237" y="353" type="line"/>
      <point x="214" y="377" type="line"/>
      <point x="213" y="377" type="line"/>
    </contour>
    <contour>
      <point x="77" y="646" type="line"/>
      <point x="220" y="646" type="line"/>
      <point x="220" y="647" type="line"/>
      <point x="197" y="670" type="line"/>
      <point x="77" y="670" type="line"/>
    </contour>
  </outline>
</glyph>
<glyph name="eight.color0" format="2">
  <advance width="600"/>
  <unicode hex="0038"/>
  <outline>
    <contour>
      <point x="90" y="646" type="line"/>
      <point x="200" y="646" type="line"/>
      <point x="200" y="670" type="line"/>
      <point x="90" y="670" type="line"/>
    </contour>
  </outline>
</glyph>
<glyph name="eight.color1" format="2">
  <advance width="600"/>
  <unicode hex="0038"/>
  <outline>
    <contour>
      <point x="77" y="0" type="line"/>
      <point x="213" y="0" type="line"/>
      <point x="213" y="24" type="line"/>
      <point x="77" y="24" type="line"/>
    </contour>
  </outline>
</glyph>
<glyph name="eight.color2" format="2">
  <advance width="600"/>
  <unicode hex="0038"/>
  <outline>
    <contour>
      <point x="66" y="377" type="line"/>
      <point x="90" y="377" type="line"/>
      <point x="90" y="670" type="line"/>
      <point x="89" y="670" type="line"/>
      <point x="66" y="647" type="line"/>
    </contour>
  </outline>
</glyph>
<glyph name="nine.color0" format="2">
  <advance width="600"/>
  <unicode hex="0039"/>
  <outline>
    <contour>
      <point x="72" y="293" type="line"/>
      <point x="208" y="293" type="line"/>
      <point x="208" y="317" type="line"/>
      <point x="72" y="317" type="line"/>
    </contour>
  </outline>
</glyph>
<glyph name="nine.color1" format="2">
  <advance width="600"/>
  <unicode hex="0039"/>
  <outline>
    <contour>
      <point x="208" y="0" type="line"/>
      <point x="209" y="0" type="line"/>
      <point x="232" y="23" type="line"/>
      <point x="232" y="646" type="line"/>
      <point x="208" y="646" type="line"/>
    </contour>
  </outline>
</glyph>
<glyph name="less.color1" format="2">
  <advance width="600"/>
  <unicode hex="003C"/>
  <outline>
    <contour>
      <point x="156" y="219" type="line"/>
      <point x="195" y="219" type="line"/>
      <point x="195" y="220" type="line"/>
      <point x="82" y="331" type="line"/>
      <point x="43" y="331" type="line"/>
      <point x="43" y="330" type="line"/>
    </contour>
  </outline>
</glyph>
<glyph name="less" format="2">
  <advance width="238"/>
  <unicode hex="003C"/>
  <outline>
    <contour>
      <point x="43" y="331" type="line"/>
      <point x="82" y="331" type="line"/>
      <point x="195" y="442" type="line"/>
      <point x="195" y="443" type="line"/>
      <point x="156" y="443" type="line"/>
      <point x="43" y="332" type="line"/>
    </contour>
    <contour>
      <point x="156" y="219" type="line"/>
      <point x="195" y="219" type="line"/>
      <point x="195" y="220" type="line"/>
      <point x="82" y="331" type="line"/>
      <point x="43" y="331" type="line"/>
      <point x="43" y="330" type="line"/>
    </contour>
  </outline>
</glyph>
<glyph name="equal" format="2">
  <advance width="296"/>
  <unicode hex="003D"/>
  <outline>
    <contour>
      <point x="53" y="379" type="line"/>
      <point x="243" y="379" type="line"/>
      <point x="243" y="403" type="line"/>
      <point x="53" y="403" type="line"/>
    </contour>
    <contour>
      <point x="53" y="289" type="line"/>
      <point x="243" y="289" type="line"/>
      <point x="243" y="313" type="line"/>
      <point x="53" y="313" type="line"/>
    </contour>
  </outline>
</glyph>
<glyph name="greater.color1" format="2">
  <advance width="600"/>
  <unicode hex="003E"/>
  <outline>
    <contour>
      <point x="186" y="331" type="line"/>
      <point x="225" y="331" type="line"/>
      <point x="225" y="332" type="line"/>
      <point x="112" y="443" type="line"/>
      <point x="73" y="443" type="line"/>
      <point x="73" y="442" type="line"/>
    </contour>
  </outline>
</glyph>
<glyph name="question.color0" format="2">
  <advance width="600"/>
  <unicode hex="003F"/>
  <outline>
    <contour>
      <point x="13" y="676" type="line"/>
      <point x="136" y="676" type="line"/>
      <point x="136" y="700" type="line"/>
      <point x="36" y="700" type="line"/>
      <point x="13" y="677" type="line"/>
    </contour>
  </outline>
</glyph>
<glyph name="at.color0" format="2">
  <advance width="600"/>
  <unicode hex="0040"/>
  <outline>
    <contour>
      <point x="177" y="476" type="line"/>
      <point x="250" y="476" type="line"/>
      <point x="250" y="477" type="line"/>
      <point x="227" y="500" type="line"/>
      <point x="177" y="500" type="line"/>
    </contour>
  </outline>
</glyph>
<glyph name="at.color3" format="2">
  <advance width="600"/>
  <unicode hex="0040"/>
  <outline>
    <contour>
      <point x="176" y="0" type="line"/>
      <point x="226" y="0" type="line"/>
      <point x="226" y="24" type="line"/>
      <point x="153" y="24" type="line"/>
      <point x="153" y="23" type="line"/>
    </contour>
  </outline>
</glyph>
<glyph name="B.color2" format="2">
  <advance width="600"/>
  <unicode hex="0042"/>
  <outline>
    <contour>
      <point x="77" y="353" type="line"/>
      <point x="226" y="353" type="line"/>
      <point x="226" y="377" type="line"/>
      <point x="152" y="377" type="line"/>
      <point x="54" y="377" type="line"/>
    </contour>
  </outline>
</glyph>
<glyph name="B.color3" format="2">
  <advance width="600"/>
  <unicode hex="0042"/>
  <outline>
    <contour>
      <point x="77" y="676" type="line"/>
      <point x="152" y="676" type="line"/>
      <point x="152" y="700" type="line"/>
      <point x="77" y="700" type="line"/>
    </contour>
  </outline>
</glyph>
<glyph name="B.color5" format="2">
  <advance width="600"/>
  <unicode hex="0042"/>
  <outline>
    <contour>
      <point x="226" y="0" type="line"/>
      <point x="227" y="0" type="line"/>
      <point x="250" y="23" type="line"/>
      <point x="250" y="354" type="line"/>
      <point x="227" y="377" type="line"/>
      <point x="226" y="377" type="line"/>
    </contour>
  </outline>
</glyph>
<glyph name="D.color3" format="2">
  <advance width="600"/>
  <unicode hex="0044"/>
  <outline>
    <contour>
      <point x="198" y="0" type="line"/>
      <point x="199" y="0" type="line"/>
      <point x="222" y="23" type="line"/>
      <point x="222" y="676" type="line"/>
      <point x="198" y="676" type="line"/>
    </contour>
  </outline>
</glyph>
<glyph name="G" format="2">
  <advance width="263"/>
  <unicode hex="0047"/>
  <anchor x="146" y="0" name="bottom"/>
  <anchor x="138" y="700" name="top"/>
  <outline>
    <contour>
      <point x="77" y="676" type="line"/>
      <point x="220" y="676" type="line"/>
      <point x="220" y="677" type="line"/>
      <point x="197" y="700" type="line"/>
      <point x="77" y="700" type="line"/>
    </contour>
    <contour>
      <point x="76" y="0" type="line"/>
      <point x="196" y="0" type="line"/>
      <point x="196" y="24" type="line"/>
      <point x="53" y="24" type="line"/>
      <point x="53" y="23" type="line"/>
    </contour>
    <contour>
      <point x="53" y="24" type="line"/>
      <point x="77" y="24" type="line"/>
      <point x="77" y="700" type="line"/>
      <point x="76" y="700" type="line"/>
      <point x="53" y="677" type="line"/>
    </contour>
    <contour>
      <point x="123" y="353" type="line"/>
      <point x="196" y="353" type="line"/>
      <point x="196" y="377" type="line"/>
      <point x="123" y="377" type="line"/>
    </contour>
    <contour>
      <point x="196" y="0" type="line"/>
      <point x="197" y="0" type="line"/>
      <point x="220" y="24" type="line"/>
      <point x="220" y="353" type="line"/>
      <point x="197" y="377" type="line"/>
      <point x="196" y="377" type="line"/>
    </contour>
  </outline>
</glyph>
<glyph name="H.color2" format="2">
  <advance width="600"/>
  <unicode hex="0048"/>
  <outline>
    <contour>
      <point x="77" y="353" type="line"/>
      <point x="216" y="353" type="line"/>
      <point x="216" y="377" type="line"/>
      <point x="77" y="377" type="line"/>
    </contour>
  </outline>
</glyph>
<glyph name="I.color1" format="2">
  <advance width="600"/>
  <unicode hex="0049"/>
  <outline>
    <contour>
      <point x="21" y="0" type="line"/>
      <point x="101" y="0" type="line"/>
      <point x="101" y="24" type="line"/>
      <point x="21" y="24" type="line"/>
    </contour>
  </outline>
</glyph>
<glyph name="I.color2" format="2">
  <advance width="600"/>
  <unicode hex="0049"/>
  <outline>
    <contour>
      <point x="102" y="0" type="line"/>
      <point x="206" y="0" type="line"/>
      <point x="206" y="24" type="line"/>
      <point x="125" y="24" type="line"/>
    </contour>
  </outline>
</glyph>
<glyph name="J.color1" format="2">
  <advance width="600"/>
  <unicode hex="004A"/>
  <outline>
    <contour>
      <point x="20" y="0" type="line"/>
      <point x="140" y="0" type="line"/>
      <point x="164" y="23" type="line"/>
      <point x="164" y="24" type="line"/>
      <point x="20" y="24" type="line"/>
    </contour>
  </outline>
</glyph>
<glyph name="J.color2" format="2">
  <advance width="600"/>
  <unicode hex="004A"/>
  <outline>
    <contour>
      <point x="39" y="676" type="line"/>
      <point x="140" y="676" type="line"/>
      <point x="163" y="700" type="line"/>
      <point x="39" y="700" type="line"/>
    </contour>
  </outline>
</glyph>
<glyph name="K.color0" format="2">
  <advance width="600"/>
  <unicode hex="004B"/>
  <outline>
    <contour>
      <point x="247" y="0" type="line"/>
      <point x="273" y="0" type="line"/>
      <point x="273" y="1" type="line"/>
      <point x="183" y="373" type="line"/>
      <point x="163" y="353" type="line"/>
    </contour>
  </outline>
</glyph>
<glyph name="K.color3" format="2">
  <advance width="600"/>
  <unicode hex="004B"/>
  <outline>
    <contour>
      <point x="196" y="353" type="line"/>
      <point x="197" y="353" type="line"/>
      <point x="220" y="376" type="line"/>
      <point x="220" y="700" type="line"/>
      <point x="196" y="700" type="line"/>
    </contour>
  </outline>
</glyph>
<glyph name="L.color0" format="2">
  <advance width="600"/>
  <unicode hex="004C"/>
  <outline>
    <contour>
      <point x="76" y="0" type="line"/>
      <point x="256" y="0" type="line"/>
      <point x="256" y="24" type="line"/>
      <point x="53" y="24" type="line"/>
      <point x="53" y="23" type="line"/>
    </contour>
  </outline>
</glyph>
<glyph name="M.color1" format="2">
  <advance width="600"/>
  <unicode hex="004D"/>
  <outline>
    <contour>
      <point x="53" y="0" type="line"/>
      <point x="77" y="0" type="line"/>
      <point x="77" y="655" type="line"/>
      <point x="53" y="679" type="line"/>
    </contour>
  </outline>
</glyph>
<glyph name="P.color3" format="2">
  <advance width="600"/>
  <unicode hex="0050"/>
  <outline>
    <contour>
      <point x="77" y="676" type="line"/>
      <point x="221" y="676" type="line"/>
      <point x="221" y="677" type="line"/>
      <point x="198" y="700" type="line"/>
      <point x="77" y="700" type="line"/>
    </contour>
  </outline>
</glyph>
<glyph name="Q" format="2">
  <advance width="294"/>
  <unicode hex="0051"/>
  <outline>
    <contour>
      <point x="217" y="20" type="line"/>
      <point x="220" y="24" type="line"/>
      <point x="220" y="676" type="line"/>
      <point x="196" y="676" type="line"/>
      <point x="196" y="24" type="line"/>
      <point x="215" y="24" type="line"/>
    </contour>
    <contour>
      <point x="76" y="0" type="line"/>
      <point x="309" y="0" type="line"/>
      <point x="309" y="1" type="line"/>
      <point x="286" y="24" type="line"/>
      <point x="53" y="24" type="line"/>
      <point x="53" y="23" type="line"/>
    </contour>
    <contour>
      <point x="53" y="24" type="line"/>
      <point x="77" y="24" type="line"/>
      <point x="77" y="700" type="line"/>
      <point x="76" y="700" type="line"/>
      <point x="53" y="677" type="line"/>
    </contour>
    <contour>
      <point x="77" y="676" type="line"/>
      <point x="220" y="676" type="line"/>
      <point x="220" y="677" type="line"/>
      <point x="197" y="700" type="line"/>
      <point x="77" y="700" type="line"/>
    </contour>
  </outline>
</glyph>
<glyph name="R.color0" format="2">
  <advance width="600"/>
  <unicode hex="0052"/>
  <outline>
    <contour>
      <point x="53" y="0" type="line"/>
      <point x="77" y="0" type="line"/>
      <point x="77" y="700" type="line"/>
      <point x="53" y="700" type="line"/>
    </contour>
  </outline>
</glyph>
<glyph name="R.color4" format="2">
  <advance width="600"/>
  <unicode hex="0052"/>
  <outline>
    <contour>
      <point x="77" y="676" type="line"/>
      <point x="220" y="676" type="line"/>
      <point x="220" y="677" type="line"/>
      <point x="197" y="700" type="line"/>
      <point x="77" y="700" type="line"/>
    </contour>
  </outline>
</glyph>
<glyph name="S.color2" format="2">
  <advance width="600"/>
  <unicode hex="0053"/>
  <outline>
    <contour>
      <point x="66" y="353" type="line"/>
      <point x="166" y="353" type="line"/>
      <point x="166" y="377" type="line"/>
      <point x="43" y="377" type="line"/>
      <point x="43" y="376" type="line"/>
    </contour>
  </outline>
</glyph>
<glyph name="T.color0" format="2">
  <advance width="600"/>
  <unicode hex="0054"/>
  <outline>
    <contour>
      <point x="144" y="0" type="line"/>
      <point x="168" y="0" type="line"/>
      <point x="168" y="700" type="line"/>
      <point x="167" y="700" type="line"/>
      <point x="144" y="676" type="line"/>
    </contour>
  </outline>
</glyph>
<glyph name="T.color1" format="2">
  <advance width="600"/>
  <unicode hex="0054"/>
  <outline>
    <contour>
      <point x="23" y="676" type="line"/>
      <point x="144" y="676" type="line"/>
      <point x="167" y="700" type="line"/>
      <point x="23" y="700" type="line"/>
    </contour>
  </outline>
</glyph>
<glyph name="T.color2" format="2">
  <advance width="600"/>
  <unicode hex="0054"/>
  <outline>
    <contour>
      <point x="168" y="676" type="line"/>
      <point x="288" y="676" type="line"/>
      <point x="288" y="700" type="line"/>
      <point x="168" y="700" type="line"/>
    </contour>
  </outline>
</glyph>
<glyph name="V.color1" format="2">
  <advance width="600"/>
  <unicode hex="0056"/>
  <outline>
    <contour>
      <point x="108" y="0" type="line"/>
      <point x="131" y="0" type="line"/>
      <point x="207" y="699" type="line"/>
      <point x="207" y="700" type="line"/>
      <point x="183" y="700" type="line"/>
    </contour>
  </outline>
</glyph>
<glyph name="X.color1" format="2">
  <advance width="600"/>
  <unicode hex="0058"/>
  <outline>
    <contour>
      <point x="195" y="0" type="line"/>
      <point x="219" y="0" type="line"/>
      <point x="219" y="1" type="line"/>
      <point x="136" y="350" type="line"/>
      <point x="135" y="350" type="line"/>
      <point x="113" y="344" type="line"/>
    </contour>
  </outline>
</glyph>
<glyph name="Y.color2" format="2">
  <advance width="600"/>
  <unicode hex="0059"/>
  <outline>
    <contour>
      <point x="118" y="350" type="line"/>
      <point x="141" y="350" type="line"/>
      <point x="227" y="699" type="line"/>
      <point x="227" y="700" type="line"/>
      <point x="203" y="700" type="line"/>
    </contour>
  </outline>
</glyph>
<glyph name="Z.color0" format="2">
  <advance width="600"/>
  <unicode hex="005A"/>
  <outline>
    <contour>
      <point x="33" y="676" type="line"/>
      <point x="163" y="676" type="line"/>
      <point x="166" y="700" type="line"/>
      <point x="33" y="700" type="line"/>
    </contour>
  </outline>
</glyph>
<glyph name="Z.color1" format="2">
  <advance width="600"/>
  <unicode hex="005A"/>
  <outline>
    <contour>
      <point x="56" y="24" type="line"/>
      <point x="189" y="667" type="line"/>
      <point x="166" y="700" type="line"/>
      <point x="33" y="25" type="line"/>
      <point x="33" y="24" type="line"/>
    </contour>
  </outline>
</glyph>
<glyph name="bracketleft.color1" format="2">
  <advance width="600"/>
  <unicode hex="005B"/>
  <outline>
    <contour>
      <point x="53" y="-100" type="line"/>
      <point x="167" y="-100" type="line"/>
      <point x="167" y="-76" type="line"/>
      <point x="53" y="-76" type="line"/>
    </contour>
  </outline>
</glyph>
<glyph name="bracketright.color2" format="2">
  <advance width="600"/>
  <unicode hex="005D"/>
  <outline>
    <contour>
      <point x="20" y="676" type="line"/>
      <point x="134" y="676" type="line"/>
      <point x="134" y="700" type="line"/>
      <point x="20" y="700" type="line"/>
    </contour>
  </outline>
</glyph>
<glyph name="asciicircum.color1" format="2">
  <advance width="600"/>
  <unicode hex="005E"/>
  <outline>
    <contour>
      <point x="149" y="468" type="line"/>
      <point x="173" y="468" type="line"/>
      <point x="173" y="469" type="line"/>
      <point x="124" y="700" type="line"/>
      <point x="102" y="700" type="line"/>
    </contour>
  </outline>
</glyph>
<glyph name="a" format="2">
  <advance width="197"/>
  <unicode hex="0061"/>
  <anchor x="102" y="0" name="bottom"/>
  <anchor x="102" y="500" name="top"/>
  <outline>
    <contour>
      <point x="74" y="476" type="line"/>
      <point x="147" y="476" type="line"/>
      <point x="147" y="477" type="line"/>
      <point x="124" y="500" type="line"/>
      <point x="74" y="500" type="line"/>
    </contour>
    <contour>
      <point x="73" y="0" type="line"/>
      <point x="123" y="0" type="line"/>
      <point x="123" y="24" type="line"/>
      <point x="50" y="24" type="line"/>
      <point x="50" y="23" type="line"/>
    </contour>
    <contour>
      <point x="50" y="24" type="line"/>
      <point x="74" y="24" type="line"/>
      <point x="74" y="500" type="line"/>
      <point x="73" y="500" type="line"/>
      <point x="50" y="477" type="line"/>
    </contour>
    <contour>
      <point x="123" y="0" type="line"/>
      <point x="147" y="0" type="line"/>
      <point x="147" y="476" type="line"/>
      <point x="123" y="476" type="line"/>
    </contour>
  </outline>
</glyph>
<glyph name="b.color1" format="2">
  <advance width="600"/>
  <unicode hex="0062"/>
  <outline>
    <contour>
      <point x="74" y="0" type="line"/>
      <point x="124" y="0" type="line"/>
      <point x="124" y="24" type="line"/>
      <point x="51" y="24" type="line"/>
      <point x="51" y="23" type="line"/>
    </contour>
  </outline>
</glyph>
<glyph name="b" format="2">
  <advance width="198"/>
  <unicode hex="0062"/>
  <outline>
    <contour>
      <point x="51" y="24" type="line"/>
      <point x="75" y="24" type="line"/>
      <point x="75" y="730" type="line"/>
      <point x="51" y="730" type="line"/>
    </contour>
    <contour>
      <point x="74" y="0" type="line"/>
      <point x="124" y="0" type="line"/>
      <point x="124" y="24" type="line"/>
      <point x="51" y="24" type="line"/>
      <point x="51" y="23" type="line"/>
    </contour>
    <contour>
      <point x="124" y="0" type="line"/>
      <point x="125" y="0" type="line"/>
      <point x="148" y="23" type="line"/>
      <point x="148" y="476" type="line"/>
      <point x="124" y="476" type="line"/>
    </contour>
    <contour>
      <point x="75" y="476" type="line"/>
      <point x="148" y="476" type="line"/>
      <point x="148" y="477" type="line"/>
      <point x="125" y="500" type="line"/>
      <point x="75" y="500" type="line"/>
    </contour>
  </outline>
</glyph>
<glyph name="d" format="2">
  <advance width="197"/>
  <unicode hex="0064"/>
  <anchor x="103" y="578" name="stroke"/>
  <anchor x="147" y="730" name="top"/>
  <outline>
    <contour>
      <point x="146" y="477" type="line"/>
      <point x="147" y="477" type="line"/>
      <point x="147" y="730" type="line"/>
      <point x="123" y="730" type="line"/>
      <point x="123" y="500" type="line"/>
    </contour>
    <contour>
      <point x="74" y="476" type="line"/>
      <point x="147" y="476" type="line"/>
      <point x="147" y="477" type="line"/>
      <point x="124" y="500" type="line"/>
      <point x="74" y="500" type="line"/>
    </contour>
    <contour>
      <point x="73" y="0" type="line"/>
      <point x="123" y="0" type="line"/>
      <point x="123" y="24" type="line"/>
      <point x="50" y="24" type="line"/>
      <point x="50" y="23" type="line"/>
    </contour>
    <contour>
      <point x="50" y="24" type="line"/>
      <point x="74" y="24" type="line"/>
      <point x="74" y="500" type="line"/>
      <point x="73" y="500" type="line"/>
      <point x="50" y="477" type="line"/>
    </contour>
    <contour>
      <point x="123" y="0" type="line"/>
      <point x="124" y="0" type="line"/>
      <point x="147" y="23" type="line"/>
      <point x="147" y="476" type="line"/>
      <point x="123" y="476" type="line"/>
    </contour>
  </outline>
</glyph>
<glyph name="f.color1" format="2">
  <advance width="600"/>
  <unicode hex="0066"/>
  <outline>
    <contour>
      <point x="50" y="0" type="line"/>
      <point x="74" y="0" type="line"/>
      <point x="74" y="353" type="line"/>
      <point x="51" y="377" type="line"/>
      <point x="50" y="377" type="line"/>
    </contour>
  </outline>
</glyph>
<glyph name="g.color0" format="2">
  <advance width="600"/>
  <unicode hex="0067"/>
  <outline>
    <contour>
      <point x="74" y="476" type="line"/>
      <point x="164" y="476" type="line"/>
      <point x="187" y="499" type="line"/>
      <point x="187" y="500" type="line"/>
      <point x="74" y="500" type="line"/>
    </contour>
  </outline>
</glyph>
<glyph name="g.color4" format="2">
  <advance width="600"/>
  <unicode hex="0067"/>
  <outline>
    <contour>
      <point x="123" y="-200" type="line"/>
      <point x="124" y="-200" type="line"/>
      <point x="146" y="-177" type="line"/>
      <point x="147" y="476" type="line"/>
      <point x="123" y="476" type="line"/>
    </contour>
  </outline>
</glyph>
<glyph name="h.color1" format="2">
  <advance width="600"/>
  <unicode hex="0068"/>
  <outline>
    <contour>
      <point x="123" y="-3" type="line"/>
      <point x="124" y="-3" type="line"/>
      <point x="147" y="20" type="line"/>
      <point x="147" y="476" type="line"/>
      <point x="123" y="476" type="line"/>
    </contour>
  </outline>
</glyph>
<glyph name="i.color0" format="2">
  <advance width="600"/>
  <unicode hex="0069"/>
  <outline>
    <contour>
      <point x="50" y="0" type="line"/>
      <point x="74" y="0" type="line"/>
      <point x="74" y="503" type="line"/>
      <point x="73" y="503" type="line"/>
      <point x="50" y="480" type="line"/>
    </contour>
  </outline>
</glyph>
<glyph name="j.color1" format="2">
  <advance width="600"/>
  <unicode hex="006A"/>
  <outline>
    <contour>
      <point x="-12" y="-200" type="line"/>
      <point x="50" y="-200" type="line"/>
      <point x="50" y="-176" type="line"/>
      <point x="-12" y="-176" type="line"/>
    </contour>
  </outline>
</glyph>
<glyph name="j" format="2">
  <advance width="124"/>
  <unicode hex="006A"/>
  <outline>
    <contour>
      <point x="50" y="-200" type="line"/>
      <point x="51" y="-200" type="line"/>
      <point x="74" y="-177" type="line"/>
      <point x="74" y="503" type="line"/>
      <point x="73" y="503" type="line"/>
      <point x="50" y="480" type="line"/>
    </contour>
    <contour>
      <point x="-12" y="-200" type="line"/>
      <point x="50" y="-200" type="line"/>
      <point x="50" y="-176" type="line"/>
      <point x="-12" y="-176" type="line"/>
    </contour>
    <contour>
      <point x="50" y="542" type="line"/>
      <point x="51" y="542" type="line"/>
      <point x="74" y="565" type="line"/>
      <point x="74" y="615" type="line"/>
      <point x="50" y="615" type="line"/>
    </contour>
  </outline>
</glyph>
<glyph name="k.color2" format="2">
  <advance width="600"/>
  <unicode hex="006B"/>
  <outline>
    <contour>
      <point x="74" y="353" type="line"/>
      <point x="171" y="353" type="line"/>
      <point x="171" y="354" type="line"/>
      <point x="148" y="377" type="line"/>
      <point x="74" y="377" type="line"/>
    </contour>
  </outline>
</glyph>
<glyph name="l.color1" format="2">
  <advance width="600"/>
  <unicode hex="006C"/>
  <outline>
    <contour>
      <point x="74" y="0" type="line"/>
      <point x="136" y="0" type="line"/>
      <point x="136" y="24" type="line"/>
      <point x="74" y="24" type="line"/>
    </contour>
  </outline>
</glyph>
<glyph name="m.color4" format="2">
  <advance width="600"/>
  <unicode hex="006D"/>
  <outline>
    <contour>
      <point x="147" y="476" type="line"/>
      <point x="220" y="476" type="line"/>
      <point x="220" y="477" type="line"/>
      <point x="197" y="500" type="line"/>
      <point x="147" y="500" type="line"/>
    </contour>
  </outline>
</glyph>
<glyph name="v" format="2">
  <advance width="197"/>
  <unicode hex="0076"/>
  <outline>
    <contour>
      <point x="123" y="0" type="line"/>
      <point x="124" y="0" type="line"/>
      <point x="147" y="23" type="line"/>
      <point x="147" y="500" type="line"/>
      <point x="123" y="500" type="line"/>
    </contour>
    <contour>
      <point x="73" y="0" type="line"/>
      <point x="123" y="0" type="line"/>
      <point x="123" y="24" type="line"/>
      <point x="50" y="24" type="line"/>
      <point x="50" y="23" type="line"/>
    </contour>
    <contour>
      <point x="50" y="24" type="line"/>
      <point x="74" y="24" type="line"/>
      <point x="74" y="503" type="line"/>
      <point x="73" y="503" type="line"/>
      <point x="50" y="480" type="line"/>
    </contour>
  </outline>
</glyph>
<glyph name="x.color2" format="2">
  <advance width="600"/>
  <unicode hex="0078"/>
  <outline>
    <contour>
      <point x="29" y="0" type="line"/>
      <point x="53" y="0" type="line"/>
      <point x="104" y="250" type="line"/>
      <point x="81" y="250" type="line"/>
      <point x="29" y="1" type="line"/>
    </contour>
  </outline>
</glyph>
<glyph name="x.color3" format="2">
  <advance width="600"/>
  <unicode hex="0078"/>
  <outline>
    <contour>
      <point x="82" y="250" type="line"/>
      <point x="105" y="250" type="line"/>
      <point x="156" y="499" type="line"/>
      <point x="156" y="500" type="line"/>
      <point x="132" y="500" type="line"/>
    </contour>
  </outline>
</glyph>
<glyph name="y.color1" format="2">
  <advance width="600"/>
  <unicode hex="0079"/>
  <outline>
    <contour>
      <point x="50" y="-200" type="line"/>
      <point x="123" y="-200" type="line"/>
      <point x="123" y="-176" type="line"/>
      <point x="50" y="-176" type="line"/>
      <point x="50" y="-177" type="line"/>
    </contour>
  </outline>
</glyph>
<glyph name="y.color2" format="2">
  <advance width="600"/>
  <unicode hex="0079"/>
  <outline>
    <contour>
      <point x="73" y="0" type="line"/>
      <point x="123" y="0" type="line"/>
      <point x="123" y="24" type="line"/>
      <point x="50" y="24" type="line"/>
      <point x="50" y="23" type="line"/>
    </contour>
  </outline>
</glyph>
<glyph name="z.color0" format="2">
  <advance width="600"/>
  <unicode hex="007A"/>
  <outline>
    <contour>
      <point x="23" y="476" type="line"/>
      <point x="123" y="476" type="line"/>
      <point x="126" y="500" type="line"/>
      <point x="23" y="500" type="line"/>
      <point x="23" y="477" type="line"/>
    </contour>
  </outline>
</glyph>
<glyph name="braceleft.color1" format="2">
  <advance width="600"/>
  <unicode hex="007B"/>
  <outline>
    <contour>
      <point x="53" y="292" type="line"/>
      <point x="98" y="292" type="line"/>
      <point x="98" y="316" type="line"/>
      <point x="53" y="316" type="line"/>
    </contour>
  </outline>
</glyph>
<glyph name="braceright.color0" format="2">
  <advance width="600"/>
  <unicode hex="007D"/>
  <outline>
    <contour>
      <point x="133" y="284" type="line"/>
      <point x="134" y="284" type="line"/>
      <point x="134" y="676" type="line"/>
      <point x="110" y="700" type="line"/>
      <point x="110" y="314" type="line"/>
    </contour>
  </outline>
</glyph>
<glyph name="braceright.color1" format="2">
  <advance width="600"/>
  <unicode hex="007D"/>
  <outline>
    <contour>
      <point x="20" y="-100" type="line"/>
      <point x="110" y="-100" type="line"/>
      <point x="110" y="-76" type="line"/>
      <point x="20" y="-76" type="line"/>
    </contour>
  </outline>
</glyph>
<glyph name="braceright.color4" format="2">
  <advance width="600"/>
  <unicode hex="007D"/>
  <outline>
    <contour>
      <point x="110" y="-100" type="line"/>
      <point x="134" y="-76" type="line"/>
      <point x="134" y="308" type="line"/>
      <point x="133" y="308" type="line"/>
      <point x="110" y="278" type="line"/>
    </contour>
  </outline>
</glyph>
<glyph name="cent.color0" format="2">
  <advance width="600"/>
  <unicode hex="00A2"/>
  <outline>
    <contour>
      <point x="87" y="487" type="line"/>
      <point x="111" y="487" type="line"/>
      <point x="111" y="546" type="line"/>
      <point x="110" y="546" type="line"/>
      <point x="87" y="523" type="line"/>
    </contour>
  </outline>
</glyph>
<glyph name="sterling.color0" format="2">
  <advance width="600"/>
  <unicode hex="00A3"/>
  <outline>
    <contour>
      <point x="53" y="0" type="line"/>
      <point x="290" y="0" type="line"/>
      <point x="290" y="24" type="line"/>
      <point x="53" y="24" type="line"/>
    </contour>
  </outline>
</glyph>
<glyph name="sterling.color1" format="2">
  <advance width="600"/>
  <unicode hex="00A3"/>
  <outline>
    <contour>
      <point x="53" y="374" type="line"/>
      <point x="275" y="375" type="line"/>
      <point x="275" y="399" type="line"/>
      <point x="53" y="398" type="line"/>
    </contour>
  </outline>
</glyph>
<glyph name="sterling.color3" format="2">
  <advance width="600"/>
  <unicode hex="00A3"/>
  <outline>
    <contour>
      <point x="127" y="676" type="line"/>
      <point x="260" y="676" type="line"/>
      <point x="260" y="677" type="line"/>
      <point x="237" y="700" type="line"/>
      <point x="127" y="700" type="line"/>
    </contour>
  </outline>
</glyph>
<glyph name="currency.color2" format="2">
  <advance width="600"/>
  <unicode hex="00A4"/>
  <outline>
    <contour>
      <point x="116" y="150" type="line"/>
      <point x="167" y="150" type="line"/>
      <point x="167" y="174" type="line"/>
      <point x="93" y="174" type="line"/>
    </contour>
  </outline>
</glyph>
<glyph name="currency.color3" format="2">
  <advance width="600"/>
  <unicode hex="00A4"/>
  <outline>
    <contour>
      <point x="93" y="174" type="line"/>
      <point x="117" y="174" type="line"/>
      <point x="117" y="550" type="line"/>
      <point x="93" y="527" type="line"/>
    </contour>
  </outline>
</glyph>
<glyph name="currency.color4" format="2">
  <advance width="600"/>
  <unicode hex="00A4"/>
  <outline>
    <contour>
      <point x="93" y="527" type="line"/>
      <point x="117" y="550" type="line"/>
      <point x="77" y="603" type="line"/>
      <point x="53" y="580" type="line"/>
    </contour>
  </outline>
</glyph>
<glyph name="currency.color5" format="2">
  <advance width="600"/>
  <unicode hex="00A4"/>
  <outline>
    <contour>
      <point x="207" y="97" type="line"/>
      <point x="231" y="120" type="line"/>
      <point x="191" y="173" type="line"/>
      <point x="167" y="150" type="line"/>
    </contour>
  </outline>
</glyph>
<glyph name="yen.color1" format="2">
  <advance width="600"/>
  <unicode hex="00A5"/>
  <outline>
    <contour>
      <point x="59" y="229" type="line"/>
      <point x="218" y="230" type="line"/>
      <point x="218" y="231" type="line"/>
      <point x="195" y="254" type="line"/>
      <point x="36" y="253" type="line"/>
      <point x="36" y="252" type="line"/>
    </contour>
  </outline>
</glyph>
<glyph name="section.color0" format="2">
  <advance width="600"/>
  <unicode hex="00A7"/>
  <outline>
    <contour>
      <point x="65" y="386" type="line"/>
      <point x="151" y="435" type="line"/>
      <point x="157" y="476" type="line"/>
      <point x="77" y="429" type="line"/>
    </contour>
  </outline>
</glyph>
<glyph name="section.color4" format="2">
  <advance width="600"/>
  <unicode hex="00A7"/>
  <outline>
    <contour>
      <point x="199" y="-100" type="line"/>
      <point x="219" y="-76" type="line"/>
      <point x="77" y="429" type="line"/>
      <point x="53" y="415" type="line"/>
      <point x="53" y="414" type="line"/>
    </contour>
  </outline>
</glyph>
<glyph name="section.color5" format="2">
  <advance width="600"/>
  <unicode hex="00A7"/>
  <outline>
    <contour>
      <point x="213" y="201" type="line"/>
      <point x="237" y="215" type="line"/>
      <point x="237" y="216" type="line"/>
      <point x="91" y="700" type="line"/>
      <point x="71" y="676" type="line"/>
    </contour>
  </outline>
</glyph>
<glyph name="copyright.color2" format="2">
  <advance width="600"/>
  <unicode hex="00A9"/>
  <outline>
    <contour>
      <point x="77" y="-41" type="line"/>
      <point x="327" y="-41" type="line"/>
      <point x="350" y="-18" type="line"/>
      <point x="350" y="-17" type="line"/>
      <point x="77" y="-17" type="line"/>
    </contour>
  </outline>
</glyph>
<glyph name="copyright.color3" format="2">
  <advance width="600"/>
  <unicode hex="00A9"/>
  <outline>
    <contour>
      <point x="156" y="68" type="line"/>
      <point x="180" y="68" type="line"/>
      <point x="180" y="544" type="line"/>
      <point x="179" y="544" type="line"/>
      <point x="156" y="521" type="line"/>
    </contour>
  </outline>
</glyph>
<glyph name="ordfeminine.color0" format="2">
  <advance width="600"/>
  <unicode hex="00AA"/>
  <outline>
    <contour>
      <point x="75" y="707" type="line"/>
      <point x="137" y="707" type="line"/>
      <point x="137" y="708" type="line"/>
      <point x="116" y="730" type="line"/>
      <point x="75" y="730" type="line"/>
    </contour>
  </outline>
</glyph>
<glyph name="ordfeminine.color1" format="2">
  <advance width="600"/>
  <unicode hex="00AA"/>
  <outline>
    <contour>
      <point x="74" y="502" type="line"/>
      <point x="115" y="502" type="line"/>
      <point x="115" y="525" type="line"/>
      <point x="53" y="525" type="line"/>
      <point x="53" y="524" type="line"/>
    </contour>
  </outline>
</glyph>
<glyph name="ordfeminine.color2" format="2">
  <advance width="600"/>
  <unicode hex="00AA"/>
  <outline>
    <contour>
      <point x="53" y="525" type="line"/>
      <point x="75" y="525" type="line"/>
      <point x="75" y="730" type="line"/>
      <point x="74" y="730" type="line"/>
      <point x="53" y="708" type="line"/>
    </contour>
  </outline>
</glyph>
<glyph name="guillemetleft.color3" format="2">
  <advance width="600"/>
  <unicode hex="00AB"/>
  <outline>
    <contour>
      <point x="266" y="100" type="line"/>
      <point x="295" y="100" type="line"/>
      <point x="295" y="101" type="line"/>
      <point x="152" y="277" type="line"/>
      <point x="123" y="277" type="line"/>
      <point x="123" y="276" type="line"/>
    </contour>
  </outline>
</glyph>
<glyph name="registered.color1" format="2">
  <advance width="600"/>
  <unicode hex="00AE"/>
  <outline>
    <contour>
      <point x="55" y="410" type="line"/>
      <point x="56" y="410" type="line"/>
      <point x="56" y="677" type="line"/>
      <point x="33" y="677" type="line"/>
      <point x="33" y="432" type="line"/>
    </contour>
  </outline>
</glyph>
<glyph name="registered.color2" format="2">
  <advance width="600"/>
  <unicode hex="00AE"/>
  <outline>
    <contour>
      <point x="56" y="410" type="line"/>
      <point x="212" y="410" type="line"/>
      <point x="233" y="432" type="line"/>
      <point x="233" y="433" type="line"/>
      <point x="56" y="433" type="line"/>
    </contour>
  </outline>
</glyph>
<glyph name="registered.color3" format="2">
  <advance width="600"/>
  <unicode hex="00AE"/>
  <outline>
    <contour>
      <point x="155" y="450" type="line"/>
      <point x="181" y="450" type="line"/>
      <point x="181" y="451" type="line"/>
      <point x="156" y="558" type="line"/>
      <point x="132" y="548" type="line"/>
    </contour>
  </outline>
</glyph>
<glyph name="registered.color5" format="2">
  <advance width="600"/>
  <unicode hex="00AE"/>
  <outline>
    <contour>
      <point x="149" y="538" type="line"/>
      <point x="150" y="538" type="line"/>
      <point x="173" y="561" type="line"/>
      <point x="173" y="636" type="line"/>
      <point x="149" y="636" type="line"/>
    </contour>
  </outline>
</glyph>
<glyph name="registered.color8" format="2">
  <advance width="600"/>
  <unicode hex="00AE"/>
  <outline>
    <contour>
      <point x="211" y="433" type="line"/>
      <point x="233" y="433" type="line"/>
      <point x="233" y="678" type="line"/>
      <point x="212" y="700" type="line"/>
      <point x="211" y="700" type="line"/>
    </contour>
  </outline>
</glyph>
<glyph name="degree.color1" format="2">
  <advance width="600"/>
  <unicode hex="00B0"/>
  <outline>
    <contour>
      <point x="21" y="575" type="line"/>
      <point x="69" y="575" type="line"/>
      <point x="69" y="598" type="line"/>
      <point x="0" y="598" type="line"/>
      <point x="0" y="597" type="line"/>
    </contour>
  </outline>
</glyph>
<glyph name="plusminus.color0" format="2">
  <advance width="600"/>
  <unicode hex="00B1"/>
  <outline>
    <contour>
      <point x="53" y="229" type="line"/>
      <point x="244" y="229" type="line"/>
      <point x="244" y="253" type="line"/>
      <point x="53" y="253" type="line"/>
    </contour>
  </outline>
</glyph>
<glyph name="plusminus.color4" format="2">
  <advance width="600"/>
  <unicode hex="00B1"/>
  <outline>
    <contour>
      <point x="138" y="349" type="line"/>
      <point x="244" y="349" type="line"/>
      <point x="244" y="373" type="line"/>
      <point x="161" y="373" type="line"/>
    </contour>
  </outline>
</glyph>
<glyph name="twosuperior.color0" format="2">
  <advance width="600"/>
  <unicode hex="00B2"/>
  <outline>
    <contour>
      <point x="53" y="676" type="line"/>
      <point x="153" y="676" type="line"/>
      <point x="156" y="700" type="line"/>
      <point x="76" y="700" type="line"/>
      <point x="53" y="677" type="line"/>
    </contour>
  </outline>
</glyph>
<glyph name="twosuperior.color2" format="2">
  <advance width="600"/>
  <unicode hex="00B2"/>
  <outline>
    <contour>
      <point x="53" y="430" type="line"/>
      <point x="179" y="430" type="line"/>
      <point x="179" y="454" type="line"/>
      <point x="53" y="454" type="line"/>
    </contour>
  </outline>
</glyph>
<glyph name="threesuperior.color0" format="2">
  <advance width="600"/>
  <unicode hex="00B3"/>
  <outline>
    <contour>
      <point x="76" y="430" type="line"/>
      <point x="151" y="430" type="line"/>
      <point x="151" y="454" type="line"/>
      <point x="53" y="454" type="line"/>
      <point x="53" y="453" type="line"/>
    </contour>
  </outline>
</glyph>
<glyph name="threesuperior.color1" format="2">
  <advance width="600"/>
  <unicode hex="00B3"/>
  <outline>
    <contour>
      <point x="83" y="563" type="line"/>
      <point x="151" y="563" type="line"/>
      <point x="151" y="587" type="line"/>
      <point x="83" y="587" type="line"/>
    </contour>
  </outline>
</glyph>
<glyph name="threesuperior.color3" format="2">
  <advance width="600"/>
  <unicode hex="00B3"/>
  <outline>
    <contour>
      <point x="151" y="587" type="line"/>
      <point x="174" y="587" type="line"/>
      <point x="174" y="667" type="line"/>
      <point x="152" y="700" type="line"/>
      <point x="151" y="700" type="line"/>
    </contour>
  </outline>
</glyph>
<glyph name="paragraph.color0" format="2">
  <advance width="600"/>
  <unicode hex="00B6"/>
  <outline>
    <contour>
      <point x="47" y="676" type="line"/>
      <point x="247" y="676" type="line"/>
      <point x="247" y="700" type="line"/>
      <point x="47" y="700" type="line"/>
    </contour>
  </outline>
</glyph>
<glyph name="cedilla.color1" format="2">
  <advance width="600"/>
  <unicode hex="00B8"/>
  <outline>
    <contour>
      <point x="301" y="-44" type="line"/>
      <point x="322" y="-44" type="line"/>
      <point x="337" y="-1" type="line"/>
      <point x="337" y="0" type="line"/>
      <point x="313" y="0" type="line"/>
      <point x="301" y="-43" type="line"/>
    </contour>
  </outline>
</glyph>
<glyph name="cedilla.color2" format="2">
  <advance width="600"/>
  <unicode hex="00B8"/>
  <outline>
    <contour>
      <point x="304" y="-109" type="line"/>
      <point x="336" y="-109" type="line"/>
      <point x="336" y="-90" type="line"/>
      <point x="286" y="-90" type="line"/>
      <point x="286" y="-91" type="line"/>
    </contour>
  </outline>
</glyph>
<glyph name="ordmasculine.color2" format="2">
  <advance width="600"/>
  <unicode hex="00BA"/>
  <outline>
    <contour>
      <point x="53" y="525" type="line"/>
      <point x="75" y="525" type="line"/>
      <point x="75" y="730" type="line"/>
      <point x="74" y="730" type="line"/>
      <point x="53" y="708" type="line"/>
    </contour>
  </outline>
</glyph>
<glyph name="guillemetright.color0" format="2">
  <advance width="600"/>
  <unicode hex="00BB"/>
  <outline>
    <contour>
      <point x="215" y="277" type="line"/>
      <point x="215" y="278" type="line"/>
      <point x="72" y="453" type="line"/>
      <point x="43" y="453" type="line"/>
      <point x="43" y="452" type="line"/>
      <point x="186" y="277" type="line"/>
    </contour>
  </outline>
</glyph>
<glyph name="onequarter.color3" format="2">
  <advance width="600"/>
  <unicode hex="00BC"/>
  <outline>
    <contour>
      <point x="62" y="676" type="line"/>
      <point x="103" y="676" type="line"/>
      <point x="126" y="700" type="line"/>
      <point x="62" y="700" type="line"/>
    </contour>
  </outline>
</glyph>
<glyph name="onequarter.color7" format="2">
  <advance width="600"/>
  <unicode hex="00BC"/>
  <outline>
    <contour>
      <point x="390" y="0" type="line"/>
      <point x="414" y="0" type="line"/>
      <point x="414" y="104" type="line"/>
      <point x="391" y="128" type="line"/>
      <point x="390" y="128" type="line"/>
    </contour>
  </outline>
</glyph>
<glyph name="onehalf.color1" format="2">
  <advance width="600"/>
  <unicode hex="00BD"/>
  <outline>
    <contour>
      <point x="53" y="430" type="line"/>
      <point x="103" y="430" type="line"/>
      <point x="103" y="454" type="line"/>
      <point x="53" y="454" type="line"/>
    </contour>
  </outline>
</glyph>
<glyph name="onehalf.color3" format="2">
  <advance width="600"/>
  <unicode hex="00BD"/>
  <outline>
    <contour>
      <point x="62" y="676" type="line"/>
      <point x="103" y="676" type="line"/>
      <point x="126" y="700" type="line"/>
      <point x="62" y="700" type="line"/>
    </contour>
  </outline>
</glyph>
<glyph name="threequarters.color2" format="2">
  <advance width="600"/>
  <unicode hex="00BE"/>
  <outline>
    <contour>
      <point x="63" y="676" type="line"/>
      <point x="151" y="676" type="line"/>
      <point x="151" y="700" type="line"/>
      <point x="86" y="700" type="line"/>
      <point x="63" y="677" type="line"/>
    </contour>
  </outline>
</glyph>
<glyph name="threequarters.color4" format="2">
  <advance width="600"/>
  <unicode hex="00BE"/>
  <outline>
    <contour>
      <point x="151" y="430" type="line"/>
      <point x="152" y="430" type="line"/>
      <point x="175" y="454" type="line"/>
      <point x="175" y="563" type="line"/>
      <point x="152" y="587" type="line"/>
      <point x="151" y="587" type="line"/>
    </contour>
  </outline>
</glyph>
<glyph name="questiondown.color3" format="2">
  <advance width="600"/>
  <unicode hex="00BF"/>
  <outline>
    <contour>
      <point x="123" y="333" type="line"/>
      <point x="124" y="333" type="line"/>
      <point x="147" y="357" type="line"/>
      <point x="147" y="566" type="line"/>
      <point x="123" y="566" type="line"/>
    </contour>
  </outline>
</glyph>
<glyph name="Atilde.color6" format="2">
  <advance width="600"/>
  <unicode hex="00C3"/>
  <outline>
    <contour>
      <point x="173" y="785" type="line"/>
      <point x="174" y="785" type="line"/>
      <point x="196" y="794" type="line"/>
      <point x="196" y="795" type="line"/>
      <point x="100" y="847" type="line"/>
      <point x="99" y="847" type="line"/>
      <point x="77" y="838" type="line"/>
      <point x="77" y="837" type="line"/>
    </contour>
  </outline>
</glyph>
<glyph name="Adieresis" format="2">
  <advance width="273"/>
  <unicode hex="00C4"/>
  <anchor x="135" y="0" name="bottom"/>
  <anchor x="138" y="800" name="top"/>
  <outline>
    <contour>
      <point x="53" y="0" type="line"/>
      <point x="77" y="0" type="line"/>
      <point x="77" y="700" type="line"/>
      <point x="76" y="700" type="line"/>
      <point x="53" y="677" type="line"/>
    </contour>
    <contour>
      <point x="77" y="353" type="line"/>
      <point x="196" y="353" type="line"/>
      <point x="196" y="377" type="line"/>
      <point x="77" y="377" type="line"/>
    </contour>
    <contour>
      <point x="196" y="0" type="line"/>
      <point x="220" y="0" type="line"/>
      <point x="220" y="676" type="line"/>
      <point x="196" y="676" type="line"/>
    </contour>
    <contour>
      <point x="77" y="676" type="line"/>
      <point x="220" y="676" type="line"/>
      <point x="220" y="677" type="line"/>
      <point x="197" y="700" type="line"/>
      <point x="77" y="700" type="line"/>
    </contour>
    <contour>
      <point x="155" y="811" type="line"/>
      <point x="186" y="811" type="line"/>
      <point x="186" y="845" type="line"/>
      <point x="155" y="845" type="line"/>
    </contour>
    <contour>
      <point x="90" y="811" type="line"/>
      <point x="121" y="811" type="line"/>
      <point x="121" y="845" type="line"/>
      <point x="90" y="845" type="line"/>
    </contour>
  </outline>
</glyph>
<glyph name="Aring.color7" format="2">
  <advance width="600"/>
  <unicode hex="00C5"/>
  <outline>
    <contour>
      <point x="116" y="835" type="line"/>
      <point x="172" y="835" type="line"/>
      <point x="172" y="836" type="line"/>
      <point x="154" y="857" type="line"/>
      <point x="116" y="857" type="line"/>
    </contour>
  </outline>
</glyph>
<glyph name="AE.color5" format="2">
  <advance width="600"/>
  <unicode hex="00C6"/>
  <outline>
    <contour>
      <point x="220" y="353" type="line"/>
      <point x="339" y="353" type="line"/>
      <point x="339" y="377" type="line"/>
      <point x="220" y="377" type="line"/>
    </contour>
  </outline>
</glyph>
<glyph name="AE.color6" format="2">
  <advance width="600"/>
  <unicode hex="00C6"/>
  <outline>
    <contour>
      <point x="220" y="676" type="line"/>
      <point x="340" y="676" type="line"/>
      <point x="363" y="699" type="line"/>
      <point x="363" y="700" type="line"/>
      <point x="197" y="700" type="line"/>
    </contour>
  </outline>
</glyph>
<glyph name="Ccedilla.color3" format="2">
  <advance width="600"/>
  <unicode hex="00C7"/>
  <outline>
    <contour>
      <point x="136" y="-44" type="line"/>
      <point x="171" y="-44" type="line"/>
      <point x="171" y="-43" type="line"/>
      <point x="153" y="-25" type="line"/>
      <point x="136" y="-25" type="line"/>
    </contour>
  </outline>
</glyph>
<glyph name="Edieresis.color2" format="2">
  <advance width="600"/>
  <unicode hex="00CB"/>
  <outline>
    <contour>
      <point x="77" y="353" type="line"/>
      <point x="196" y="353" type="line"/>
      <point x="196" y="377" type="line"/>
      <point x="77" y="377" type="line"/>
    </contour>
  </outline>
</glyph>
<glyph name="Igrave.color1" format="2">
  <advance width="600"/>
  <unicode hex="00CC"/>
  <outline>
    <contour>
      <point x="21" y="0" type="line"/>
      <point x="101" y="0" type="line"/>
      <point x="101" y="24" type="line"/>
      <point x="21" y="24" type="line"/>
    </contour>
  </outline>
</glyph>
<glyph name="Icircumflex.color0" format="2">
  <advance width="600"/>
  <unicode hex="00CE"/>
  <outline>
    <contour>
      <point x="101" y="0" type="line"/>
      <point x="102" y="0" type="line"/>
      <point x="125" y="24" type="line"/>
      <point x="125" y="700" type="line"/>
      <point x="124" y="700" type="line"/>
      <point x="101" y="676" type="line"/>
    </contour>
  </outline>
</glyph>
<glyph name="Icircumflex.color3" format="2">
  <advance width="600"/>
  <unicode hex="00CE"/>
  <outline>
    <contour>
      <point x="20" y="676" type="line"/>
      <point x="101" y="676" type="line"/>
      <point x="124" y="700" type="line"/>
      <point x="20" y="700" type="line"/>
    </contour>
  </outline>
</glyph>
<glyph name="Idieresis.color6" format="2">
  <advance width="600"/>
  <unicode hex="00CF"/>
  <outline>
    <contour>
      <point x="67" y="811" type="line"/>
      <point x="98" y="811" type="line"/>
      <point x="98" y="845" type="line"/>
      <point x="67" y="845" type="line"/>
    </contour>
  </outline>
</glyph>
<glyph name="Eth.color4" format="2">
  <advance width="600"/>
  <unicode hex="00D0"/>
  <outline>
    <contour>
      <point x="198" y="0" type="line"/>
      <point x="199" y="0" type="line"/>
      <point x="222" y="23" type="line"/>
      <point x="222" y="676" type="line"/>
      <point x="198" y="676" type="line"/>
    </contour>
  </outline>
</glyph>
<glyph name="Ntilde.color4" format="2">
  <advance width="600"/>
  <unicode hex="00D1"/>
  <outline>
    <contour>
      <point x="203" y="795" type="line"/>
      <point x="227" y="795" type="line"/>
      <point x="227" y="847" type="line"/>
      <point x="203" y="847" type="line"/>
    </contour>
  </outline>
</glyph>
<glyph name="Ugrave" format="2">
  <advance width="273"/>
  <unicode hex="00D9"/>
  <anchor x="132" y="0" name="bottom"/>
  <anchor x="196" y="700" name="horn"/>
  <anchor x="143" y="701" name="top"/>
  <outline>
    <contour>
      <point x="196" y="0" type="line"/>
      <point x="197" y="0" type="line"/>
      <point x="220" y="23" type="line"/>
      <point x="220" y="700" type="line"/>
      <point x="196" y="700" type="line"/>
    </contour>
    <contour>
      <point x="76" y="0" type="line"/>
      <point x="196" y="0" type="line"/>
      <point x="196" y="24" type="line"/>
      <point x="53" y="24" type="line"/>
      <point x="53" y="23" type="line"/>
    </contour>
    <contour>
      <point x="53" y="24" type="line"/>
      <point x="77" y="24" type="line"/>
      <point x="77" y="700" type="line"/>
      <point x="53" y="700" type="line"/>
    </contour>
    <contour>
      <point x="133" y="741" type="line"/>
      <point x="157" y="741" type="line"/>
      <point x="147" y="861" type="line"/>
      <point x="116" y="861" type="line"/>
      <point x="116" y="860" type="line"/>
    </contour>
  </outline>
</glyph>
<glyph name="Uacute.color3" format="2">
  <advance width="600"/>
  <unicode hex="00DA"/>
  <outline>
    <contour>
      <point x="125" y="736" type="line"/>
      <point x="149" y="736" type="line"/>
      <point x="176" y="855" type="line"/>
      <point x="176" y="856" type="line"/>
      <point x="145" y="856" type="line"/>
    </contour>
  </outline>
</glyph>
<glyph name="Udieresis.color3" format="2">
  <advance width="600"/>
  <unicode hex="00DC"/>
  <outline>
    <contour>
      <point x="160" y="812" type="line"/>
      <point x="191" y="812" type="line"/>
      <point x="191" y="846" type="line"/>
      <point x="160" y="846" type="line"/>
    </contour>
  </outline>
</glyph>
<glyph name="Yacute.color0" format="2">
  <advance width="600"/>
  <unicode hex="00DD"/>
  <outline>
    <contour>
      <point x="117" y="350" type="line"/>
      <point x="118" y="350" type="line"/>
      <point x="140" y="356" type="line"/>
      <point x="47" y="700" type="line"/>
      <point x="23" y="700" type="line"/>
      <point x="23" y="699" type="line"/>
    </contour>
  </outline>
</glyph>
<glyph name="Yacute" format="2">
  <advance width="250"/>
  <unicode hex="00DD"/>
  <anchor x="129" y="0" name="bottom"/>
  <anchor x="127" y="700" name="top"/>
  <outline>
    <contour>
      <point x="117" y="350" type="line"/>
      <point x="118" y="350" type="line"/>
      <point x="140" y="356" type="line"/>
      <point x="47" y="700" type="line"/>
      <point x="23" y="700" type="line"/>
      <point x="23" y="699" type="line"/>
    </contour>
    <contour>
      <point x="117" y="0" type="line"/>
      <point x="141" y="0" type="line"/>
      <point x="141" y="350" type="line"/>
      <point x="117" y="350" type="line"/>
    </contour>
    <contour>
      <point x="118" y="350" type="line"/>
      <point x="141" y="350" type="line"/>
      <point x="227" y="699" type="line"/>
      <point x="227" y="700" type="line"/>
      <point x="203" y="700" type="line"/>
    </contour>
    <contour>
      <point x="109" y="735" type="line"/>
      <point x="133" y="735" type="line"/>
      <point x="160" y="854" type="line"/>
      <point x="160" y="855" type="line"/>
      <point x="129" y="855" type="line"/>
    </contour>
  </outline>
</glyph>
<glyph name="germandbls.color1" format="2">
  <advance width="600"/>
  <unicode hex="00DF"/>
  <outline>
    <contour>
      <point x="124" y="0" type="line"/>
      <point x="186" y="0" type="line"/>
      <point x="186" y="24" type="line"/>
      <point x="147" y="24" type="line"/>
    </contour>
  </outline>
</glyph>
<glyph name="germandbls.color2" format="2">
  <advance width="600"/>
  <unicode hex="00DF"/>
  <outline>
    <contour>
      <point x="77" y="776" type="line"/>
      <point x="122" y="776" type="line"/>
      <point x="122" y="800" type="line"/>
      <point x="77" y="800" type="line"/>
    </contour>
  </outline>
</glyph>
<glyph name="germandbls.color5" format="2">
  <advance width="600"/>
  <unicode hex="00DF"/>
  <outline>
    <contour>
      <point x="186" y="0" type="line"/>
      <point x="187" y="0" type="line"/>
      <point x="210" y="23" type="line"/>
      <point x="210" y="374" type="line"/>
      <point x="187" y="397" type="line"/>
      <point x="186" y="397" type="line"/>
    </contour>
  </outline>
</glyph>
<glyph name="germandbls" format="2">
  <advance width="263"/>
  <unicode hex="00DF"/>
  <outline>
    <contour>
      <point x="53" y="-200" type="line"/>
      <point x="77" y="-200" type="line"/>
      <point x="77" y="800" type="line"/>
      <point x="76" y="800" type="line"/>
      <point x="53" y="777" type="line"/>
    </contour>
    <contour>
      <point x="124" y="0" type="line"/>
      <point x="186" y="0" type="line"/>
      <point x="186" y="24" type="line"/>
      <point x="147" y="24" type="line"/>
    </contour>
    <contour>
      <point x="77" y="776" type="line"/>
      <point x="122" y="776" type="line"/>
      <point x="122" y="800" type="line"/>
      <point x="77" y="800" type="line"/>
    </contour>
    <contour>
      <point x="146" y="397" type="line"/>
      <point x="146" y="777" type="line"/>
      <point x="123" y="800" type="line"/>
      <point x="122" y="800" type="line"/>
      <point x="122" y="397" type="line"/>
    </contour>
    <contour>
      <point x="145" y="373" type="line"/>
      <point x="186" y="373" type="line"/>
      <point x="186" y="397" type="line"/>
      <point x="122" y="397" type="line"/>
      <point x="122" y="396" type="line"/>
    </contour>
    <contour>
      <point x="186" y="0" type="line"/>
      <point x="187" y="0" type="line"/>
      <point x="210" y="23" type="line"/>
      <point x="210" y="374" type="line"/>
      <point x="187" y="397" type="line"/>
      <point x="186" y="397" type="line"/>
    </contour>
  </outline>
</glyph>
<glyph name="aacute.color0" format="2">
  <advance width="600"/>
  <unicode hex="00E1"/>
  <outline>
    <contour>
      <point x="74" y="476" type="line"/>
      <point x="147" y="476" type="line"/>
      <point x="147" y="477" type="line"/>
      <point x="124" y="500" type="line"/>
      <point x="74" y="500" type="line"/>
    </contour>
  </outline>
</glyph>
<glyph name="acircumflex.color5" format="2">
  <advance width="600"/>
  <unicode hex="00E2"/>
  <outline>
    <contour>
      <point x="46" y="590" type="line"/>
      <point x="70" y="590" type="line"/>
      <point x="115" y="680" type="line"/>
      <point x="92" y="680" type="line"/>
      <point x="46" y="591" type="line"/>
    </contour>
  </outline>
</glyph>
<glyph name="acircumflex" format="2">
  <advance width="197"/>
  <unicode hex="00E2"/>
  <anchor x="102" y="0" name="bottom"/>
  <anchor x="109" y="602" name="top"/>
  <outline>
    <contour>
      <point x="74" y="476" type="line"/>
      <point x="147" y="476" type="line"/>
      <point x="147" y="477" type="line"/>
      <point x="124" y="500" type="line"/>
      <point x="74" y="500" type="line"/>
    </contour>
    <contour>
      <point x="73" y="0" type="line"/>
      <point x="123" y="0" type="line"/>
      <point x="123" y="24" type="line"/>
      <point x="50" y="24" type="line"/>
      <point x="50" y="23" type="line"/>
    </contour>
    <contour>
      <point x="50" y="24" type="line"/>
      <point x="74" y="24" type="line"/>
      <point x="74" y="500" type="line"/>
      <point x="73" y="500" type="line"/>
      <point x="50" y="477" type="line"/>
    </contour>
    <contour>
      <point x="123" y="0" type="line"/>
      <point x="147" y="0" type="line"/>
      <point x="147" y="476" type="line"/>
      <point x="123" y="476" type="line"/>
    </contour>
    <contour>
      <point x="136" y="590" type="line"/>
      <point x="160" y="590" type="line"/>
      <point x="160" y="591" type="line"/>
      <point x="116" y="680" type="line"/>
      <point x="92" y="680" type="line"/>
    </contour>
    <contour>
      <point x="46" y="590" type="line"/>
      <point x="70" y="590" type="line"/>
      <point x="115" y="680" type="line"/>
      <point x="92" y="680" type="line"/>
      <point x="46" y="591" type="line"/>
    </contour>
  </outline>
</glyph>
<glyph name="adieresis.color4" format="2">
  <advance width="600"/>
  <unicode hex="00E4"/>
  <outline>
    <contour>
      <point x="114" y="601" type="line"/>
      <point x="145" y="601" type="line"/>
      <point x="145" y="635" type="line"/>
      <point x="114" y="635" type="line"/>
    </contour>
  </outline>
</glyph>
<glyph name="adieresis.color5" format="2">
  <advance width="600"/>
  <unicode hex="00E4"/>
  <outline>
    <contour>
      <point x="59" y="601" type="line"/>
      <point x="90" y="601" type="line"/>
      <point x="90" y="635" type="line"/>
      <point x="59" y="635" type="line"/>
    </contour>
  </outline>
</glyph>
<glyph name="aring.color5" format="2">
  <advance width="600"/>
  <unicode hex="00E5"/>
  <outline>
    <contour>
      <point x="81" y="572" type="line"/>
      <point x="121" y="572" type="line"/>
      <point x="121" y="591" type="line"/>
      <point x="63" y="591" type="line"/>
      <point x="63" y="590" type="line"/>
    </contour>
  </outline>
</glyph>
<glyph name="ae.color4" format="2">
  <advance width="600"/>
  <unicode hex="00E6"/>
  <outline>
    <contour>
      <point x="74" y="476" type="line"/>
      <point x="147" y="476" type="line"/>
      <point x="147" y="477" type="line"/>
      <point x="124" y="500" type="line"/>
      <point x="74" y="500" type="line"/>
    </contour>
  </outline>
</glyph>
<glyph name="ae.color7" format="2">
  <advance width="600"/>
  <unicode hex="00E6"/>
  <outline>
    <contour>
      <point x="197" y="202" type="line"/>
      <point x="198" y="202" type="line"/>
      <point x="221" y="225" type="line"/>
      <point x="221" y="476" type="line"/>
      <point x="197" y="476" type="line"/>
    </contour>
  </outline>
</glyph>
<glyph name="ccedilla.color4" format="2">
  <advance width="600"/>
  <unicode hex="00E7"/>
  <outline>
    <contour>
      <point x="77" y="-44" type="line"/>
      <point x="98" y="-44" type="line"/>
      <point x="113" y="-1" type="line"/>
      <point x="113" y="0" type="line"/>
      <point x="89" y="0" type="line"/>
      <point x="77" y="-43" type="line"/>
    </contour>
  </outline>
</glyph>
<glyph name="icircumflex.color0" format="2">
  <advance width="600"/>
  <unicode hex="00EE"/>
  <outline>
    <contour>
      <point x="53" y="0" type="line"/>
      <point x="77" y="0" type="line"/>
      <point x="77" y="503" type="line"/>
      <point x="76" y="503" type="line"/>
      <point x="53" y="480" type="line"/>
    </contour>
  </outline>
</glyph>
<glyph name="icircumflex" format="2">
  <advance width="130"/>
  <unicode hex="00EE"/>
  <anchor x="65" y="0" name="bottom"/>
  <anchor x="70" y="602" name="top"/>
  <outline>
    <contour>
      <point x="53" y="0" type="line"/>
      <point x="77" y="0" type="line"/>
      <point x="77" y="503" type="line"/>
      <point x="76" y="503" type="line"/>
      <point x="53" y="480" type="line"/>
    </contour>
    <contour>
      <point x="97" y="590" type="line"/>
      <point x="121" y="590" type="line"/>
      <point x="121" y="591" type="line"/>
      <point x="77" y="680" type="line"/>
      <point x="53" y="680" type="line"/>
    </contour>
    <contour>
      <point x="7" y="590" type="line"/>
      <point x="31" y="590" type="line"/>
      <point x="76" y="680" type="line"/>
      <point x="53" y="680" type="line"/>
      <point x="7" y="591" type="line"/>
    </contour>
  </outline>
</glyph>
<glyph name="idieresis.color0" format="2">
  <advance width="600"/>
  <unicode hex="00EF"/>
  <outline>
    <contour>
      <point x="75" y="601" type="line"/>
      <point x="106" y="601" type="line"/>
      <point x="106" y="635" type="line"/>
      <point x="75" y="635" type="line"/>
    </contour>
  </outline>
</glyph>
<glyph name="eth.color0" format="2">
  <advance width="600"/>
  <unicode hex="00F0"/>
  <outline>
    <contour>
      <point x="65" y="594" type="line"/>
      <point x="172" y="623" type="line"/>
      <point x="172" y="624" type="line"/>
      <point x="166" y="646" type="line"/>
      <point x="59" y="617" type="line"/>
      <point x="59" y="616" type="line"/>
    </contour>
  </outline>
</glyph>
<glyph name="eth.color3" format="2">
  <advance width="600"/>
  <unicode hex="00F0"/>
  <outline>
    <contour>
      <point x="53" y="24" type="line"/>
      <point x="77" y="24" type="line"/>
      <point x="77" y="500" type="line"/>
      <point x="76" y="500" type="line"/>
      <point x="53" y="477" type="line"/>
    </contour>
  </outline>
</glyph>
<glyph name="eth.color4" format="2">
  <advance width="600"/>
  <unicode hex="00F0"/>
  <outline>
    <contour>
      <point x="126" y="0" type="line"/>
      <point x="127" y="0" type="line"/>
      <point x="150" y="23" type="line"/>
      <point x="150" y="476" type="line"/>
      <point x="126" y="476" type="line"/>
    </contour>
  </outline>
</glyph>
<glyph name="eth" format="2">
  <advance width="203"/>
  <unicode hex="00F0"/>
  <anchor x="103" y="500" name="top"/>
  <outline>
    <contour>
      <point x="65" y="594" type="line"/>
      <point x="172" y="623" type="line"/>
      <point x="172" y="624" type="line"/>
      <point x="166" y="646" type="line"/>
      <point x="59" y="617" type="line"/>
      <point x="59" y="616" type="line"/>
    </contour>
    <contour>
      <point x="149" y="477" type="line"/>
      <point x="150" y="477" type="line"/>
      <point x="100" y="730" type="line"/>
      <point x="76" y="730" type="line"/>
      <point x="76" y="729" type="line"/>
      <point x="126" y="500" type="line"/>
    </contour>
    <contour>
      <point x="76" y="0" type="line"/>
      <point x="126" y="0" type="line"/>
      <point x="126" y="24" type="line"/>
      <point x="53" y="24" type="line"/>
      <point x="53" y="23" type="line"/>
    </contour>
    <contour>
      <point x="53" y="24" type="line"/>
      <point x="77" y="24" type="line"/>
      <point x="77" y="500" type="line"/>
      <point x="76" y="500" type="line"/>
      <point x="53" y="477" type="line"/>
    </contour>
    <contour>
      <point x="126" y="0" type="line"/>
      <point x="127" y="0" type="line"/>
      <point x="150" y="23" type="line"/>
      <point x="150" y="476" type="line"/>
      <point x="126" y="476" type="line"/>
    </contour>
    <contour>
      <point x="77" y="476" type="line"/>
      <point x="150" y="476" type="line"/>
      <point x="150" y="477" type="line"/>
      <point x="127" y="500" type="line"/>
      <point x="77" y="500" type="line"/>
    </contour>
  </outline>
</glyph>
<glyph name="ocircumflex.color1" format="2">
  <advance width="600"/>
  <unicode hex="00F4"/>
  <outline>
    <contour>
      <point x="73" y="0" type="line"/>
      <point x="124" y="0" type="line"/>
      <point x="124" y="24" type="line"/>
      <point x="50" y="24" type="line"/>
      <point x="50" y="23" type="line"/>
    </contour>
  </outline>
</glyph>
<glyph name="otilde.color6" format="2">
  <advance width="600"/>
  <unicode hex="00F5"/>
  <outline>
    <contour>
      <point x="128" y="580" type="line"/>
      <point x="129" y="580" type="line"/>
      <point x="149" y="589" type="line"/>
      <point x="149" y="590" type="line"/>
      <point x="70" y="642" type="line"/>
      <point x="69" y="642" type="line"/>
      <point x="49" y="633" type="line"/>
      <point x="49" y="632" type="line"/>
    </contour>
  </outline>
</glyph>
<glyph name="Amacron.color4" format="2">
  <advance width="600"/>
  <unicode hex="0100"/>
  <outline>
    <contour>
      <point x="63" y="801" type="line"/>
      <point x="213" y="801" type="line"/>
      <point x="213" y="825" type="line"/>
      <point x="63" y="825" type="line"/>
    </contour>
  </outline>
</glyph>
<glyph name="abreve.color4" format="2">
  <advance width="600"/>
  <unicode hex="0103"/>
  <outline>
    <contour>
      <point x="114" y="622" type="line"/>
      <point x="140" y="622" type="line"/>
      <point x="169" y="671" type="line"/>
      <point x="169" y="672" type="line"/>
      <point x="143" y="672" type="line"/>
    </contour>
  </outline>
</glyph>
<glyph name="Aogonek.color4" format="2">
  <advance width="600"/>
  <unicode hex="0104"/>
  <outline>
    <contour>
      <point x="175" y="-34" type="line"/>
      <point x="196" y="-34" type="line"/>
      <point x="220" y="-1" type="line"/>
      <point x="220" y="0" type="line"/>
      <point x="196" y="0" type="line"/>
      <point x="175" y="-33" type="line"/>
    </contour>
  </outline>
</glyph>
<glyph name="aogonek.color5" format="2">
  <advance width="600"/>
  <unicode hex="0105"/>
  <outline>
    <contour>
      <point x="89" y="-79" type="line"/>
      <point x="90" y="-79" type="line"/>
      <point x="90" y="-34" type="line"/>
      <point x="69" y="-34" type="line"/>
      <point x="69" y="-61" type="line"/>
    </contour>
  </outline>
</glyph>
<glyph name="Ccaron.color4" format="2">
  <advance width="600"/>
  <unicode hex="010C"/>
  <outline>
    <contour>
      <point x="126" y="750" type="line"/>
      <point x="149" y="750" type="line"/>
      <point x="195" y="839" type="line"/>
      <point x="195" y="840" type="line"/>
      <point x="171" y="840" type="line"/>
    </contour>
  </outline>
</glyph>
<glyph name="ccaron.color4" format="2">
  <advance width="600"/>
  <unicode hex="010D"/>
  <outline>
    <contour>
      <point x="89" y="590" type="line"/>
      <point x="112" y="590" type="line"/>
      <point x="158" y="679" type="line"/>
      <point x="158" y="680" type="line"/>
      <point x="134" y="680" type="line"/>
    </contour>
  </outline>
</glyph>
<glyph name="Dcaron.color2" format="2">
  <advance width="600"/>
  <unicode hex="010E"/>
  <outline>
    <contour>
      <point x="53" y="24" type="line"/>
      <point x="77" y="24" type="line"/>
      <point x="77" y="700" type="line"/>
      <point x="53" y="700" type="line"/>
    </contour>
  </outline>
</glyph>
<glyph name="Dcaron.color5" format="2">
  <advance width="600"/>
  <unicode hex="010E"/>
  <outline>
    <contour>
      <point x="126" y="750" type="line"/>
      <point x="149" y="750" type="line"/>
      <point x="195" y="839" type="line"/>
      <point x="195" y="840" type="line"/>
      <point x="171" y="840" type="line"/>
    </contour>
  </outline>
</glyph>
<glyph name="Dcaron" format="2">
  <advance width="275"/>
  <unicode hex="010E"/>
  <anchor x="65" y="365" name="stroke"/>
  <anchor x="138" y="700" name="top"/>
  <outline>
    <contour>
      <point x="77" y="676" type="line"/>
      <point x="222" y="676" type="line"/>
      <point x="222" y="677" type="line"/>
      <point x="199" y="700" type="line"/>
      <point x="77" y="700" type="line"/>
    </contour>
    <contour>
      <point x="53" y="0" type="line"/>
      <point x="198" y="0" type="line"/>
      <point x="198" y="24" type="line"/>
      <point x="53" y="24" type="line"/>
    </contour>
    <contour>
      <point x="53" y="24" type="line"/>
      <point x="77" y="24" type="line"/>
      <point x="77" y="700" type="line"/>
      <point x="53" y="700" type="line"/>
    </contour>
    <contour>
      <point x="198" y="0" type="line"/>
      <point x="199" y="0" type="line"/>
      <point x="222" y="23" type="line"/>
      <point x="222" y="676" type="line"/>
      <point x="198" y="676" type="line"/>
    </contour>
    <contour>
      <point x="125" y="750" type="line"/>
      <point x="149" y="750" type="line"/>
      <point x="105" y="840" type="line"/>
      <point x="81" y="840" type="line"/>
      <point x="81" y="839" type="line"/>
    </contour>
    <contour>
      <point x="126" y="750" type="line"/>
      <point x="149" y="750" type="line"/>
      <point x="195" y="839" type="line"/>
      <point x="195" y="840" type="line"/>
      <point x="171" y="840" type="line"/>
    </contour>
  </outline>
</glyph>
<glyph name="dcroat" format="2">
  <advance width="197"/>
  <unicode hex="0111"/>
  <anchor x="103" y="578" name="stroke"/>
  <anchor x="147" y="730" name="top"/>
  <outline>
    <contour>
      <point x="23" y="576" type="line"/>
      <point x="174" y="576" type="line"/>
      <point x="174" y="600" type="line"/>
      <point x="23" y="600" type="line"/>
    </contour>
    <contour>
      <point x="146" y="477" type="line"/>
      <point x="147" y="477" type="line"/>
      <point x="147" y="730" type="line"/>
      <point x="123" y="730" type="line"/>
      <point x="123" y="500" type="line"/>
    </contour>
    <contour>
      <point x="74" y="476" type="line"/>
      <point x="147" y="476" type="line"/>
      <point x="147" y="477" type="line"/>
      <point x="124" y="500" type="line"/>
      <point x="74" y="500" type="line"/>
    </contour>
    <contour>
      <point x="73" y="0" type="line"/>
      <point x="123" y="0" type="line"/>
      <point x="123" y="24" type="line"/>
      <point x="50" y="24" type="line"/>
      <point x="50" y="23" type="line"/>
    </contour>
    <contour>
      <point x="50" y="24" type="line"/>
      <point x="74" y="24" type="line"/>
      <point x="74" y="500" type="line"/>
      <point x="73" y="500" type="line"/>
      <point x="50" y="477" type="line"/>
    </contour>
    <contour>
      <point x="123" y="0" type="line"/>
      <point x="124" y="0" type="line"/>
      <point x="147" y="23" type="line"/>
      <point x="147" y="476" type="line"/>
      <point x="123" y="476" type="line"/>
    </contour>
  </outline>
</glyph>
<glyph name="eogonek.color6" format="2">
  <advance width="600"/>
  <unicode hex="0119"/>
  <outline>
    <contour>
      <point x="88" y="-79" type="line"/>
      <point x="89" y="-79" type="line"/>
      <point x="89" y="-34" type="line"/>
      <point x="68" y="-34" type="line"/>
      <point x="68" y="-61" type="line"/>
    </contour>
  </outline>
</glyph>
<glyph name="ecaron.color5" format="2">
  <advance width="600"/>
  <unicode hex="011B"/>
  <outline>
    <contour>
      <point x="88" y="590" type="line"/>
      <point x="112" y="590" type="line"/>
      <point x="68" y="680" type="line"/>
      <point x="44" y="680" type="line"/>
      <point x="44" y="679" type="line"/>
    </contour>
  </outline>
</glyph>
<glyph name="Gcircumflex.color6" format="2">
  <advance width="600"/>
  <unicode hex="011C"/>
  <outline>
    <contour>
      <point x="78" y="760" type="line"/>
      <point x="102" y="760" type="line"/>
      <point x="147" y="850" type="line"/>
      <point x="124" y="850" type="line"/>
      <point x="78" y="761" type="line"/>
    </contour>
  </outline>
</glyph>
<glyph name="gcircumflex.color5" format="2">
  <advance width="600"/>
  <unicode hex="011D"/>
  <outline>
    <contour>
      <point x="144" y="590" type="line"/>
      <point x="168" y="590" type="line"/>
      <point x="168" y="591" type="line"/>
      <point x="124" y="680" type="line"/>
      <point x="100" y="680" type="line"/>
    </contour>
  </outline>
</glyph>
<glyph name="gcircumflex" format="2">
  <advance width="197"/>
  <unicode hex="011D"/>
  <anchor x="117" y="602" name="top"/>
  <outline>
    <contour>
      <point x="74" y="476" type="line"/>
      <point x="164" y="476" type="line"/>
      <point x="187" y="499" type="line"/>
      <point x="187" y="500" type="line"/>
      <point x="74" y="500" type="line"/>
    </contour>
    <contour>
      <point x="50" y="-200" type="line"/>
      <point x="123" y="-200" type="line"/>
      <point x="123" y="-176" type="line"/>
      <point x="50" y="-176" type="line"/>
      <point x="50" y="-177" type="line"/>
    </contour>
    <contour>
      <point x="73" y="0" type="line"/>
      <point x="123" y="0" type="line"/>
      <point x="123" y="24" type="line"/>
      <point x="50" y="24" type="line"/>
      <point x="50" y="23" type="line"/>
    </contour>
    <contour>
      <point x="50" y="24" type="line"/>
      <point x="74" y="24" type="line"/>
      <point x="74" y="500" type="line"/>
      <point x="73" y="500" type="line"/>
      <point x="50" y="477" type="line"/>
    </contour>
    <contour>
      <point x="123" y="-200" type="line"/>
      <point x="124" y="-200" type="line"/>
      <point x="146" y="-177" type="line"/>
      <point x="147" y="476" type="line"/>
      <point x="123" y="476" type="line"/>
    </contour>
    <contour>
      <point x="144" y="590" type="line"/>
      <point x="168" y="590" type="line"/>
      <point x="168" y="591" type="line"/>
      <point x="124" y="680" type="line"/>
      <point x="100" y="680" type="line"/>
    </contour>
    <contour>
      <point x="54" y="590" type="line"/>
      <point x="78" y="590" type="line"/>
      <point x="123" y="680" type="line"/>
      <point x="100" y="680" type="line"/>
      <point x="54" y="591" type="line"/>
    </contour>
  </outline>
</glyph>
<glyph name="Gbreve.color6" format="2">
  <advance width="600"/>
  <unicode hex="011E"/>
  <outline>
    <contour>
      <point x="91" y="803" type="line"/>
      <point x="123" y="803" type="line"/>
      <point x="92" y="840" type="line"/>
      <point x="60" y="840" type="line"/>
      <point x="60" y="839" type="line"/>
    </contour>
  </outline>
</glyph>
<glyph name="gdotaccent.color1" format="2">
  <advance width="600"/>
  <unicode hex="0121"/>
  <outline>
    <contour>
      <point x="50" y="-200" type="line"/>
      <point x="123" y="-200" type="line"/>
      <point x="123" y="-176" type="line"/>
      <point x="50" y="-176" type="line"/>
      <point x="50" y="-177" type="line"/>
    </contour>
  </outline>
</glyph>
<glyph name="gcommaaccent.color0" format="2">
  <advance width="600"/>
  <unicode hex="0123"/>
  <outline>
    <contour>
      <point x="74" y="476" type="line"/>
      <point x="164" y="476" type="line"/>
      <point x="187" y="499" type="line"/>
      <point x="187" y="500" type="line"/>
      <point x="74" y="500" type="line"/>
    </contour>
  </outline>
</glyph>
<glyph name="gcommaaccent" format="2">
  <advance width="197"/>
  <unicode hex="0123"/>
  <anchor x="110" y="500" name="top"/>
  <outline>
    <contour>
      <point x="74" y="476" type="line"/>
      <point x="164" y="476" type="line"/>
      <point x="187" y="499" type="line"/>
      <point x="187" y="500" type="line"/>
      <point x="74" y="500" type="line"/>
    </contour>
    <contour>
      <point x="50" y="-200" type="line"/>
      <point x="123" y="-200" type="line"/>
      <point x="123" y="-176" type="line"/>
      <point x="50" y="-176" type="line"/>
      <point x="50" y="-177" type="line"/>
    </contour>
    <contour>
      <point x="73" y="0" type="line"/>
      <point x="123" y="0" type="line"/>
      <point x="123" y="24" type="line"/>
      <point x="50" y="24" type="line"/>
      <point x="50" y="23" type="line"/>
    </contour>
    <contour>
      <point x="50" y="24" type="line"/>
      <point x="74" y="24" type="line"/>
      <point x="74" y="500" type="line"/>
      <point x="73" y="500" type="line"/>
      <point x="50" y="477" type="line"/>
    </contour>
    <contour>
      <point x="123" y="-200" type="line"/>
      <point x="124" y="-200" type="line"/>
      <point x="146" y="-177" type="line"/>
      <point x="147" y="476" type="line"/>
      <point x="123" y="476" type="line"/>
    </contour>
    <contour>
      <point x="98" y="580" type="line"/>
      <point x="122" y="580" type="line"/>
      <point x="122" y="671" type="line"/>
      <point x="121" y="671" type="line"/>
      <point x="98" y="648" type="line"/>
    </contour>
  </outline>
</glyph>
<glyph name="Hcircumflex.color1" format="2">
  <advance width="600"/>
  <unicode hex="0124"/>
  <outline>
    <contour>
      <point x="53" y="0" type="line"/>
      <point x="77" y="0" type="line"/>
      <point x="77" y="700" type="line"/>
      <point x="53" y="700" type="line"/>
    </contour>
  </outline>
</glyph>
<glyph name="Hcircumflex.color3" format="2">
  <advance width="600"/>
  <unicode hex="0124"/>
  <outline>
    <contour>
      <point x="176" y="760" type="line"/>
      <point x="200" y="760" type="line"/>
      <point x="200" y="761" type="line"/>
      <point x="156" y="850" type="line"/>
      <point x="132" y="850" type="line"/>
    </contour>
  </outline>
</glyph>
<glyph name="Hbar.color0" format="2">
  <advance width="600"/>
  <unicode hex="0126"/>
  <outline>
    <contour>
      <point x="10" y="483" type="line"/>
      <point x="283" y="483" type="line"/>
      <point x="283" y="507" type="line"/>
      <point x="10" y="507" type="line"/>
    </contour>
  </outline>
</glyph>
<glyph name="Hbar" format="2">
  <advance width="293"/>
  <unicode hex="0126"/>
  <anchor x="146" y="700" name="top"/>
  <outline>
    <contour>
      <point x="10" y="483" type="line"/>
      <point x="283" y="483" type="line"/>
      <point x="283" y="507" type="line"/>
      <point x="10" y="507" type="line"/>
    </contour>
    <contour>
      <point x="216" y="0" type="line"/>
      <point x="240" y="0" type="line"/>
      <point x="240" y="700" type="line"/>
      <point x="216" y="700" type="line"/>
    </contour>
    <contour>
      <point x="53" y="0" type="line"/>
      <point x="77" y="0" type="line"/>
      <point x="77" y="700" type="line"/>
      <point x="53" y="700" type="line"/>
    </contour>
    <contour>
      <point x="77" y="353" type="line"/>
      <point x="216" y="353" type="line"/>
      <point x="216" y="377" type="line"/>
      <point x="77" y="377" type="line"/>
    </contour>
  </outline>
</glyph>
<glyph name="hbar.color0" format="2">
  <advance width="600"/>
  <unicode hex="0127"/>
  <outline>
    <contour>
      <point x="11" y="561" type="line"/>
      <point x="172" y="561" type="line"/>
      <point x="172" y="585" type="line"/>
      <point x="11" y="585" type="line"/>
    </contour>
  </outline>
</glyph>
<glyph name="hbar.color1" format="2">
  <advance width="600"/>
  <unicode hex="0127"/>
  <outline>
    <contour>
      <point x="50" y="0" type="line"/>
      <point x="74" y="0" type="line"/>
      <point x="74" y="730" type="line"/>
      <point x="50" y="730" type="line"/>
    </contour>
  </outline>
</glyph>
<glyph name="Imacron.color4" format="2">
  <advance width="600"/>
  <unicode hex="012A"/>
  <outline>
    <contour>
      <point x="125" y="676" type="line"/>
      <point x="205" y="676" type="line"/>
      <point x="205" y="700" type="line"/>
      <point x="125" y="700" type="line"/>
    </contour>
  </outline>
</glyph>
<glyph name="Ibreve.color2" format="2">
  <advance width="600"/>
  <unicode hex="012C"/>
  <outline>
    <contour>
      <point x="102" y="0" type="line"/>
      <point x="206" y="0" type="line"/>
      <point x="206" y="24" type="line"/>
      <point x="125" y="24" type="line"/>
    </contour>
  </outline>
</glyph>
<glyph name="Ibreve.color5" format="2">
  <advance width="600"/>
  <unicode hex="012C"/>
  <outline>
    <contour>
      <point x="87" y="781" type="line"/>
      <point x="143" y="781" type="line"/>
      <point x="162" y="803" type="line"/>
      <point x="68" y="803" type="line"/>
    </contour>
  </outline>
</glyph>
<glyph name="Ibreve.color6" format="2">
  <advance width="600"/>
  <unicode hex="012C"/>
  <outline>
    <contour>
      <point x="68" y="803" type="line"/>
      <point x="100" y="803" type="line"/>
      <point x="69" y="840" type="line"/>
      <point x="37" y="840" type="line"/>
      <point x="37" y="839" type="line"/>
    </contour>
  </outline>
</glyph>
<glyph name="ibreve.color3" format="2">
  <advance width="600"/>
  <unicode hex="012D"/>
  <outline>
    <contour>
      <point x="81" y="612" type="line"/>
      <point x="104" y="612" type="line"/>
      <point x="126" y="661" type="line"/>
      <point x="126" y="662" type="line"/>
      <point x="100" y="662" type="line"/>
    </contour>
  </outline>
</glyph>
<glyph name="Iogonek.color5" format="2">
  <advance width="600"/>
  <unicode hex="012E"/>
  <outline>
    <contour>
      <point x="79" y="-34" type="line"/>
      <point x="100" y="-34" type="line"/>
      <point x="124" y="-1" type="line"/>
      <point x="124" y="0" type="line"/>
      <point x="100" y="0" type="line"/>
      <point x="79" y="-33" type="line"/>
    </contour>
  </outline>
</glyph>
<glyph name="Idotaccent" format="2">
  <advance width="226"/>
  <unicode hex="0130"/>
  <anchor x="112" y="0" name="bottom"/>
  <anchor x="115" y="800" name="top"/>
  <outline>
    <contour>
      <point x="101" y="0" type="line"/>
      <point x="102" y="0" type="line"/>
      <point x="125" y="24" type="line"/>
      <point x="125" y="700" type="line"/>
      <point x="124" y="700" type="line"/>
      <point x="101" y="676" type="line"/>
    </contour>
    <contour>
      <point x="21" y="0" type="line"/>
      <point x="101" y="0" type="line"/>
      <point x="101" y="24" type="line"/>
      <point x="21" y="24" type="line"/>
    </contour>
    <contour>
      <point x="102" y="0" type="line"/>
      <point x="206" y="0" type="line"/>
      <point x="206" y="24" type="line"/>
      <point x="125" y="24" type="line"/>
    </contour>
    <contour>
      <point x="20" y="676" type="line"/>
      <point x="101" y="676" type="line"/>
      <point x="124" y="700" type="line"/>
      <point x="20" y="700" type="line"/>
    </contour>
    <contour>
      <point x="125" y="676" type="line"/>
      <point x="205" y="676" type="line"/>
      <point x="205" y="700" type="line"/>
      <point x="125" y="700" type="line"/>
    </contour>
    <contour>
      <point x="100" y="811" type="line"/>
      <point x="130" y="811" type="line"/>
      <point x="130" y="845" type="line"/>
      <point x="100" y="845" type="line"/>
    </contour>
  </outline>
</glyph>
<glyph name="jcircumflex.color1" format="2">
  <advance width="600"/>
  <unicode hex="0135"/>
  <outline>
    <contour>
      <point x="-12" y="-200" type="line"/>
      <point x="50" y="-200" type="line"/>
      <point x="50" y="-176" type="line"/>
      <point x="-12" y="-176" type="line"/>
    </contour>
  </outline>
</glyph>
<glyph name="kcommaaccent.color0" format="2">
  <advance width="600"/>
  <unicode hex="0137"/>
  <outline>
    <contour>
      <point x="50" y="0" type="line"/>
      <point x="74" y="0" type="line"/>
      <point x="74" y="730" type="line"/>
      <point x="50" y="730" type="line"/>
    </contour>
  </outline>
</glyph>
<glyph name="kgreenlandic.color1" format="2">
  <advance width="600"/>
  <unicode hex="0138"/>
  <outline>
    <contour>
      <point x="53" y="0" type="line"/>
      <point x="77" y="0" type="line"/>
      <point x="77" y="598" type="line"/>
      <point x="53" y="598" type="line"/>
    </contour>
  </outline>
</glyph>
<glyph name="lacute.color2" format="2">
  <advance width="600"/>
  <unicode hex="013A"/>
  <outline>
    <contour>
      <point x="56" y="765" type="line"/>
      <point x="80" y="765" type="line"/>
      <point x="107" y="884" type="line"/>
      <point x="107" y="885" type="line"/>
      <point x="76" y="885" type="line"/>
    </contour>
  </outline>
</glyph>
<glyph name="Lcommaaccent.color2" format="2">
  <advance width="600"/>
  <unicode hex="013B"/>
  <outline>
    <contour>
      <point x="162" y="-141" type="line"/>
      <point x="163" y="-141" type="line"/>
      <point x="163" y="-50" type="line"/>
      <point x="139" y="-50" type="line"/>
      <point x="139" y="-118" type="line"/>
    </contour>
  </outline>
</glyph>
<glyph name="Lcommaaccent" format="2">
  <advance width="256"/>
  <unicode hex="013B"/>
  <anchor x="152" y="0" name="bottom"/>
  <anchor x="73" y="700" name="top"/>
  <outline>
    <contour>
      <point x="76" y="0" type="line"/>
      <point x="256" y="0" type="line"/>
      <point x="256" y="24" type="line"/>
      <point x="53" y="24" type="line"/>
      <point x="53" y="23" type="line"/>
    </contour>
    <contour>
      <point x="53" y="24" type="line"/>
      <point x="77" y="24" type="line"/>
      <point x="77" y="700" type="line"/>
      <point x="53" y="700" type="line"/>
    </contour>
    <contour>
      <point x="162" y="-141" type="line"/>
      <point x="163" y="-141" type="line"/>
      <point x="163" y="-50" type="line"/>
      <point x="139" y="-50" type="line"/>
      <point x="139" y="-118" type="line"/>
    </contour>
  </outline>
</glyph>
<glyph name="Lcaron" format="2">
  <advance width="256"/>
  <unicode hex="013D"/>
  <anchor x="152" y="0" name="bottom"/>
  <anchor x="73" y="700" name="top"/>
  <outline>
    <contour>
      <point x="76" y="0" type="line"/>
      <point x="256" y="0" type="line"/>
      <point x="256" y="24" type="line"/>
      <point x="53" y="24" type="line"/>
      <point x="53" y="23" type="line"/>
    </contour>
    <contour>
      <point x="53" y="24" type="line"/>
      <point x="77" y="24" type="line"/>
      <point x="77" y="700" type="line"/>
      <point x="53" y="700" type="line"/>
    </contour>
    <contour>
      <point x="125" y="570" type="line"/>
      <point x="146" y="570" type="line"/>
      <point x="151" y="699" type="line"/>
      <point x="151" y="700" type="line"/>
      <point x="123" y="700" type="line"/>
    </contour>
  </outline>
</glyph>
<glyph name="lcaron.color2" format="2">
  <advance width="600"/>
  <unicode hex="013E"/>
  <outline>
    <contour>
      <point x="106" y="601" type="line"/>
      <point x="127" y="601" type="line"/>
      <point x="132" y="731" type="line"/>
      <point x="104" y="731" type="line"/>
      <point x="104" y="730" type="line"/>
    </contour>
  </outline>
</glyph>
<glyph name="Lslash.color2" format="2">
  <advance width="600"/>
  <unicode hex="0141"/>
  <outline>
    <contour>
      <point x="83" y="24" type="line"/>
      <point x="107" y="24" type="line"/>
      <point x="107" y="700" type="line"/>
      <point x="83" y="700" type="line"/>
    </contour>
  </outline>
</glyph>
<glyph name="lslash.color0" format="2">
  <advance width="600"/>
  <unicode hex="0142"/>
  <outline>
    <contour>
      <point x="69" y="294" type="line"/>
      <point x="176" y="423" type="line"/>
      <point x="176" y="424" type="line"/>
      <point x="160" y="441" type="line"/>
      <point x="53" y="312" type="line"/>
      <point x="53" y="311" type="line"/>
    </contour>
  </outline>
</glyph>
<glyph name="lslash.color1" format="2">
  <advance width="600"/>
  <unicode hex="0142"/>
  <outline>
    <contour>
      <point x="117" y="0" type="line"/>
      <point x="118" y="0" type="line"/>
      <point x="118" y="730" type="line"/>
      <point x="94" y="730" type="line"/>
      <point x="94" y="23" type="line"/>
    </contour>
  </outline>
</glyph>
<glyph name="lslash.color2" format="2">
  <advance width="600"/>
  <unicode hex="0142"/>
  <outline>
    <contour>
      <point x="118" y="0" type="line"/>
      <point x="180" y="0" type="line"/>
      <point x="180" y="24" type="line"/>
      <point x="118" y="24" type="line"/>
    </contour>
  </outline>
</glyph>
<glyph name="lslash" format="2">
  <advance width="236"/>
  <unicode hex="0142"/>
  <anchor x="136" y="0" name="bottom"/>
  <anchor x="118" y="730" name="top"/>
  <outline>
    <contour>
      <point x="69" y="294" type="line"/>
      <point x="176" y="423" type="line"/>
      <point x="176" y="424" type="line"/>
      <point x="160" y="441" type="line"/>
      <point x="53" y="312" type="line"/>
      <point x="53" y="311" type="line"/>
    </contour>
    <contour>
      <point x="117" y="0" type="line"/>
      <point x="118" y="0" type="line"/>
      <point x="118" y="730" type="line"/>
      <point x="94" y="730" type="line"/>
      <point x="94" y="23" type="line"/>
    </contour>
    <contour>
      <point x="118" y="0" type="line"/>
      <point x="180" y="0" type="line"/>
      <point x="180" y="24" type="line"/>
      <point x="118" y="24" type="line"/>
    </contour>
  </outline>
</glyph>
<glyph name="nacute.color1" format="2">
  <advance width="600"/>
  <unicode hex="0144"/>
  <outline>
    <contour>
      <point x="124" y="-3" type="line"/>
      <point x="125" y="-3" type="line"/>
      <point x="148" y="20" type="line"/>
      <point x="148" y="476" type="line"/>
      <point x="124" y="476" type="line"/>
    </contour>
  </outline>
</glyph>
<glyph name="Ncommaaccent" format="2">
  <advance width="313"/>
  <unicode hex="0145"/>
  <anchor x="165" y="0" name="bottom"/>
  <anchor x="168" y="700" name="top"/>
  <outline>
    <contour>
      <point x="260" y="22" type="line"/>
      <point x="260" y="700" type="line"/>
      <point x="236" y="700" type="line"/>
      <point x="236" y="46" type="line"/>
    </contour>
    <contour>
      <point x="53" y="0" type="line"/>
      <point x="77" y="0" type="line"/>
      <point x="77" y="655" type="line"/>
      <point x="53" y="679" type="line"/>
    </contour>
    <contour>
      <point x="236" y="-3" type="line"/>
      <point x="237" y="-3" type="line"/>
      <point x="260" y="21" type="line"/>
      <point x="260" y="22" type="line"/>
      <point x="77" y="703" type="line"/>
      <point x="76" y="703" type="line"/>
      <point x="53" y="680" type="line"/>
      <point x="53" y="679" type="line"/>
    </contour>
    <contour>
      <point x="175" y="-141" type="line"/>
      <point x="176" y="-141" type="line"/>
      <point x="176" y="-50" type="line"/>
      <point x="152" y="-50" type="line"/>
      <point x="152" y="-118" type="line"/>
    </contour>
  </outline>
</glyph>
<glyph name="eng.color0" format="2">
  <advance width="600"/>
  <unicode hex="014B"/>
  <outline>
    <contour>
      <point x="126" y="-200" type="line"/>
      <point x="127" y="-200" type="line"/>
      <point x="150" y="-177" type="line"/>
      <point x="150" y="476" type="line"/>
      <point x="126" y="476" type="line"/>
    </contour>
  </outline>
</glyph>
<glyph name="eng.color1" format="2">
  <advance width="600"/>
  <unicode hex="014B"/>
  <outline>
    <contour>
      <point x="95" y="-200" type="line"/>
      <point x="126" y="-200" type="line"/>
      <point x="126" y="-176" type="line"/>
      <point x="95" y="-176" type="line"/>
    </contour>
  </outline>
</glyph>
<glyph name="eng.color3" format="2">
  <advance width="600"/>
  <unicode hex="014B"/>
  <outline>
    <contour>
      <point x="77" y="476" type="line"/>
      <point x="150" y="476" type="line"/>
      <point x="150" y="477" type="line"/>
      <point x="127" y="500" type="line"/>
      <point x="77" y="500" type="line"/>
    </contour>
  </outline>
</glyph>
<glyph name="omacron.color4" format="2">
  <advance width="600"/>
  <unicode hex="014D"/>
  <outline>
    <contour>
      <point x="44" y="611" type="line"/>
      <point x="154" y="611" type="line"/>
      <point x="154" y="635" type="line"/>
      <point x="44" y="635" type="line"/>
    </contour>
  </outline>
</glyph>
<glyph name="obreve.color6" format="2">
  <advance width="600"/>
  <unicode hex="014F"/>
  <outline>
    <contour>
      <point x="72" y="600" type="line"/>
      <point x="124" y="600" type="line"/>
      <point x="137" y="622" type="line"/>
      <point x="59" y="622" type="line"/>
    </contour>
  </outline>
</glyph>
<glyph name="Ohungarumlaut.color5" format="2">
  <advance width="600"/>
  <unicode hex="0150"/>
  <outline>
    <contour>
      <point x="97" y="770" type="line"/>
      <point x="121" y="770" type="line"/>
      <point x="153" y="859" type="line"/>
      <point x="153" y="860" type="line"/>
      <point x="122" y="860" type="line"/>
    </contour>
  </outline>
</glyph>
<glyph name="OE.color5" format="2">
  <advance width="600"/>
  <unicode hex="0152"/>
  <outline>
    <contour>
      <point x="220" y="353" type="line"/>
      <point x="339" y="353" type="line"/>
      <point x="339" y="377" type="line"/>
      <point x="220" y="377" type="line"/>
    </contour>
  </outline>
</glyph>
<glyph name="oe.color0" format="2">
  <advance width="600"/>
  <unicode hex="0153"/>
  <outline>
    <contour>
      <point x="146" y="0" type="line"/>
      <point x="197" y="0" type="line"/>
      <point x="220" y="23" type="line"/>
      <point x="220" y="24" type="line"/>
      <point x="123" y="24" type="line"/>
      <point x="123" y="23" type="line"/>
    </contour>
  </outline>
</glyph>
<glyph name="oe.color3" format="2">
  <advance width="600"/>
  <unicode hex="0153"/>
  <outline>
    <contour>
      <point x="123" y="476" type="line"/>
      <point x="220" y="476" type="line"/>
      <point x="220" y="477" type="line"/>
      <point x="197" y="500" type="line"/>
      <point x="147" y="500" type="line"/>
    </contour>
  </outline>
</glyph>
<glyph name="oe.color5" format="2">
  <advance width="600"/>
  <unicode hex="0153"/>
  <outline>
    <contour>
      <point x="123" y="0" type="line"/>
      <point x="124" y="0" type="line"/>
      <point x="147" y="24" type="line"/>
      <point x="147" y="476" type="line"/>
      <point x="123" y="476" type="line"/>
    </contour>
  </outline>
</glyph>
<glyph name="oe.color7" format="2">
  <advance width="600"/>
  <unicode hex="0153"/>
  <outline>
    <contour>
      <point x="196" y="202" type="line"/>
      <point x="197" y="202" type="line"/>
      <point x="220" y="225" type="line"/>
      <point x="220" y="476" type="line"/>
      <point x="196" y="476" type="line"/>
    </contour>
  </outline>
</glyph>
<glyph name="Racute.color3" format="2">
  <advance width="600"/>
  <unicode hex="0154"/>
  <outline>
    <contour>
      <point x="196" y="353" type="line"/>
      <point x="197" y="353" type="line"/>
      <point x="220" y="376" type="line"/>
      <point x="220" y="676" type="line"/>
      <point x="196" y="676" type="line"/>
    </contour>
  </outline>
</glyph>
<glyph name="sacute.color3" format="2">
  <advance width="600"/>
  <unicode hex="015B"/>
  <outline>
    <contour>
      <point x="79" y="570" type="line"/>
      <point x="103" y="570" type="line"/>
      <point x="135" y="699" type="line"/>
      <point x="135" y="700" type="line"/>
      <point x="104" y="700" type="line"/>
    </contour>
  </outline>
</glyph>
<glyph name="Scircumflex.color6" format="2">
  <advance width="600"/>
  <unicode hex="015C"/>
  <outline>
    <contour>
      <point x="68" y="760" type="line"/>
      <point x="92" y="760" type="line"/>
      <point x="137" y="850" type="line"/>
      <point x="114" y="850" type="line"/>
      <point x="68" y="761" type="line"/>
    </contour>
  </outline>
</glyph>
<glyph name="scircumflex.color4" format="2">
  <advance width="600"/>
  <unicode hex="015D"/>
  <outline>
    <contour>
      <point x="39" y="590" type="line"/>
      <point x="63" y="590" type="line"/>
      <point x="108" y="680" type="line"/>
      <point x="85" y="680" type="line"/>
      <point x="39" y="591" type="line"/>
    </contour>
  </outline>
</glyph>
<glyph name="scircumflex" format="2">
  <advance width="166"/>
  <unicode hex="015D"/>
  <anchor x="87" y="0" name="bottom"/>
  <anchor x="102" y="602" name="top"/>
  <outline>
    <contour>
      <point x="61" y="476" type="line"/>
      <point x="131" y="476" type="line"/>
      <point x="131" y="477" type="line"/>
      <point x="108" y="500" type="line"/>
      <point x="58" y="500" type="line"/>
    </contour>
    <contour>
      <point x="108" y="24" type="line"/>
      <point x="131" y="24" type="line"/>
      <point x="131" y="25" type="line"/>
      <point x="58" y="500" type="line"/>
      <point x="35" y="467" type="line"/>
    </contour>
    <contour>
      <point x="58" y="0" type="line"/>
      <point x="108" y="0" type="line"/>
      <point x="131" y="24" type="line"/>
      <point x="35" y="24" type="line"/>
      <point x="35" y="23" type="line"/>
    </contour>
    <contour>
      <point x="129" y="590" type="line"/>
      <point x="153" y="590" type="line"/>
      <point x="153" y="591" type="line"/>
      <point x="109" y="680" type="line"/>
      <point x="85" y="680" type="line"/>
    </contour>
    <contour>
      <point x="39" y="590" type="line"/>
      <point x="63" y="590" type="line"/>
      <point x="108" y="680" type="line"/>
      <point x="85" y="680" type="line"/>
      <point x="39" y="591" type="line"/>
    </contour>
  </outline>
</glyph>
<glyph name="Scedilla.color4" format="2">
  <advance width="600"/>
  <unicode hex="015E"/>
  <outline>
    <contour>
      <point x="166" y="0" type="line"/>
      <point x="167" y="0" type="line"/>
      <point x="190" y="24" type="line"/>
      <point x="190" y="353" type="line"/>
      <point x="167" y="377" type="line"/>
      <point x="166" y="377" type="line"/>
    </contour>
  </outline>
</glyph>
<glyph name="scedilla.color5" format="2">
  <advance width="600"/>
  <unicode hex="015F"/>
  <outline>
    <contour>
      <point x="65" y="-109" type="line"/>
      <point x="97" y="-109" type="line"/>
      <point x="97" y="-90" type="line"/>
      <point x="47" y="-90" type="line"/>
      <point x="47" y="-91" type="line"/>
    </contour>
  </outline>
</glyph>
<glyph name="Scaron.color2" format="2">
  <advance width="600"/>
  <unicode hex="0160"/>
  <outline>
    <contour>
      <point x="66" y="353" type="line"/>
      <point x="166" y="353" type="line"/>
      <point x="166" y="377" type="line"/>
      <point x="43" y="377" type="line"/>
      <point x="43" y="376" type="line"/>
    </contour>
  </outline>
</glyph>
<glyph name="Scaron.color4" format="2">
  <advance width="600"/>
  <unicode hex="0160"/>
  <outline>
    <contour>
      <point x="166" y="0" type="line"/>
      <point x="167" y="0" type="line"/>
      <point x="190" y="24" type="line"/>
      <point x="190" y="353" type="line"/>
      <point x="167" y="377" type="line"/>
      <point x="166" y="377" type="line"/>
    </contour>
  </outline>
</glyph>
<glyph name="Scaron" format="2">
  <advance width="233"/>
  <unicode hex="0160"/>
  <anchor x="122" y="0" name="bottom"/>
  <anchor x="128" y="700" name="top"/>
  <outline>
    <contour>
      <point x="67" y="676" type="line"/>
      <point x="190" y="676" type="line"/>
      <point x="190" y="677" type="line"/>
      <point x="167" y="700" type="line"/>
      <point x="67" y="700" type="line"/>
    </contour>
    <contour>
      <point x="66" y="0" type="line"/>
      <point x="166" y="0" type="line"/>
      <point x="166" y="24" type="line"/>
      <point x="43" y="24" type="line"/>
      <point x="43" y="23" type="line"/>
    </contour>
    <contour>
      <point x="66" y="353" type="line"/>
      <point x="166" y="353" type="line"/>
      <point x="166" y="377" type="line"/>
      <point x="43" y="377" type="line"/>
      <point x="43" y="376" type="line"/>
    </contour>
    <contour>
      <point x="43" y="377" type="line"/>
      <point x="67" y="377" type="line"/>
      <point x="67" y="700" type="line"/>
      <point x="66" y="700" type="line"/>
      <point x="43" y="677" type="line"/>
    </contour>
    <contour>
      <point x="166" y="0" type="line"/>
      <point x="167" y="0" type="line"/>
      <point x="190" y="24" type="line"/>
      <point x="190" y="353" type="line"/>
      <point x="167" y="377" type="line"/>
      <point x="166" y="377" type="line"/>
    </contour>
    <contour>
      <point x="115" y="750" type="line"/>
      <point x="139" y="750" type="line"/>
      <point x="95" y="840" type="line"/>
      <point x="71" y="840" type="line"/>
      <point x="71" y="839" type="line"/>
    </contour>
    <contour>
      <point x="116" y="750" type="line"/>
      <point x="139" y="750" type="line"/>
      <point x="185" y="839" type="line"/>
      <point x="185" y="840" type="line"/>
      <point x="161" y="840" type="line"/>
    </contour>
  </outline>
</glyph>
<glyph name="Tcedilla.color6" format="2">
  <advance width="600"/>
  <unicode hex="0162"/>
  <outline>
    <contour>
      <point x="167" y="-109" type="line"/>
      <point x="168" y="-109" type="line"/>
      <point x="188" y="-91" type="line"/>
      <point x="188" y="-44" type="line"/>
      <point x="167" y="-44" type="line"/>
    </contour>
  </outline>
</glyph>
<glyph name="Tcedilla" format="2">
  <advance width="311"/>
  <unicode hex="0162"/>
  <anchor x="157" y="0" name="bottom"/>
  <anchor x="156" y="365" name="stroke"/>
  <anchor x="158" y="700" name="top"/>
  <outline>
    <contour>
      <point x="144" y="0" type="line"/>
      <point x="168" y="0" type="line"/>
      <point x="168" y="700" type="line"/>
      <point x="167" y="700" type="line"/>
      <point x="144" y="676" type="line"/>
    </contour>
    <contour>
      <point x="23" y="676" type="line"/>
      <point x="144" y="676" type="line"/>
      <point x="167" y="700" type="line"/>
      <point x="23" y="700" type="line"/>
    </contour>
    <contour>
      <point x="168" y="676" type="line"/>
      <point x="288" y="676" type="line"/>
      <point x="288" y="700" type="line"/>
      <point x="168" y="700" type="line"/>
    </contour>
    <contour>
      <point x="153" y="-44" type="line"/>
      <point x="188" y="-44" type="line"/>
      <point x="188" y="-43" type="line"/>
      <point x="170" y="-25" type="line"/>
      <point x="153" y="-25" type="line"/>
    </contour>
    <contour>
      <point x="132" y="-44" type="line"/>
      <point x="153" y="-44" type="line"/>
      <point x="168" y="-1" type="line"/>
      <point x="168" y="0" type="line"/>
      <point x="144" y="0" type="line"/>
      <point x="132" y="-43" type="line"/>
    </contour>
    <contour>
      <point x="135" y="-109" type="line"/>
      <point x="167" y="-109" type="line"/>
      <point x="167" y="-90" type="line"/>
      <point x="117" y="-90" type="line"/>
      <point x="117" y="-91" type="line"/>
    </contour>
    <contour>
      <point x="167" y="-109" type="line"/>
      <point x="168" y="-109" type="line"/>
      <point x="188" y="-91" type="line"/>
      <point x="188" y="-44" type="line"/>
      <point x="167" y="-44" type="line"/>
    </contour>
  </outline>
</glyph>
<glyph name="tcedilla.color0" format="2">
  <advance width="600"/>
  <unicode hex="0163"/>
  <outline>
    <contour>
      <point x="50" y="476" type="line"/>
      <point x="51" y="476" type="line"/>
      <point x="74" y="500" type="line"/>
      <point x="74" y="670" type="line"/>
      <point x="50" y="670" type="line"/>
    </contour>
  </outline>
</glyph>
<glyph name="tcedilla" format="2">
  <advance width="167"/>
  <unicode hex="0163"/>
  <anchor x="100" y="0" name="bottom"/>
  <anchor x="94" y="670" name="top"/>
  <outline>
    <contour>
      <point x="50" y="476" type="line"/>
      <point x="51" y="476" type="line"/>
      <point x="74" y="500" type="line"/>
      <point x="74" y="670" type="line"/>
      <point x="50" y="670" type="line"/>
    </contour>
    <contour>
      <point x="51" y="476" type="line"/>
      <point x="141" y="476" type="line"/>
      <point x="141" y="500" type="line"/>
      <point x="74" y="500" type="line"/>
    </contour>
    <contour>
      <point x="73" y="0" type="line"/>
      <point x="74" y="0" type="line"/>
      <point x="74" y="476" type="line"/>
      <point x="50" y="476" type="line"/>
      <point x="50" y="23" type="line"/>
    </contour>
    <contour>
      <point x="74" y="0" type="line"/>
      <point x="144" y="0" type="line"/>
      <point x="167" y="23" type="line"/>
      <point x="167" y="24" type="line"/>
      <point x="74" y="24" type="line"/>
    </contour>
    <contour>
      <point x="96" y="-44" type="line"/>
      <point x="131" y="-44" type="line"/>
      <point x="131" y="-43" type="line"/>
      <point x="113" y="-25" type="line"/>
      <point x="96" y="-25" type="line"/>
    </contour>
    <contour>
      <point x="75" y="-44" type="line"/>
      <point x="96" y="-44" type="line"/>
      <point x="111" y="-1" type="line"/>
      <point x="111" y="0" type="line"/>
      <point x="87" y="0" type="line"/>
      <point x="75" y="-43" type="line"/>
    </contour>
    <contour>
      <point x="78" y="-109" type="line"/>
      <point x="110" y="-109" type="line"/>
      <point x="110" y="-90" type="line"/>
      <point x="60" y="-90" type="line"/>
      <point x="60" y="-91" type="line"/>
    </contour>
    <contour>
      <point x="110" y="-109" type="line"/>
      <point x="111" y="-109" type="line"/>
      <point x="131" y="-91" type="line"/>
      <point x="131" y="-44" type="line"/>
      <point x="110" y="-44" type="line"/>
    </contour>
  </outline>
</glyph>
<glyph name="Tcaron.color1" format="2">
  <advance width="600"/>
  <unicode hex="0164"/>
  <outline>
    <contour>
      <point x="23" y="676" type="line"/>
      <point x="144" y="676" type="line"/>
      <point x="167" y="700" type="line"/>
      <point x="23" y="700" type="line"/>
    </contour>
  </outline>
</glyph>
<glyph name="Tcaron.color3" format="2">
  <advance width="600"/>
  <unicode hex="0164"/>
  <outline>
    <contour>
      <point x="145" y="750" type="line"/>
      <point x="169" y="750" type="line"/>
      <point x="125" y="840" type="line"/>
      <point x="101" y="840" type="line"/>
      <point x="101" y="839" type="line"/>
    </contour>
  </outline>
</glyph>
<glyph name="tcaron.color1" format="2">
  <advance width="600"/>
  <unicode hex="0165"/>
  <outline>
    <contour>
      <point x="51" y="476" type="line"/>
      <point x="141" y="476" type="line"/>
      <point x="141" y="500" type="line"/>
      <point x="74" y="500" type="line"/>
    </contour>
  </outline>
</glyph>
<glyph name="tcaron" format="2">
  <advance width="167"/>
  <unicode hex="0165"/>
  <anchor x="100" y="0" name="bottom"/>
  <anchor x="94" y="670" name="top"/>
  <outline>
    <contour>
      <point x="50" y="476" type="line"/>
      <point x="51" y="476" type="line"/>
      <point x="74" y="500" type="line"/>
      <point x="74" y="670" type="line"/>
      <point x="50" y="670" type="line"/>
    </contour>
    <contour>
      <point x="51" y="476" type="line"/>
      <point x="141" y="476" type="line"/>
      <point x="141" y="500" type="line"/>
      <point x="74" y="500" type="line"/>
    </contour>
    <contour>
      <point x="73" y="0" type="line"/>
      <point x="74" y="0" type="line"/>
      <point x="74" y="476" type="line"/>
      <point x="50" y="476" type="line"/>
      <point x="50" y="23" type="line"/>
    </contour>
    <contour>
      <point x="74" y="0" type="line"/>
      <point x="144" y="0" type="line"/>
      <point x="167" y="23" type="line"/>
      <point x="167" y="24" type="line"/>
      <point x="74" y="24" type="line"/>
    </contour>
    <contour>
      <point x="126" y="541" type="line"/>
      <point x="147" y="541" type="line"/>
      <point x="152" y="671" type="line"/>
      <point x="124" y="671" type="line"/>
      <point x="124" y="670" type="line"/>
    </contour>
  </outline>
</glyph>
<glyph name="Tbar.color1" format="2">
  <advance width="600"/>
  <unicode hex="0166"/>
  <outline>
    <contour>
      <point x="144" y="0" type="line"/>
      <point x="168" y="0" type="line"/>
      <point x="168" y="700" type="line"/>
      <point x="167" y="700" type="line"/>
      <point x="144" y="676" type="line"/>
    </contour>
  </outline>
</glyph>
<glyph name="Tbar.color3" format="2">
  <advance width="600"/>
  <unicode hex="0166"/>
  <outline>
    <contour>
      <point x="168" y="676" type="line"/>
      <point x="288" y="676" type="line"/>
      <point x="288" y="700" type="line"/>
      <point x="168" y="700" type="line"/>
    </contour>
  </outline>
</glyph>
<glyph name="Tbar" format="2">
  <advance width="311"/>
  <unicode hex="0166"/>
  <anchor x="155" y="365" name="_stroke"/>
  <anchor x="157" y="0" name="bottom"/>
  <anchor x="156" y="365" name="stroke"/>
  <anchor x="158" y="700" name="top"/>
  <outline>
    <contour>
      <point x="75" y="353" type="line"/>
      <point x="236" y="353" type="line"/>
      <point x="236" y="377" type="line"/>
      <point x="75" y="377" type="line"/>
    </contour>
    <contour>
      <point x="144" y="0" type="line"/>
      <point x="168" y="0" type="line"/>
      <point x="168" y="700" type="line"/>
      <point x="167" y="700" type="line"/>
      <point x="144" y="676" type="line"/>
    </contour>
    <contour>
      <point x="23" y="676" type="line"/>
      <point x="144" y="676" type="line"/>
      <point x="167" y="700" type="line"/>
      <point x="23" y="700" type="line"/>
    </contour>
    <contour>
      <point x="168" y="676" type="line"/>
      <point x="288" y="676" type="line"/>
      <point x="288" y="700" type="line"/>
      <point x="168" y="700" type="line"/>
    </contour>
  </outline>
</glyph>
<glyph name="Utilde.color4" format="2">
  <advance width="600"/>
  <unicode hex="0168"/>
  <outline>
    <contour>
      <point x="178" y="796" type="line"/>
      <point x="202" y="796" type="line"/>
      <point x="202" y="848" type="line"/>
      <point x="178" y="848" type="line"/>
    </contour>
  </outline>
</glyph>
<glyph name="utilde.color4" format="2">
  <advance width="600"/>
  <unicode hex="0169"/>
  <outline>
    <contour>
      <point x="130" y="590" type="line"/>
      <point x="150" y="590" type="line"/>
      <point x="150" y="642" type="line"/>
      <point x="130" y="642" type="line"/>
    </contour>
  </outline>
</glyph>
<glyph name="umacron.color0" format="2">
  <advance width="600"/>
  <unicode hex="016B"/>
  <outline>
    <contour>
      <point x="123" y="0" type="line"/>
      <point x="124" y="0" type="line"/>
      <point x="147" y="0" type="line"/>
      <point x="147" y="500" type="line"/>
      <point x="123" y="500" type="line"/>
    </contour>
  </outline>
</glyph>
<glyph name="Ubreve.color4" format="2">
  <advance width="600"/>
  <unicode hex="016C"/>
  <outline>
    <contour>
      <point x="96" y="804" type="line"/>
      <point x="128" y="804" type="line"/>
      <point x="97" y="841" type="line"/>
      <point x="65" y="841" type="line"/>
      <point x="65" y="840" type="line"/>
    </contour>
  </outline>
</glyph>
<glyph name="Uring.color3" format="2">
  <advance width="600"/>
  <unicode hex="016E"/>
  <outline>
    <contour>
      <point x="155" y="754" type="line"/>
      <point x="156" y="754" type="line"/>
      <point x="177" y="772" type="line"/>
      <point x="177" y="836" type="line"/>
      <point x="155" y="836" type="line"/>
    </contour>
  </outline>
</glyph>
<glyph name="uring.color4" format="2">
  <advance width="600"/>
  <unicode hex="016F"/>
  <outline>
    <contour>
      <point x="79" y="572" type="line"/>
      <point x="119" y="572" type="line"/>
      <point x="119" y="591" type="line"/>
      <point x="61" y="591" type="line"/>
      <point x="61" y="590" type="line"/>
    </contour>
  </outline>
</glyph>
<glyph name="uring.color5" format="2">
  <advance width="600"/>
  <unicode hex="016F"/>
  <outline>
    <contour>
      <point x="61" y="591" type="line"/>
      <point x="80" y="591" type="line"/>
      <point x="80" y="676" type="line"/>
      <point x="79" y="676" type="line"/>
      <point x="61" y="658" type="line"/>
    </contour>
  </outline>
</glyph>
<glyph name="Uhungarumlaut.color4" format="2">
  <advance width="600"/>
  <unicode hex="0170"/>
  <outline>
    <contour>
      <point x="102" y="771" type="line"/>
      <point x="126" y="771" type="line"/>
      <point x="158" y="860" type="line"/>
      <point x="158" y="861" type="line"/>
      <point x="127" y="861" type="line"/>
    </contour>
  </outline>
</glyph>
<glyph name="Uogonek.color5" format="2">
  <advance width="600"/>
  <unicode hex="0172"/>
  <outline>
    <contour>
      <point x="120" y="-80" type="line"/>
      <point x="145" y="-80" type="line"/>
      <point x="163" y="-62" type="line"/>
      <point x="163" y="-61" type="line"/>
      <point x="120" y="-61" type="line"/>
    </contour>
  </outline>
</glyph>
<glyph name="Wcircumflex.color0" format="2">
  <advance width="600"/>
  <unicode hex="0174"/>
  <outline>
    <contour>
      <point x="362" y="0" type="line"/>
      <point x="363" y="0" type="line"/>
      <point x="385" y="12" type="line"/>
      <point x="262" y="700" type="line"/>
      <point x="238" y="700" type="line"/>
    </contour>
  </outline>
</glyph>
<glyph name="Wcircumflex.color4" format="2">
  <advance width="600"/>
  <unicode hex="0174"/>
  <outline>
    <contour>
      <point x="281" y="760" type="line"/>
      <point x="305" y="760" type="line"/>
      <point x="305" y="761" type="line"/>
      <point x="261" y="850" type="line"/>
      <point x="237" y="850" type="line"/>
    </contour>
  </outline>
</glyph>
<glyph name="wcircumflex.color2" format="2">
  <advance width="600"/>
  <unicode hex="0175"/>
  <outline>
    <contour>
      <point x="50" y="24" type="line"/>
      <point x="74" y="24" type="line"/>
      <point x="74" y="503" type="line"/>
      <point x="73" y="503" type="line"/>
      <point x="50" y="480" type="line"/>
    </contour>
  </outline>
</glyph>
<glyph name="Ycircumflex" format="2">
  <advance width="250"/>
  <unicode hex="0176"/>
  <anchor x="129" y="0" name="bottom"/>
  <anchor x="127" y="700" name="top"/>
  <outline>
    <contour>
      <point x="117" y="350" type="line"/>
      <point x="118" y="350" type="line"/>
      <point x="140" y="356" type="line"/>
      <point x="47" y="700" type="line"/>
      <point x="23" y="700" type="line"/>
      <point x="23" y="699" type="line"/>
    </contour>
    <contour>
      <point x="117" y="0" type="line"/>
      <point x="141" y="0" type="line"/>
      <point x="141" y="350" type="line"/>
      <point x="117" y="350" type="line"/>
    </contour>
    <contour>
      <point x="118" y="350" type="line"/>
      <point x="141" y="350" type="line"/>
      <point x="227" y="699" type="line"/>
      <point x="227" y="700" type="line"/>
      <point x="203" y="700" type="line"/>
    </contour>
    <contour>
      <point x="157" y="760" type="line"/>
      <point x="181" y="760" type="line"/>
      <point x="181" y="761" type="line"/>
      <point x="137" y="850" type="line"/>
      <point x="113" y="850" type="line"/>
    </contour>
    <contour>
      <point x="67" y="760" type="line"/>
      <point x="91" y="760" type="line"/>
      <point x="136" y="850" type="line"/>
      <point x="113" y="850" type="line"/>
      <point x="67" y="761" type="line"/>
    </contour>
  </outline>
</glyph>
<glyph name="Zacute.color1" format="2">
  <advance width="600"/>
  <unicode hex="0179"/>
  <outline>
    <contour>
      <point x="56" y="24" type="line"/>
      <point x="189" y="667" type="line"/>
      <point x="166" y="700" type="line"/>
      <point x="33" y="25" type="line"/>
      <point x="33" y="24" type="line"/>
    </contour>
  </outline>
</glyph>
<glyph name="Zdotaccent.color3" format="2">
  <advance width="600"/>
  <unicode hex="017B"/>
  <outline>
    <contour>
      <point x="103" y="811" type="line"/>
      <point x="133" y="811" type="line"/>
      <point x="133" y="845" type="line"/>
      <point x="103" y="845" type="line"/>
    </contour>
  </outline>
</glyph>
<glyph name="Schwa.color0" format="2">
  <advance width="600"/>
  <unicode hex="018F"/>
  <outline>
    <contour>
      <point x="33" y="676" type="line"/>
      <point x="200" y="676" type="line"/>
      <point x="200" y="677" type="line"/>
      <point x="176" y="700" type="line"/>
      <point x="56" y="700" type="line"/>
      <point x="33" y="677" type="line"/>
    </contour>
  </outline>
</glyph>
<glyph name="Schwa.color2" format="2">
  <advance width="600"/>
  <unicode hex="018F"/>
  <outline>
    <contour>
      <point x="33" y="24" type="line"/>
      <point x="57" y="24" type="line"/>
      <point x="57" y="347" type="line"/>
      <point x="56" y="347" type="line"/>
      <point x="33" y="324" type="line"/>
    </contour>
  </outline>
</glyph>
<glyph name="Schwa.color4" format="2">
  <advance width="600"/>
  <unicode hex="018F"/>
  <outline>
    <contour>
      <point x="176" y="0" type="line"/>
      <point x="177" y="0" type="line"/>
      <point x="200" y="24" type="line"/>
      <point x="200" y="676" type="line"/>
      <point x="176" y="676" type="line"/>
    </contour>
  </outline>
</glyph>
<glyph name="florin.color1" format="2">
  <advance width="600"/>
  <unicode hex="0192"/>
  <outline>
    <contour>
      <point x="43" y="-203" type="line"/>
      <point x="97" y="-203" type="line"/>
      <point x="97" y="-179" type="line"/>
      <point x="43" y="-179" type="line"/>
    </contour>
  </outline>
</glyph>
<glyph name="ohorn.color4" format="2">
  <advance width="600"/>
  <unicode hex="01A1"/>
  <outline>
    <contour>
      <point x="155" y="476" type="line"/>
      <point x="156" y="476" type="line"/>
      <point x="179" y="499" type="line"/>
      <point x="179" y="567" type="line"/>
      <point x="155" y="567" type="line"/>
    </contour>
  </outline>
</glyph>
<glyph name="ohorn.color5" format="2">
  <advance width="600"/>
  <unicode hex="01A1"/>
  <outline>
    <contour>
      <point x="147" y="476" type="line"/>
      <point x="155" y="476" type="line"/>
      <point x="155" y="500" type="line"/>
      <point x="124" y="500" type="line"/>
    </contour>
  </outline>
</glyph>
<glyph name="Uhorn" format="2">
  <advance width="273"/>
  <unicode hex="01AF"/>
  <anchor x="132" y="0" name="bottom"/>
  <anchor x="196" y="700" name="horn"/>
  <anchor x="143" y="701" name="top"/>
  <outline>
    <contour>
      <point x="196" y="0" type="line"/>
      <point x="197" y="0" type="line"/>
      <point x="220" y="23" type="line"/>
      <point x="220" y="700" type="line"/>
      <point x="196" y="700" type="line"/>
    </contour>
    <contour>
      <point x="76" y="0" type="line"/>
      <point x="196" y="0" type="line"/>
      <point x="196" y="24" type="line"/>
      <point x="53" y="24" type="line"/>
      <point x="53" y="23" type="line"/>
    </contour>
    <contour>
      <point x="53" y="24" type="line"/>
      <point x="77" y="24" type="line"/>
      <point x="77" y="700" type="line"/>
      <point x="53" y="700" type="line"/>
    </contour>
    <contour>
      <point x="227" y="676" type="line"/>
      <point x="228" y="676" type="line"/>
      <point x="251" y="699" type="line"/>
      <point x="251" y="767" type="line"/>
      <point x="227" y="767" type="line"/>
    </contour>
    <contour>
      <point x="219" y="676" type="line"/>
      <point x="227" y="676" type="line"/>
      <point x="227" y="700" type="line"/>
      <point x="196" y="700" type="line"/>
      <point x="196" y="699" type="line"/>
    </contour>
  </outline>
</glyph>
<glyph name="Dzcaron.color5" format="2">
  <advance width="600"/>
  <unicode hex="01C5"/>
  <outline>
    <contour>
      <point x="321" y="24" type="line"/>
      <point x="424" y="467" type="line"/>
      <point x="401" y="500" type="line"/>
      <point x="298" y="25" type="line"/>
      <point x="298" y="24" type="line"/>
    </contour>
  </outline>
</glyph>
<glyph name="dzcaron.color6" format="2">
  <advance width="600"/>
  <unicode hex="01C6"/>
  <outline>
    <contour>
      <point x="199" y="24" type="line"/>
      <point x="302" y="467" type="line"/>
      <point x="279" y="500" type="line"/>
      <point x="176" y="25" type="line"/>
      <point x="176" y="24" type="line"/>
    </contour>
  </outline>
</glyph>
<glyph name="dzcaron.color7" format="2">
  <advance width="600"/>
  <unicode hex="01C6"/>
  <outline>
    <contour>
      <point x="199" y="0" type="line"/>
      <point x="302" y="0" type="line"/>
      <point x="302" y="24" type="line"/>
      <point x="176" y="24" type="line"/>
    </contour>
  </outline>
</glyph>
<glyph name="LJ.color5" format="2">
  <advance width="600"/>
  <unicode hex="01C7"/>
  <outline>
    <contour>
      <point x="443" y="676" type="line"/>
      <point x="513" y="676" type="line"/>
      <point x="513" y="700" type="line"/>
      <point x="443" y="700" type="line"/>
    </contour>
  </outline>
</glyph>
<glyph name="NJ.color4" format="2">
  <advance width="600"/>
  <unicode hex="01CA"/>
  <outline>
    <contour>
      <point x="303" y="0" type="line"/>
      <point x="423" y="0" type="line"/>
      <point x="447" y="23" type="line"/>
      <point x="447" y="24" type="line"/>
      <point x="303" y="24" type="line"/>
    </contour>
  </outline>
</glyph>
<glyph name="nj.color1" format="2">
  <advance width="600"/>
  <unicode hex="01CC"/>
  <outline>
    <contour>
      <point x="124" y="-3" type="line"/>
      <point x="125" y="-3" type="line"/>
      <point x="148" y="20" type="line"/>
      <point x="148" y="476" type="line"/>
      <point x="124" y="476" type="line"/>
    </contour>
  </outline>
</glyph>
<glyph name="nj.color4" format="2">
  <advance width="600"/>
  <unicode hex="01CC"/>
  <outline>
    <contour>
      <point x="171" y="-200" type="line"/>
      <point x="233" y="-200" type="line"/>
      <point x="233" y="-176" type="line"/>
      <point x="171" y="-176" type="line"/>
    </contour>
  </outline>
</glyph>
<glyph name="nj.color5" format="2">
  <advance width="600"/>
  <unicode hex="01CC"/>
  <outline>
    <contour>
      <point x="233" y="542" type="line"/>
      <point x="234" y="542" type="line"/>
      <point x="257" y="565" type="line"/>
      <point x="257" y="615" type="line"/>
      <point x="233" y="615" type="line"/>
    </contour>
  </outline>
</glyph>
<glyph name="nj" format="2">
  <advance width="333"/>
  <unicode hex="01CC"/>
  <anchor x="102" y="0" name="bottom"/>
  <anchor x="100" y="500" name="top"/>
  <outline>
    <contour>
      <point x="50" y="0" type="line"/>
      <point x="74" y="0" type="line"/>
      <point x="74" y="500" type="line"/>
      <point x="73" y="500" type="line"/>
      <point x="50" y="477" type="line"/>
    </contour>
    <contour>
      <point x="124" y="-3" type="line"/>
      <point x="125" y="-3" type="line"/>
      <point x="148" y="20" type="line"/>
      <point x="148" y="476" type="line"/>
      <point x="124" y="476" type="line"/>
    </contour>
    <contour>
      <point x="74" y="476" type="line"/>
      <point x="148" y="476" type="line"/>
      <point x="148" y="477" type="line"/>
      <point x="125" y="500" type="line"/>
      <point x="74" y="500" type="line"/>
    </contour>
    <contour>
      <point x="233" y="-200" type="line"/>
      <point x="234" y="-200" type="line"/>
      <point x="257" y="-177" type="line"/>
      <point x="257" y="503" type="line"/>
      <point x="256" y="503" type="line"/>
      <point x="233" y="480" type="line"/>
    </contour>
    <contour>
      <point x="171" y="-200" type="line"/>
      <point x="233" y="-200" type="line"/>
      <point x="233" y="-176" type="line"/>
      <point x="171" y="-176" type="line"/>
    </contour>
    <contour>
      <point x="233" y="542" type="line"/>
      <point x="234" y="542" type="line"/>
      <point x="257" y="565" type="line"/>
      <point x="257" y="615" type="line"/>
      <point x="233" y="615" type="line"/>
    </contour>
  </outline>
</glyph>
<glyph name="Oogonek.color5" format="2">
  <advance width="600"/>
  <unicode hex="01EA"/>
  <outline>
    <contour>
      <point x="129" y="-79" type="line"/>
      <point x="130" y="-79" type="line"/>
      <point x="130" y="-34" type="line"/>
      <point x="109" y="-34" type="line"/>
      <point x="109" y="-61" type="line"/>
    </contour>
  </outline>
</glyph>
<glyph name="oogonek.color5" format="2">
  <advance width="600"/>
  <unicode hex="01EB"/>
  <outline>
    <contour>
      <point x="86" y="-79" type="line"/>
      <point x="87" y="-79" type="line"/>
      <point x="87" y="-34" type="line"/>
      <point x="66" y="-34" type="line"/>
      <point x="66" y="-61" type="line"/>
    </contour>
  </outline>
</glyph>
<glyph name="oogonek.color6" format="2">
  <advance width="600"/>
  <unicode hex="01EB"/>
  <outline>
    <contour>
      <point x="87" y="-80" type="line"/>
      <point x="112" y="-80" type="line"/>
      <point x="130" y="-62" type="line"/>
      <point x="130" y="-61" type="line"/>
      <point x="87" y="-61" type="line"/>
    </contour>
  </outline>
</glyph>
<glyph name="Aringacute.color8" format="2">
  <advance width="600"/>
  <unicode hex="01FA"/>
  <outline>
    <contour>
      <point x="115" y="800" type="line"/>
      <point x="181" y="800" type="line"/>
      <point x="181" y="801" type="line"/>
      <point x="163" y="821" type="line"/>
      <point x="115" y="821" type="line"/>
    </contour>
  </outline>
</glyph>
<glyph name="aringacute" format="2">
  <advance width="199"/>
  <unicode hex="01FB"/>
  <anchor x="102" y="0" name="bottom"/>
  <anchor x="102" y="500" name="top"/>
  <outline>
    <contour>
      <point x="85" y="622" type="line"/>
      <point x="143" y="622" type="line"/>
      <point x="143" y="623" type="line"/>
      <point x="125" y="641" type="line"/>
      <point x="85" y="641" type="line"/>
    </contour>
    <contour>
      <point x="74" y="476" type="line"/>
      <point x="147" y="476" type="line"/>
      <point x="147" y="477" type="line"/>
      <point x="124" y="500" type="line"/>
      <point x="74" y="500" type="line"/>
    </contour>
    <contour>
      <point x="73" y="0" type="line"/>
      <point x="123" y="0" type="line"/>
      <point x="123" y="24" type="line"/>
      <point x="50" y="24" type="line"/>
      <point x="50" y="23" type="line"/>
    </contour>
    <contour>
      <point x="50" y="24" type="line"/>
      <point x="74" y="24" type="line"/>
      <point x="74" y="500" type="line"/>
      <point x="73" y="500" type="line"/>
      <point x="50" y="477" type="line"/>
    </contour>
    <contour>
      <point x="123" y="0" type="line"/>
      <point x="147" y="0" type="line"/>
      <point x="147" y="476" type="line"/>
      <point x="123" y="476" type="line"/>
    </contour>
    <contour>
      <point x="84" y="537" type="line"/>
      <point x="124" y="537" type="line"/>
      <point x="124" y="556" type="line"/>
      <point x="66" y="556" type="line"/>
      <point x="66" y="555" type="line"/>
    </contour>
    <contour>
      <point x="66" y="556" type="line"/>
      <point x="85" y="556" type="line"/>
      <point x="85" y="641" type="line"/>
      <point x="84" y="641" type="line"/>
      <point x="66" y="623" type="line"/>
    </contour>
    <contour>
      <point x="124" y="537" type="line"/>
      <point x="125" y="537" type="line"/>
      <point x="143" y="555" type="line"/>
      <point x="143" y="622" type="line"/>
      <point x="124" y="622" type="line"/>
    </contour>
    <contour>
      <point x="92" y="670" type="line"/>
      <point x="111" y="670" type="line"/>
      <point x="149" y="771" type="line"/>
      <point x="149" y="772" type="line"/>
      <point x="118" y="772" type="line"/>
    </contour>
  </outline>
</glyph>
<glyph name="aeacute.color5" format="2">
  <advance width="600"/>
  <unicode hex="01FD"/>
  <outline>
    <contour>
      <point x="147" y="0" type="line"/>
      <point x="198" y="0" type="line"/>
      <point x="221" y="23" type="line"/>
      <point x="221" y="24" type="line"/>
      <point x="147" y="24" type="line"/>
    </contour>
  </outline>
</glyph>
<glyph name="aeacute.color8" format="2">
  <advance width="600"/>
  <unicode hex="01FD"/>
  <outline>
    <contour>
      <point x="114" y="570" type="line"/>
      <point x="138" y="570" type="line"/>
      <point x="170" y="699" type="line"/>
      <point x="170" y="700" type="line"/>
      <point x="139" y="700" type="line"/>
    </contour>
  </outline>
</glyph>
<glyph name="Ainvertedbreve" format="2">
  <advance width="273"/>
  <unicode hex="0202"/>
  <anchor x="135" y="0" name="bottom"/>
  <anchor x="138" y="700" name="top"/>
  <outline>
    <contour>
      <point x="53" y="0" type="line"/>
      <point x="77" y="0" type="line"/>
      <point x="77" y="700" type="line"/>
      <point x="76" y="700" type="line"/>
      <point x="53" y="677" type="line"/>
    </contour>
    <contour>
      <point x="77" y="353" type="line"/>
      <point x="196" y="353" type="line"/>
      <point x="196" y="377" type="line"/>
      <point x="77" y="377" type="line"/>
    </contour>
    <contour>
      <point x="196" y="0" type="line"/>
      <point x="220" y="0" type="line"/>
      <point x="220" y="676" type="line"/>
      <point x="196" y="676" type="line"/>
    </contour>
    <contour>
      <point x="77" y="676" type="line"/>
      <point x="220" y="676" type="line"/>
      <point x="220" y="677" type="line"/>
      <point x="197" y="700" type="line"/>
      <point x="77" y="700" type="line"/>
    </contour>
    <contour>
      <point x="91" y="818" type="line"/>
      <point x="185" y="818" type="line"/>
      <point x="166" y="840" type="line"/>
      <point x="110" y="840" type="line"/>
    </contour>
    <contour>
      <point x="60" y="781" type="line"/>
      <point x="92" y="781" type="line"/>
      <point x="123" y="818" type="line"/>
      <point x="91" y="818" type="line"/>
      <point x="60" y="782" type="line"/>
    </contour>
    <contour>
      <point x="184" y="781" type="line"/>
      <point x="216" y="781" type="line"/>
      <point x="216" y="782" type="line"/>
      <point x="185" y="818" type="line"/>
      <point x="153" y="818" type="line"/>
    </contour>
  </outline>
</glyph>
<glyph name="ainvertedbreve.color5" format="2">
  <advance width="600"/>
  <unicode hex="0203"/>
  <outline>
    <contour>
      <point x="37" y="598" type="line"/>
      <point x="63" y="598" type="line"/>
      <point x="92" y="648" type="line"/>
      <point x="66" y="648" type="line"/>
      <point x="37" y="599" type="line"/>
    </contour>
  </outline>
</glyph>
<glyph name="Edblgrave.color4" format="2">
  <advance width="600"/>
  <unicode hex="0204"/>
  <outline>
    <contour>
      <point x="155" y="770" type="line"/>
      <point x="179" y="770" type="line"/>
      <point x="154" y="860" type="line"/>
      <point x="123" y="860" type="line"/>
      <point x="123" y="859" type="line"/>
    </contour>
  </outline>
</glyph>
<glyph name="Edblgrave.color5" format="2">
  <advance width="600"/>
  <unicode hex="0204"/>
  <outline>
    <contour>
      <point x="98" y="770" type="line"/>
      <point x="122" y="770" type="line"/>
      <point x="97" y="860" type="line"/>
      <point x="66" y="860" type="line"/>
      <point x="66" y="859" type="line"/>
    </contour>
  </outline>
</glyph>
<glyph name="Edblgrave" format="2">
  <advance width="240"/>
  <unicode hex="0204"/>
  <anchor x="135" y="0" name="bottom"/>
  <anchor x="138" y="700" name="top"/>
  <outline>
    <contour>
      <point x="77" y="0" type="line"/>
      <point x="220" y="0" type="line"/>
      <point x="220" y="24" type="line"/>
      <point x="53" y="24" type="line"/>
      <point x="53" y="23" type="line"/>
    </contour>
    <contour>
      <point x="53" y="24" type="line"/>
      <point x="77" y="24" type="line"/>
      <point x="77" y="700" type="line"/>
      <point x="53" y="700" type="line"/>
    </contour>
    <contour>
      <point x="77" y="353" type="line"/>
      <point x="196" y="353" type="line"/>
      <point x="196" y="377" type="line"/>
      <point x="77" y="377" type="line"/>
    </contour>
    <contour>
      <point x="77" y="676" type="line"/>
      <point x="197" y="676" type="line"/>
      <point x="220" y="699" type="line"/>
      <point x="220" y="700" type="line"/>
      <point x="77" y="700" type="line"/>
    </contour>
    <contour>
      <point x="155" y="770" type="line"/>
      <point x="179" y="770" type="line"/>
      <point x="154" y="860" type="line"/>
      <point x="123" y="860" type="line"/>
      <point x="123" y="859" type="line"/>
    </contour>
    <contour>
      <point x="98" y="770" type="line"/>
      <point x="122" y="770" type="line"/>
      <point x="97" y="860" type="line"/>
      <point x="66" y="860" type="line"/>
      <point x="66" y="859" type="line"/>
    </contour>
  </outline>
</glyph>
<glyph name="edblgrave.color5" format="2">
  <advance width="600"/>
  <unicode hex="0205"/>
  <outline>
    <contour>
      <point x="116" y="570" type="line"/>
      <point x="140" y="570" type="line"/>
      <point x="115" y="700" type="line"/>
      <point x="84" y="700" type="line"/>
      <point x="84" y="699" type="line"/>
    </contour>
  </outline>
</glyph>
<glyph name="Einvertedbreve.color4" format="2">
  <advance width="600"/>
  <unicode hex="0206"/>
  <outline>
    <contour>
      <point x="91" y="818" type="line"/>
      <point x="185" y="818" type="line"/>
      <point x="166" y="840" type="line"/>
      <point x="110" y="840" type="line"/>
    </contour>
  </outline>
</glyph>
<glyph name="Idblgrave.color0" format="2">
  <advance width="600"/>
  <unicode hex="0208"/>
  <outline>
    <contour>
      <point x="101" y="0" type="line"/>
      <point x="102" y="0" type="line"/>
      <point x="125" y="24" type="line"/>
      <point x="125" y="700" type="line"/>
      <point x="124" y="700" type="line"/>
      <point x="101" y="676" type="line"/>
    </contour>
  </outline>
</glyph>
<glyph name="idblgrave.color1" format="2">
  <advance width="600"/>
  <unicode hex="0209"/>
  <outline>
    <contour>
      <point x="72" y="0" type="line"/>
      <point x="96" y="0" type="line"/>
      <point x="96" y="503" type="line"/>
      <point x="95" y="503" type="line"/>
      <point x="72" y="480" type="line"/>
    </contour>
  </outline>
</glyph>
<glyph name="Iinvertedbreve.color5" format="2">
  <advance width="600"/>
  <unicode hex="020A"/>
  <outline>
    <contour>
      <point x="68" y="818" type="line"/>
      <point x="162" y="818" type="line"/>
      <point x="143" y="840" type="line"/>
      <point x="87" y="840" type="line"/>
    </contour>
  </outline>
</glyph>
<glyph name="Iinvertedbreve.color7" format="2">
  <advance width="600"/>
  <unicode hex="020A"/>
  <outline>
    <contour>
      <point x="161" y="781" type="line"/>
      <point x="193" y="781" type="line"/>
      <point x="193" y="782" type="line"/>
      <point x="162" y="818" type="line"/>
      <point x="130" y="818" type="line"/>
    </contour>
  </outline>
</glyph>
<glyph name="iinvertedbreve.color2" format="2">
  <advance width="600"/>
  <unicode hex="020B"/>
  <outline>
    <contour>
      <point x="4" y="590" type="line"/>
      <point x="30" y="590" type="line"/>
      <point x="49" y="640" type="line"/>
      <point x="26" y="640" type="line"/>
      <point x="4" y="591" type="line"/>
    </contour>
  </outline>
</glyph>
<glyph name="iinvertedbreve.color3" format="2">
  <advance width="600"/>
  <unicode hex="020B"/>
  <outline>
    <contour>
      <point x="94" y="590" type="line"/>
      <point x="120" y="590" type="line"/>
      <point x="120" y="591" type="line"/>
      <point x="98" y="640" type="line"/>
      <point x="75" y="640" type="line"/>
    </contour>
  </outline>
</glyph>
<glyph name="Oinvertedbreve.color6" format="2">
  <advance width="600"/>
  <unicode hex="020E"/>
  <outline>
    <contour>
      <point x="184" y="781" type="line"/>
      <point x="216" y="781" type="line"/>
      <point x="216" y="782" type="line"/>
      <point x="185" y="818" type="line"/>
      <point x="153" y="818" type="line"/>
    </contour>
  </outline>
</glyph>
<glyph name="oinvertedbreve.color4" format="2">
  <advance width="600"/>
  <unicode hex="020F"/>
  <outline>
    <contour>
      <point x="63" y="648" type="line"/>
      <point x="141" y="648" type="line"/>
      <point x="128" y="670" type="line"/>
      <point x="76" y="670" type="line"/>
    </contour>
  </outline>
</glyph>
<glyph name="rdblgrave.color2" format="2">
  <advance width="600"/>
  <unicode hex="0211"/>
  <outline>
    <contour>
      <point x="116" y="570" type="line"/>
      <point x="140" y="570" type="line"/>
      <point x="115" y="700" type="line"/>
      <point x="84" y="700" type="line"/>
      <point x="84" y="699" type="line"/>
    </contour>
  </outline>
</glyph>
<glyph name="Udblgrave.color4" format="2">
  <advance width="600"/>
  <unicode hex="0214"/>
  <outline>
    <contour>
      <point x="103" y="771" type="line"/>
      <point x="127" y="771" type="line"/>
      <point x="102" y="861" type="line"/>
      <point x="71" y="861" type="line"/>
      <point x="71" y="860" type="line"/>
    </contour>
  </outline>
</glyph>
<glyph name="Uinvertedbreve" format="2">
  <advance width="273"/>
  <unicode hex="0216"/>
  <anchor x="132" y="0" name="bottom"/>
  <anchor x="196" y="700" name="horn"/>
  <anchor x="143" y="701" name="top"/>
  <outline>
    <contour>
      <point x="196" y="0" type="line"/>
      <point x="197" y="0" type="line"/>
      <point x="220" y="23" type="line"/>
      <point x="220" y="700" type="line"/>
      <point x="196" y="700" type="line"/>
    </contour>
    <contour>
      <point x="76" y="0" type="line"/>
      <point x="196" y="0" type="line"/>
      <point x="196" y="24" type="line"/>
      <point x="53" y="24" type="line"/>
      <point x="53" y="23" type="line"/>
    </contour>
    <contour>
      <point x="53" y="24" type="line"/>
      <point x="77" y="24" type="line"/>
      <point x="77" y="700" type="line"/>
      <point x="53" y="700" type="line"/>
    </contour>
    <contour>
      <point x="96" y="819" type="line"/>
      <point x="190" y="819" type="line"/>
      <point x="171" y="841" type="line"/>
      <point x="115" y="841" type="line"/>
    </contour>
    <contour>
      <point x="65" y="782" type="line"/>
      <point x="97" y="782" type="line"/>
      <point x="128" y="819" type="line"/>
      <point x="96" y="819" type="line"/>
      <point x="65" y="783" type="line"/>
    </contour>
    <contour>
      <point x="189" y="782" type="line"/>
      <point x="221" y="782" type="line"/>
      <point x="221" y="783" type="line"/>
      <point x="190" y="819" type="line"/>
      <point x="158" y="819" type="line"/>
    </contour>
  </outline>
</glyph>
<glyph name="uinvertedbreve.color3" format="2">
  <advance width="600"/>
  <unicode hex="0217"/>
  <outline>
    <contour>
      <point x="64" y="648" type="line"/>
      <point x="142" y="648" type="line"/>
      <point x="129" y="670" type="line"/>
      <point x="77" y="670" type="line"/>
    </contour>
  </outline>
</glyph>
<glyph name="Scommaaccent" format="2">
  <advance width="233"/>
  <unicode hex="0218"/>
  <anchor x="122" y="0" name="bottom"/>
  <anchor x="128" y="700" name="top"/>
  <outline>
    <contour>
      <point x="67" y="676" type="line"/>
      <point x="190" y="676" type="line"/>
      <point x="190" y="677" type="line"/>
      <point x="167" y="700" type="line"/>
      <point x="67" y="700" type="line"/>
    </contour>
    <contour>
      <point x="66" y="0" type="line"/>
      <point x="166" y="0" type="line"/>
      <point x="166" y="24" type="line"/>
      <point x="43" y="24" type="line"/>
      <point x="43" y="23" type="line"/>
    </contour>
    <contour>
      <point x="66" y="353" type="line"/>
      <point x="166" y="353" type="line"/>
      <point x="166" y="377" type="line"/>
      <point x="43" y="377" type="line"/>
      <point x="43" y="376" type="line"/>
    </contour>
    <contour>
      <point x="43" y="377" type="line"/>
      <point x="67" y="377" type="line"/>
      <point x="67" y="700" type="line"/>
      <point x="66" y="700" type="line"/>
      <point x="43" y="677" type="line"/>
    </contour>
    <contour>
      <point x="166" y="0" type="line"/>
      <point x="167" y="0" type="line"/>
      <point x="190" y="24" type="line"/>
      <point x="190" y="353" type="line"/>
      <point x="167" y="377" type="line"/>
      <point x="166" y="377" type="line"/>
    </contour>
    <contour>
      <point x="132" y="-141" type="line"/>
      <point x="133" y="-141" type="line"/>
      <point x="133" y="-50" type="line"/>
      <point x="109" y="-50" type="line"/>
      <point x="109" y="-118" type="line"/>
    </contour>
  </outline>
</glyph>
<glyph name="tcommaaccent.color0" format="2">
  <advance width="600"/>
  <unicode hex="021B"/>
  <outline>
    <contour>
      <point x="50" y="476" type="line"/>
      <point x="51" y="476" type="line"/>
      <point x="74" y="500" type="line"/>
      <point x="74" y="670" type="line"/>
      <point x="50" y="670" type="line"/>
    </contour>
  </outline>
</glyph>
<glyph name="tcommaaccent" format="2">
  <advance width="167"/>
  <unicode hex="021B"/>
  <anchor x="100" y="0" name="bottom"/>
  <anchor x="94" y="670" name="top"/>
  <outline>
    <contour>
      <point x="50" y="476" type="line"/>
      <point x="51" y="476" type="line"/>
      <point x="74" y="500" type="line"/>
      <point x="74" y="670" type="line"/>
      <point x="50" y="670" type="line"/>
    </contour>
    <contour>
      <point x="51" y="476" type="line"/>
      <point x="141" y="476" type="line"/>
      <point x="141" y="500" type="line"/>
      <point x="74" y="500" type="line"/>
    </contour>
    <contour>
      <point x="73" y="0" type="line"/>
      <point x="74" y="0" type="line"/>
      <point x="74" y="476" type="line"/>
      <point x="50" y="476" type="line"/>
      <point x="50" y="23" type="line"/>
    </contour>
    <contour>
      <point x="74" y="0" type="line"/>
      <point x="144" y="0" type="line"/>
      <point x="167" y="23" type="line"/>
      <point x="167" y="24" type="line"/>
      <point x="74" y="24" type="line"/>
    </contour>
    <contour>
      <point x="110" y="-141" type="line"/>
      <point x="111" y="-141" type="line"/>
      <point x="111" y="-50" type="line"/>
      <point x="87" y="-50" type="line"/>
      <point x="87" y="-118" type="line"/>
    </contour>
  </outline>
</glyph>
<glyph name="Odieresismacron.color6" format="2">
  <advance width="600"/>
  <unicode hex="022A"/>
  <outline>
    <contour>
      <point x="63" y="901" type="line"/>
      <point x="213" y="901" type="line"/>
      <point x="213" y="925" type="line"/>
      <point x="63" y="925" type="line"/>
    </contour>
  </outline>
</glyph>
<glyph name="odieresismacron.color0" format="2">
  <advance width="600"/>
  <unicode hex="022B"/>
  <outline>
    <contour>
      <point x="74" y="476" type="line"/>
      <point x="148" y="476" type="line"/>
      <point x="148" y="477" type="line"/>
      <point x="125" y="500" type="line"/>
      <point x="74" y="500" type="line"/>
    </contour>
  </outline>
</glyph>
<glyph name="Otildemacron.color5" format="2">
  <advance width="600"/>
  <unicode hex="022C"/>
  <outline>
    <contour>
      <point x="165" y="758" type="line"/>
      <point x="189" y="758" type="line"/>
      <point x="189" y="810" type="line"/>
      <point x="165" y="810" type="line"/>
    </contour>
  </outline>
</glyph>
<glyph name="Odotaccentmacron.color0" format="2">
  <advance width="600"/>
  <unicode hex="0230"/>
  <outline>
    <contour>
      <point x="77" y="676" type="line"/>
      <point x="220" y="676" type="line"/>
      <point x="220" y="677" type="line"/>
      <point x="197" y="700" type="line"/>
      <point x="77" y="700" type="line"/>
    </contour>
  </outline>
</glyph>
<glyph name="odotaccentmacron.color5" format="2">
  <advance width="600"/>
  <unicode hex="0231"/>
  <outline>
    <contour>
      <point x="44" y="701" type="line"/>
      <point x="154" y="701" type="line"/>
      <point x="154" y="725" type="line"/>
      <point x="44" y="725" type="line"/>
    </contour>
  </outline>
</glyph>
<glyph name="Ymacron.color3" format="2">
  <advance width="600"/>
  <unicode hex="0232"/>
  <outline>
    <contour>
      <point x="52" y="801" type="line"/>
      <point x="202" y="801" type="line"/>
      <point x="202" y="825" type="line"/>
      <point x="52" y="825" type="line"/>
    </contour>
  </outline>
</glyph>
<glyph name="jdotless.color1" format="2">
  <advance width="600"/>
  <unicode hex="0237"/>
  <outline>
    <contour>
      <point x="-12" y="-200" type="line"/>
      <point x="50" y="-200" type="line"/>
      <point x="50" y="-176" type="line"/>
      <point x="-12" y="-176" type="line"/>
    </contour>
  </outline>
</glyph>
<glyph name="schwa.color0" format="2">
  <advance width="600"/>
  <unicode hex="0259"/>
  <outline>
    <contour>
      <point x="53" y="476" type="line"/>
      <point x="150" y="476" type="line"/>
      <point x="150" y="477" type="line"/>
      <point x="127" y="500" type="line"/>
      <point x="53" y="500" type="line"/>
      <point x="53" y="477" type="line"/>
    </contour>
  </outline>
</glyph>
<glyph name="schwa.color4" format="2">
  <advance width="600"/>
  <unicode hex="0259"/>
  <outline>
    <contour>
      <point x="126" y="0" type="line"/>
      <point x="127" y="0" type="line"/>
      <point x="150" y="23" type="line"/>
      <point x="150" y="476" type="line"/>
      <point x="126" y="476" type="line"/>
    </contour>
  </outline>
</glyph>
<glyph name="apostrophemod.color1" format="2">
  <advance width="600"/>
  <unicode hex="02BC"/>
  <outline>
    <contour>
      <point x="40" y="662" type="line"/>
      <point x="41" y="662" type="line"/>
      <point x="64" y="685" type="line"/>
      <point x="64" y="753" type="line"/>
      <point x="40" y="753" type="line"/>
    </contour>
  </outline>
</glyph>
<glyph name="circumflex.color1" format="2">
  <advance width="600"/>
  <unicode hex="02C6"/>
  <outline>
    <contour>
      <point x="253" y="590" type="line"/>
      <point x="277" y="590" type="line"/>
      <point x="322" y="680" type="line"/>
      <point x="299" y="680" type="line"/>
      <point x="253" y="591" type="line"/>
    </contour>
  </outline>
</glyph>
<glyph name="caron.color0" format="2">
  <advance width="600"/>
  <unicode hex="02C7"/>
  <outline>
    <contour>
      <point x="297" y="590" type="line"/>
      <point x="321" y="590" type="line"/>
      <point x="277" y="680" type="line"/>
      <point x="253" y="680" type="line"/>
      <point x="253" y="679" type="line"/>
    </contour>
  </outline>
</glyph>
<glyph name="tilde.color1" format="2">
  <advance width="600"/>
  <unicode hex="02DC"/>
  <outline>
    <contour>
      <point x="325" y="590" type="line"/>
      <point x="345" y="590" type="line"/>
      <point x="345" y="642" type="line"/>
      <point x="325" y="642" type="line"/>
    </contour>
  </outline>
</glyph>
<glyph name="tildecomb.color1" format="2">
  <unicode hex="0303"/>
  <outline>
    <contour>
      <point x="325" y="590" type="line"/>
      <point x="345" y="590" type="line"/>
      <point x="345" y="642" type="line"/>
      <point x="325" y="642" type="line"/>
    </contour>
  </outline>
</glyph>
<glyph name="tildecomb.color2" format="2">
  <unicode hex="0303"/>
  <outline>
    <contour>
      <point x="324" y="580" type="line"/>
      <point x="325" y="580" type="line"/>
      <point x="345" y="589" type="line"/>
      <point x="345" y="590" type="line"/>
      <point x="266" y="642" type="line"/>
      <point x="265" y="642" type="line"/>
      <point x="245" y="633" type="line"/>
      <point x="245" y="632" type="line"/>
    </contour>
  </outline>
</glyph>
<glyph name="dotaccentcomb" format="2">
  <unicode hex="0307"/>
  <anchor x="309" y="500" name="_top"/>
  <anchor x="309" y="590" name="top"/>
  <outline>
    <contour>
      <point x="294" y="601" type="line"/>
      <point x="324" y="601" type="line"/>
      <point x="324" y="635" type="line"/>
      <point x="294" y="635" type="line"/>
    </contour>
  </outline>
</glyph>
<glyph name="dieresiscomb.color0" format="2">
  <unicode hex="0308"/>
  <outline>
    <contour>
      <point x="321" y="601" type="line"/>
      <point x="352" y="601" type="line"/>
      <point x="352" y="635" type="line"/>
      <point x="321" y="635" type="line"/>
    </contour>
  </outline>
</glyph>
<glyph name="ringcomb.color3" format="2">
  <unicode hex="030A"/>
  <outline>
    <contour>
      <point x="328" y="572" type="line"/>
      <point x="329" y="572" type="line"/>
      <point x="347" y="590" type="line"/>
      <point x="347" y="657" type="line"/>
      <point x="328" y="657" type="line"/>
    </contour>
  </outline>
</glyph>
<glyph name="hungarumlautcomb.color1" format="2">
  <unicode hex="030B"/>
  <outline>
    <contour>
      <point x="257" y="570" type="line"/>
      <point x="281" y="570" type="line"/>
      <point x="313" y="699" type="line"/>
      <point x="313" y="700" type="line"/>
      <point x="282" y="700" type="line"/>
    </contour>
  </outline>
</glyph>
<glyph name="caroncomb.color0" format="2">
  <unicode hex="030C"/>
  <outline>
    <contour>
      <point x="297" y="590" type="line"/>
      <point x="321" y="590" type="line"/>
      <point x="277" y="680" type="line"/>
      <point x="253" y="680" type="line"/>
      <point x="253" y="679" type="line"/>
    </contour>
  </outline>
</glyph>
<glyph name="breveinvertedcomb.color2" format="2">
  <unicode hex="0311"/>
  <outline>
    <contour>
      <point x="354" y="598" type="line"/>
      <point x="380" y="598" type="line"/>
      <point x="380" y="599" type="line"/>
      <point x="351" y="648" type="line"/>
      <point x="325" y="648" type="line"/>
    </contour>
  </outline>
</glyph>
<glyph name="breveinvertedcomb" format="2">
  <unicode hex="0311"/>
  <anchor x="309" y="500" name="_top"/>
  <outline>
    <contour>
      <point x="273" y="648" type="line"/>
      <point x="351" y="648" type="line"/>
      <point x="338" y="670" type="line"/>
      <point x="286" y="670" type="line"/>
    </contour>
    <contour>
      <point x="244" y="598" type="line"/>
      <point x="270" y="598" type="line"/>
      <point x="299" y="648" type="line"/>
      <point x="273" y="648" type="line"/>
      <point x="244" y="599" type="line"/>
    </contour>
    <contour>
      <point x="354" y="598" type="line"/>
      <point x="380" y="598" type="line"/>
      <point x="380" y="599" type="line"/>
      <point x="351" y="648" type="line"/>
      <point x="325" y="648" type="line"/>
    </contour>
  </outline>
</glyph>
<glyph name="dieresisbelowcomb.color0" format="2">
  <unicode hex="0324"/>
  <outline>
    <contour>
      <point x="354" y="-119" type="line"/>
      <point x="385" y="-119" type="line"/>
      <point x="385" y="-85" type="line"/>
      <point x="354" y="-85" type="line"/>
    </contour>
  </outline>
</glyph>
<glyph name="commaaccentcomb" format="2">
  <unicode hex="0326"/>
  <anchor x="329" y="0" name="_bottom"/>
  <outline>
    <contour>
      <point x="339" y="-141" type="line"/>
      <point x="340" y="-141" type="line"/>
      <point x="340" y="-50" type="line"/>
      <point x="316" y="-50" type="line"/>
      <point x="316" y="-118" type="line"/>
    </contour>
  </outline>
</glyph>
<glyph name="cedillacomb.color0" format="2">
  <unicode hex="0327"/>
  <outline>
    <contour>
      <point x="322" y="-44" type="line"/>
      <point x="357" y="-44" type="line"/>
      <point x="357" y="-43" type="line"/>
      <point x="339" y="-25" type="line"/>
      <point x="322" y="-25" type="line"/>
    </contour>
  </outline>
</glyph>
<glyph name="macronbelowcomb" format="2">
  <unicode hex="0331"/>
  <anchor x="306" y="0" name="_bottom"/>
  <outline>
    <contour>
      <point x="251" y="-89" type="line"/>
      <point x="361" y="-89" type="line"/>
      <point x="361" y="-65" type="line"/>
      <point x="251" y="-65" type="line"/>
    </contour>
  </outline>
</glyph>
<glyph name="Wgrave.color1" format="2">
  <advance width="600"/>
  <unicode hex="1E80"/>
  <outline>
    <contour>
      <point x="122" y="0" type="line"/>
      <point x="123" y="0" type="line"/>
      <point x="145" y="12" type="line"/>
      <point x="42" y="700" type="line"/>
      <point x="18" y="700" type="line"/>
      <point x="18" y="699" type="line"/>
    </contour>
  </outline>
</glyph>
<glyph name="Wgrave.color4" format="2">
  <advance width="600"/>
  <unicode hex="1E80"/>
  <outline>
    <contour>
      <point x="241" y="740" type="line"/>
      <point x="265" y="740" type="line"/>
      <point x="255" y="860" type="line"/>
      <point x="224" y="860" type="line"/>
      <point x="224" y="859" type="line"/>
    </contour>
  </outline>
</glyph>
<glyph name="wdieresis.color4" format="2">
  <advance width="600"/>
  <unicode hex="1E85"/>
  <outline>
    <contour>
      <point x="123" y="24" type="line"/>
      <point x="147" y="24" type="line"/>
      <point x="147" y="503" type="line"/>
      <point x="146" y="503" type="line"/>
      <point x="123" y="480" type="line"/>
    </contour>
  </outline>
</glyph>
<glyph name="Germandbls.color2" format="2">
  <advance width="600"/>
  <unicode hex="1E9E"/>
  <outline>
    <contour>
      <point x="77" y="676" type="line"/>
      <point x="182" y="676" type="line"/>
      <point x="182" y="700" type="line"/>
      <point x="77" y="700" type="line"/>
    </contour>
  </outline>
</glyph>
<glyph name="Germandbls.color3" format="2">
  <advance width="600"/>
  <unicode hex="1E9E"/>
  <outline>
    <contour>
      <point x="156" y="387" type="line"/>
      <point x="206" y="677" type="line"/>
      <point x="206" y="678" type="line"/>
      <point x="183" y="700" type="line"/>
      <point x="182" y="700" type="line"/>
      <point x="132" y="387" type="line"/>
    </contour>
  </outline>
</glyph>
<glyph name="Germandbls.color4" format="2">
  <advance width="600"/>
  <unicode hex="1E9E"/>
  <outline>
    <contour>
      <point x="155" y="363" type="line"/>
      <point x="226" y="363" type="line"/>
      <point x="226" y="387" type="line"/>
      <point x="132" y="387" type="line"/>
      <point x="132" y="386" type="line"/>
    </contour>
  </outline>
</glyph>
<glyph name="Germandbls.color5" format="2">
  <advance width="600"/>
  <unicode hex="1E9E"/>
  <outline>
    <contour>
      <point x="226" y="0" type="line"/>
      <point x="227" y="0" type="line"/>
      <point x="250" y="23" type="line"/>
      <point x="250" y="364" type="line"/>
      <point x="227" y="387" type="line"/>
      <point x="226" y="387" type="line"/>
    </contour>
  </outline>
</glyph>
<glyph name="ahookabove.color5" format="2">
  <advance width="600"/>
  <unicode hex="1EA3"/>
  <outline>
    <contour>
      <point x="67" y="654" type="line"/>
      <point x="144" y="654" type="line"/>
      <point x="144" y="655" type="line"/>
      <point x="126" y="678" type="line"/>
      <point x="67" y="678" type="line"/>
    </contour>
  </outline>
</glyph>
<glyph name="acircumflexgrave" format="2">
  <advance width="197"/>
  <unicode hex="1EA7"/>
  <anchor x="102" y="0" name="bottom"/>
  <anchor x="102" y="500" name="top"/>
  <outline>
    <contour>
      <point x="74" y="476" type="line"/>
      <point x="147" y="476" type="line"/>
      <point x="147" y="477" type="line"/>
      <point x="124" y="500" type="line"/>
      <point x="74" y="500" type="line"/>
    </contour>
    <contour>
      <point x="73" y="0" type="line"/>
      <point x="123" y="0" type="line"/>
      <point x="123" y="24" type="line"/>
      <point x="50" y="24" type="line"/>
      <point x="50" y="23" type="line"/>
    </contour>
    <contour>
      <point x="50" y="24" type="line"/>
      <point x="74" y="24" type="line"/>
      <point x="74" y="500" type="line"/>
      <point x="73" y="500" type="line"/>
      <point x="50" y="477" type="line"/>
    </contour>
    <contour>
      <point x="123" y="0" type="line"/>
      <point x="147" y="0" type="line"/>
      <point x="147" y="476" type="line"/>
      <point x="123" y="476" type="line"/>
    </contour>
    <contour>
      <point x="136" y="540" type="line"/>
      <point x="160" y="540" type="line"/>
      <point x="160" y="541" type="line"/>
      <point x="116" y="630" type="line"/>
      <point x="115" y="630" type="line"/>
      <point x="92" y="630" type="line"/>
    </contour>
    <contour>
      <point x="46" y="540" type="line"/>
      <point x="70" y="540" type="line"/>
      <point x="115" y="630" type="line"/>
      <point x="92" y="630" type="line"/>
      <point x="46" y="541" type="line"/>
    </contour>
    <contour>
      <point x="93" y="662" type="line"/>
      <point x="117" y="662" type="line"/>
      <point x="92" y="772" type="line"/>
      <point x="61" y="772" type="line"/>
      <point x="61" y="771" type="line"/>
    </contour>
  </outline>
</glyph>
<glyph name="acircumflexhookabove.color4" format="2">
  <advance width="600"/>
  <unicode hex="1EA9"/>
  <outline>
    <contour>
      <point x="136" y="540" type="line"/>
      <point x="160" y="540" type="line"/>
      <point x="160" y="541" type="line"/>
      <point x="116" y="630" type="line"/>
      <point x="115" y="630" type="line"/>
      <point x="92" y="630" type="line"/>
    </contour>
  </outline>
</glyph>
<glyph name="Acircumflextilde.color4" format="2">
  <advance width="600"/>
  <unicode hex="1EAA"/>
  <outline>
    <contour>
      <point x="174" y="757" type="line"/>
      <point x="204" y="757" type="line"/>
      <point x="204" y="758" type="line"/>
      <point x="150" y="832" type="line"/>
      <point x="120" y="832" type="line"/>
    </contour>
  </outline>
</glyph>
<glyph name="Acircumflexdotbelow.color5" format="2">
  <advance width="600"/>
  <unicode hex="1EAC"/>
  <outline>
    <contour>
      <point x="168" y="760" type="line"/>
      <point x="192" y="760" type="line"/>
      <point x="192" y="761" type="line"/>
      <point x="148" y="850" type="line"/>
      <point x="124" y="850" type="line"/>
    </contour>
  </outline>
</glyph>
<glyph name="Abreveacute.color5" format="2">
  <advance width="600"/>
  <unicode hex="1EAE"/>
  <outline>
    <contour>
      <point x="91" y="783" type="line"/>
      <point x="123" y="783" type="line"/>
      <point x="92" y="820" type="line"/>
      <point x="60" y="820" type="line"/>
      <point x="60" y="819" type="line"/>
    </contour>
  </outline>
</glyph>
<glyph name="Abreveacute.color7" format="2">
  <advance width="600"/>
  <unicode hex="1EAE"/>
  <outline>
    <contour>
      <point x="153" y="783" type="line"/>
      <point x="185" y="783" type="line"/>
      <point x="216" y="819" type="line"/>
      <point x="216" y="820" type="line"/>
      <point x="184" y="820" type="line"/>
    </contour>
  </outline>
</glyph>
<glyph name="Abrevegrave.color4" format="2">
  <advance width="600"/>
  <unicode hex="1EB0"/>
  <outline>
    <contour>
      <point x="109" y="741" type="line"/>
      <point x="165" y="741" type="line"/>
      <point x="184" y="763" type="line"/>
      <point x="90" y="763" type="line"/>
    </contour>
  </outline>
</glyph>
<glyph name="abrevegrave" format="2">
  <advance width="197"/>
  <unicode hex="1EB1"/>
  <anchor x="102" y="0" name="bottom"/>
  <anchor x="102" y="500" name="top"/>
  <outline>
    <contour>
      <point x="74" y="476" type="line"/>
      <point x="147" y="476" type="line"/>
      <point x="147" y="477" type="line"/>
      <point x="124" y="500" type="line"/>
      <point x="74" y="500" type="line"/>
    </contour>
    <contour>
      <point x="73" y="0" type="line"/>
      <point x="123" y="0" type="line"/>
      <point x="123" y="24" type="line"/>
      <point x="50" y="24" type="line"/>
      <point x="50" y="23" type="line"/>
    </contour>
    <contour>
      <point x="50" y="24" type="line"/>
      <point x="74" y="24" type="line"/>
      <point x="74" y="500" type="line"/>
      <point x="73" y="500" type="line"/>
      <point x="50" y="477" type="line"/>
    </contour>
    <contour>
      <point x="123" y="0" type="line"/>
      <point x="147" y="0" type="line"/>
      <point x="147" y="476" type="line"/>
      <point x="123" y="476" type="line"/>
    </contour>
    <contour>
      <point x="75" y="558" type="line"/>
      <point x="127" y="558" type="line"/>
      <point x="140" y="580" type="line"/>
      <point x="62" y="580" type="line"/>
    </contour>
    <contour>
      <point x="62" y="580" type="line"/>
      <point x="88" y="580" type="line"/>
      <point x="59" y="630" type="line"/>
      <point x="33" y="630" type="line"/>
      <point x="33" y="629" type="line"/>
    </contour>
    <contour>
      <point x="92" y="637" type="line"/>
      <point x="114" y="637" type="line"/>
      <point x="89" y="752" type="line"/>
      <point x="60" y="752" type="line"/>
      <point x="60" y="751" type="line"/>
    </contour>
    <contour>
      <point x="114" y="580" type="line"/>
      <point x="140" y="580" type="line"/>
      <point x="169" y="629" type="line"/>
      <point x="169" y="630" type="line"/>
      <point x="143" y="630" type="line"/>
    </contour>
  </outline>
</glyph>
<glyph name="Abrevehookabove.color6" format="2">
  <advance width="600"/>
  <unicode hex="1EB2"/>
  <outline>
    <contour>
      <point x="102" y="902" type="line"/>
      <point x="179" y="902" type="line"/>
      <point x="179" y="903" type="line"/>
      <point x="161" y="926" type="line"/>
      <point x="102" y="926" type="line"/>
    </contour>
  </outline>
</glyph>
<glyph name="Abrevehookabove.color8" format="2">
  <advance width="600"/>
  <unicode hex="1EB2"/>
  <outline>
    <contour>
      <point x="153" y="783" type="line"/>
      <point x="185" y="783" type="line"/>
      <point x="216" y="819" type="line"/>
      <point x="216" y="820" type="line"/>
      <point x="184" y="820" type="line"/>
    </contour>
  </outline>
</glyph>
<glyph name="Abrevetilde" format="2">
  <advance width="273"/>
  <unicode hex="1EB4"/>
  <anchor x="135" y="0" name="bottom"/>
  <anchor x="138" y="700" name="top"/>
  <outline>
    <contour>
      <point x="53" y="0" type="line"/>
      <point x="77" y="0" type="line"/>
      <point x="77" y="700" type="line"/>
      <point x="76" y="700" type="line"/>
      <point x="53" y="677" type="line"/>
    </contour>
    <contour>
      <point x="77" y="353" type="line"/>
      <point x="196" y="353" type="line"/>
      <point x="196" y="377" type="line"/>
      <point x="77" y="377" type="line"/>
    </contour>
    <contour>
      <point x="196" y="0" type="line"/>
      <point x="220" y="0" type="line"/>
      <point x="220" y="676" type="line"/>
      <point x="196" y="676" type="line"/>
    </contour>
    <contour>
      <point x="77" y="676" type="line"/>
      <point x="220" y="676" type="line"/>
      <point x="220" y="677" type="line"/>
      <point x="197" y="700" type="line"/>
      <point x="77" y="700" type="line"/>
    </contour>
    <contour>
      <point x="174" y="870" type="line"/>
      <point x="198" y="870" type="line"/>
      <point x="198" y="922" type="line"/>
      <point x="174" y="922" type="line"/>
    </contour>
    <contour>
      <point x="78" y="861" type="line"/>
      <point x="102" y="861" type="line"/>
      <point x="102" y="913" type="line"/>
      <point x="78" y="912" type="line"/>
    </contour>
    <contour>
      <point x="174" y="860" type="line"/>
      <point x="175" y="860" type="line"/>
      <point x="197" y="869" type="line"/>
      <point x="197" y="870" type="line"/>
      <point x="101" y="922" type="line"/>
      <point x="100" y="922" type="line"/>
      <point x="78" y="913" type="line"/>
      <point x="78" y="912" type="line"/>
    </contour>
    <contour>
      <point x="91" y="783" type="line"/>
      <point x="123" y="783" type="line"/>
      <point x="92" y="820" type="line"/>
      <point x="60" y="820" type="line"/>
      <point x="60" y="819" type="line"/>
    </contour>
    <contour>
      <point x="153" y="783" type="line"/>
      <point x="185" y="783" type="line"/>
      <point x="216" y="819" type="line"/>
      <point x="216" y="820" type="line"/>
      <point x="184" y="820" type="line"/>
    </contour>
    <contour>
      <point x="110" y="761" type="line"/>
      <point x="166" y="761" type="line"/>
      <point x="185" y="783" type="line"/>
      <point x="91" y="783" type="line"/>
    </contour>
  </outline>
</glyph>
<glyph name="abrevetilde.color6" format="2">
  <advance width="600"/>
  <unicode hex="1EB5"/>
  <outline>
    <contour>
      <point x="52" y="666" type="line"/>
      <point x="72" y="666" type="line"/>
      <point x="72" y="718" type="line"/>
      <point x="52" y="717" type="line"/>
    </contour>
  </outline>
</glyph>
<glyph name="abrevetilde.color8" format="2">
  <advance width="600"/>
  <unicode hex="1EB5"/>
  <outline>
    <contour>
      <point x="133" y="675" type="line"/>
      <point x="153" y="675" type="line"/>
      <point x="153" y="727" type="line"/>
      <point x="133" y="727" type="line"/>
    </contour>
  </outline>
</glyph>
<glyph name="Abrevedotbelow.color2" format="2">
  <advance width="600"/>
  <unicode hex="1EB6"/>
  <outline>
    <contour>
      <point x="196" y="0" type="line"/>
      <point x="220" y="0" type="line"/>
      <point x="220" y="676" type="line"/>
      <point x="196" y="676" type="line"/>
    </contour>
  </outline>
</glyph>
<glyph name="Abrevedotbelow.color7" format="2">
  <advance width="600"/>
  <unicode hex="1EB6"/>
  <outline>
    <contour>
      <point x="153" y="803" type="line"/>
      <point x="185" y="803" type="line"/>
      <point x="216" y="839" type="line"/>
      <point x="216" y="840" type="line"/>
      <point x="184" y="840" type="line"/>
    </contour>
  </outline>
</glyph>
<glyph name="Abrevedotbelow" format="2">
  <advance width="273"/>
  <unicode hex="1EB6"/>
  <anchor x="135" y="0" name="bottom"/>
  <anchor x="138" y="700" name="top"/>
  <outline>
    <contour>
      <point x="53" y="0" type="line"/>
      <point x="77" y="0" type="line"/>
      <point x="77" y="700" type="line"/>
      <point x="76" y="700" type="line"/>
      <point x="53" y="677" type="line"/>
    </contour>
    <contour>
      <point x="77" y="353" type="line"/>
      <point x="196" y="353" type="line"/>
      <point x="196" y="377" type="line"/>
      <point x="77" y="377" type="line"/>
    </contour>
    <contour>
      <point x="196" y="0" type="line"/>
      <point x="220" y="0" type="line"/>
      <point x="220" y="676" type="line"/>
      <point x="196" y="676" type="line"/>
    </contour>
    <contour>
      <point x="77" y="676" type="line"/>
      <point x="220" y="676" type="line"/>
      <point x="220" y="677" type="line"/>
      <point x="197" y="700" type="line"/>
      <point x="77" y="700" type="line"/>
    </contour>
    <contour>
      <point x="121" y="-119" type="line"/>
      <point x="151" y="-119" type="line"/>
      <point x="151" y="-85" type="line"/>
      <point x="121" y="-85" type="line"/>
    </contour>
    <contour>
      <point x="110" y="781" type="line"/>
      <point x="166" y="781" type="line"/>
      <point x="185" y="803" type="line"/>
      <point x="91" y="803" type="line"/>
    </contour>
    <contour>
      <point x="91" y="803" type="line"/>
      <point x="123" y="803" type="line"/>
      <point x="92" y="840" type="line"/>
      <point x="60" y="840" type="line"/>
      <point x="60" y="839" type="line"/>
    </contour>
    <contour>
      <point x="153" y="803" type="line"/>
      <point x="185" y="803" type="line"/>
      <point x="216" y="839" type="line"/>
      <point x="216" y="840" type="line"/>
      <point x="184" y="840" type="line"/>
    </contour>
  </outline>
</glyph>
<glyph name="edotbelow.color0" format="2">
  <advance width="600"/>
  <unicode hex="1EB9"/>
  <outline>
    <contour>
      <point x="73" y="0" type="line"/>
      <point x="124" y="0" type="line"/>
      <point x="147" y="23" type="line"/>
      <point x="147" y="24" type="line"/>
      <point x="50" y="24" type="line"/>
      <point x="50" y="23" type="line"/>
    </contour>
  </outline>
</glyph>
<glyph name="ehookabove" format="2">
  <advance width="197"/>
  <unicode hex="1EBB"/>
  <anchor x="101" y="0" name="bottom"/>
  <anchor x="100" y="500" name="top"/>
  <outline>
    <contour>
      <point x="73" y="0" type="line"/>
      <point x="124" y="0" type="line"/>
      <point x="147" y="23" type="line"/>
      <point x="147" y="24" type="line"/>
      <point x="50" y="24" type="line"/>
      <point x="50" y="23" type="line"/>
    </contour>
    <contour>
      <point x="50" y="24" type="line"/>
      <point x="74" y="24" type="line"/>
      <point x="74" y="500" type="line"/>
      <point x="73" y="500" type="line"/>
      <point x="50" y="477" type="line"/>
    </contour>
    <contour>
      <point x="74" y="202" type="line"/>
      <point x="123" y="202" type="line"/>
      <point x="123" y="226" type="line"/>
      <point x="74" y="226" type="line"/>
    </contour>
    <contour>
      <point x="74" y="476" type="line"/>
      <point x="147" y="476" type="line"/>
      <point x="147" y="477" type="line"/>
      <point x="124" y="500" type="line"/>
      <point x="74" y="500" type="line"/>
    </contour>
    <contour>
      <point x="123" y="202" type="line"/>
      <point x="124" y="202" type="line"/>
      <point x="147" y="225" type="line"/>
      <point x="147" y="476" type="line"/>
      <point x="123" y="476" type="line"/>
    </contour>
    <contour>
      <point x="86" y="583" type="line"/>
      <point x="109" y="583" type="line"/>
      <point x="142" y="654" type="line"/>
      <point x="142" y="655" type="line"/>
      <point x="124" y="678" type="line"/>
      <point x="86" y="584" type="line"/>
    </contour>
    <contour>
      <point x="65" y="654" type="line"/>
      <point x="142" y="654" type="line"/>
      <point x="142" y="655" type="line"/>
      <point x="124" y="678" type="line"/>
      <point x="65" y="678" type="line"/>
    </contour>
  </outline>
</glyph>
<glyph name="Ecircumflexacute.color4" format="2">
  <advance width="600"/>
  <unicode hex="1EBE"/>
  <outline>
    <contour>
      <point x="171" y="770" type="line"/>
      <point x="195" y="770" type="line"/>
      <point x="195" y="771" type="line"/>
      <point x="151" y="860" type="line"/>
      <point x="127" y="860" type="line"/>
    </contour>
  </outline>
</glyph>
<glyph name="Ecircumflexgrave.color6" format="2">
  <advance width="600"/>
  <unicode hex="1EC0"/>
  <outline>
    <contour>
      <point x="202" y="810" type="line"/>
      <point x="223" y="810" type="line"/>
      <point x="198" y="900" type="line"/>
      <point x="170" y="900" type="line"/>
      <point x="170" y="899" type="line"/>
    </contour>
  </outline>
</glyph>
<glyph name="Ecircumflexhookabove.color4" format="2">
  <advance width="600"/>
  <unicode hex="1EC2"/>
  <outline>
    <contour>
      <point x="173" y="760" type="line"/>
      <point x="197" y="760" type="line"/>
      <point x="197" y="761" type="line"/>
      <point x="153" y="850" type="line"/>
      <point x="152" y="850" type="line"/>
      <point x="129" y="850" type="line"/>
    </contour>
  </outline>
</glyph>
<glyph name="Ecircumflextilde.color6" format="2">
  <advance width="600"/>
  <unicode hex="1EC4"/>
  <outline>
    <contour>
      <point x="72" y="869" type="line"/>
      <point x="96" y="869" type="line"/>
      <point x="96" y="921" type="line"/>
      <point x="72" y="920" type="line"/>
    </contour>
  </outline>
</glyph>
<glyph name="Ecircumflextilde.color7" format="2">
  <advance width="600"/>
  <unicode hex="1EC4"/>
  <outline>
    <contour>
      <point x="168" y="878" type="line"/>
      <point x="192" y="878" type="line"/>
      <point x="192" y="930" type="line"/>
      <point x="168" y="930" type="line"/>
    </contour>
  </outline>
</glyph>
<glyph name="ecircumflextilde.color2" format="2">
  <advance width="600"/>
  <unicode hex="1EC5"/>
  <outline>
    <contour>
      <point x="74" y="202" type="line"/>
      <point x="123" y="202" type="line"/>
      <point x="123" y="226" type="line"/>
      <point x="74" y="226" type="line"/>
    </contour>
  </outline>
</glyph>
<glyph name="ecircumflextilde.color7" format="2">
  <advance width="600"/>
  <unicode hex="1EC5"/>
  <outline>
    <contour>
      <point x="57" y="663" type="line"/>
      <point x="77" y="663" type="line"/>
      <point x="77" y="715" type="line"/>
      <point x="57" y="714" type="line"/>
    </contour>
  </outline>
</glyph>
<glyph name="ecircumflexdotbelow.color5" format="2">
  <advance width="600"/>
  <unicode hex="1EC7"/>
  <outline>
    <contour>
      <point x="87" y="-119" type="line"/>
      <point x="117" y="-119" type="line"/>
      <point x="117" y="-85" type="line"/>
      <point x="87" y="-85" type="line"/>
    </contour>
  </outline>
</glyph>
<glyph name="Ihookabove.color3" format="2">
  <advance width="600"/>
  <unicode hex="1EC8"/>
  <outline>
    <contour>
      <point x="20" y="676" type="line"/>
      <point x="101" y="676" type="line"/>
      <point x="124" y="700" type="line"/>
      <point x="20" y="700" type="line"/>
    </contour>
  </outline>
</glyph>
<glyph name="ihookabove.color0" format="2">
  <advance width="600"/>
  <unicode hex="1EC9"/>
  <outline>
    <contour>
      <point x="49" y="583" type="line"/>
      <point x="72" y="583" type="line"/>
      <point x="105" y="654" type="line"/>
      <point x="105" y="655" type="line"/>
      <point x="87" y="678" type="line"/>
      <point x="49" y="584" type="line"/>
    </contour>
  </outline>
</glyph>
<glyph name="idotbelow.color2" format="2">
  <advance width="600"/>
  <unicode hex="1ECB"/>
  <outline>
    <contour>
      <point x="48" y="-119" type="line"/>
      <point x="78" y="-119" type="line"/>
      <point x="78" y="-85" type="line"/>
      <point x="48" y="-85" type="line"/>
    </contour>
  </outline>
</glyph>
<glyph name="Odotbelow.color4" format="2">
  <advance width="600"/>
  <unicode hex="1ECC"/>
  <outline>
    <contour>
      <point x="128" y="-119" type="line"/>
      <point x="158" y="-119" type="line"/>
      <point x="158" y="-85" type="line"/>
      <point x="128" y="-85" type="line"/>
    </contour>
  </outline>
</glyph>
<glyph name="ocircumflexgrave" format="2">
  <advance width="198"/>
  <unicode hex="1ED3"/>
  <anchor x="99" y="0" name="bottom"/>
  <anchor x="124" y="500" name="horn"/>
  <anchor x="99" y="500" name="top"/>
  <outline>
    <contour>
      <point x="74" y="476" type="line"/>
      <point x="148" y="476" type="line"/>
      <point x="148" y="477" type="line"/>
      <point x="125" y="500" type="line"/>
      <point x="74" y="500" type="line"/>
    </contour>
    <contour>
      <point x="73" y="0" type="line"/>
      <point x="124" y="0" type="line"/>
      <point x="124" y="24" type="line"/>
      <point x="50" y="24" type="line"/>
      <point x="50" y="23" type="line"/>
    </contour>
    <contour>
      <point x="50" y="24" type="line"/>
      <point x="74" y="24" type="line"/>
      <point x="74" y="500" type="line"/>
      <point x="73" y="500" type="line"/>
      <point x="50" y="477" type="line"/>
    </contour>
    <contour>
      <point x="124" y="0" type="line"/>
      <point x="125" y="0" type="line"/>
      <point x="148" y="23" type="line"/>
      <point x="148" y="476" type="line"/>
      <point x="124" y="476" type="line"/>
    </contour>
    <contour>
      <point x="133" y="540" type="line"/>
      <point x="157" y="540" type="line"/>
      <point x="157" y="541" type="line"/>
      <point x="113" y="630" type="line"/>
      <point x="112" y="630" type="line"/>
      <point x="89" y="630" type="line"/>
    </contour>
    <contour>
      <point x="43" y="540" type="line"/>
      <point x="67" y="540" type="line"/>
      <point x="112" y="630" type="line"/>
      <point x="89" y="630" type="line"/>
      <point x="43" y="541" type="line"/>
    </contour>
    <contour>
      <point x="90" y="662" type="line"/>
      <point x="114" y="662" type="line"/>
      <point x="89" y="772" type="line"/>
      <point x="58" y="772" type="line"/>
      <point x="58" y="771" type="line"/>
    </contour>
  </outline>
</glyph>
<glyph name="ocircumflexhookabove.color5" format="2">
  <advance width="600"/>
  <unicode hex="1ED5"/>
  <outline>
    <contour>
      <point x="43" y="540" type="line"/>
      <point x="67" y="540" type="line"/>
      <point x="112" y="630" type="line"/>
      <point x="89" y="630" type="line"/>
      <point x="43" y="541" type="line"/>
    </contour>
  </outline>
</glyph>
<glyph name="ocircumflextilde.color3" format="2">
  <advance width="600"/>
  <unicode hex="1ED7"/>
  <outline>
    <contour>
      <point x="124" y="0" type="line"/>
      <point x="125" y="0" type="line"/>
      <point x="148" y="23" type="line"/>
      <point x="148" y="476" type="line"/>
      <point x="124" y="476" type="line"/>
    </contour>
  </outline>
</glyph>
<glyph name="ocircumflextilde.color8" format="2">
  <advance width="600"/>
  <unicode hex="1ED7"/>
  <outline>
    <contour>
      <point x="135" y="662" type="line"/>
      <point x="136" y="662" type="line"/>
      <point x="156" y="671" type="line"/>
      <point x="156" y="672" type="line"/>
      <point x="77" y="724" type="line"/>
      <point x="76" y="724" type="line"/>
      <point x="56" y="715" type="line"/>
      <point x="56" y="714" type="line"/>
    </contour>
  </outline>
</glyph>
<glyph name="Ohornacute" format="2">
  <advance width="273"/>
  <unicode hex="1EDA"/>
  <anchor x="142" y="0" name="bottom"/>
  <anchor x="197" y="700" name="horn"/>
  <anchor x="138" y="700" name="top"/>
  <outline>
    <contour>
      <point x="77" y="676" type="line"/>
      <point x="220" y="676" type="line"/>
      <point x="220" y="677" type="line"/>
      <point x="197" y="700" type="line"/>
      <point x="77" y="700" type="line"/>
    </contour>
    <contour>
      <point x="76" y="0" type="line"/>
      <point x="196" y="0" type="line"/>
      <point x="196" y="24" type="line"/>
      <point x="53" y="24" type="line"/>
      <point x="53" y="23" type="line"/>
    </contour>
    <contour>
      <point x="53" y="24" type="line"/>
      <point x="77" y="24" type="line"/>
      <point x="77" y="700" type="line"/>
      <point x="76" y="700" type="line"/>
      <point x="53" y="677" type="line"/>
    </contour>
    <contour>
      <point x="196" y="0" type="line"/>
      <point x="197" y="0" type="line"/>
      <point x="220" y="23" type="line"/>
      <point x="220" y="676" type="line"/>
      <point x="196" y="676" type="line"/>
    </contour>
    <contour>
      <point x="228" y="676" type="line"/>
      <point x="229" y="676" type="line"/>
      <point x="252" y="699" type="line"/>
      <point x="252" y="767" type="line"/>
      <point x="228" y="767" type="line"/>
    </contour>
    <contour>
      <point x="220" y="676" type="line"/>
      <point x="228" y="676" type="line"/>
      <point x="228" y="700" type="line"/>
      <point x="197" y="700" type="line"/>
      <point x="197" y="699" type="line"/>
    </contour>
    <contour>
      <point x="120" y="735" type="line"/>
      <point x="144" y="735" type="line"/>
      <point x="171" y="854" type="line"/>
      <point x="171" y="855" type="line"/>
      <point x="140" y="855" type="line"/>
    </contour>
  </outline>
</glyph>
<glyph name="ohornacute.color6" format="2">
  <advance width="600"/>
  <unicode hex="1EDB"/>
  <outline>
    <contour>
      <point x="83" y="570" type="line"/>
      <point x="107" y="570" type="line"/>
      <point x="139" y="699" type="line"/>
      <point x="139" y="700" type="line"/>
      <point x="108" y="700" type="line"/>
    </contour>
  </outline>
</glyph>
<glyph name="ohorngrave.color5" format="2">
  <advance width="600"/>
  <unicode hex="1EDD"/>
  <outline>
    <contour>
      <point x="147" y="476" type="line"/>
      <point x="155" y="476" type="line"/>
      <point x="155" y="500" type="line"/>
      <point x="124" y="500" type="line"/>
    </contour>
  </outline>
</glyph>
<glyph name="Ohorntilde.color0" format="2">
  <advance width="600"/>
  <unicode hex="1EE0"/>
  <outline>
    <contour>
      <point x="77" y="676" type="line"/>
      <point x="220" y="676" type="line"/>
      <point x="220" y="677" type="line"/>
      <point x="197" y="700" type="line"/>
      <point x="77" y="700" type="line"/>
    </contour>
  </outline>
</glyph>
<glyph name="Ohorntilde.color6" format="2">
  <advance width="600"/>
  <unicode hex="1EE0"/>
  <outline>
    <contour>
      <point x="77" y="786" type="line"/>
      <point x="101" y="786" type="line"/>
      <point x="101" y="838" type="line"/>
      <point x="77" y="837" type="line"/>
    </contour>
  </outline>
</glyph>
<glyph name="Ohorntilde.color7" format="2">
  <advance width="600"/>
  <unicode hex="1EE0"/>
  <outline>
    <contour>
      <point x="173" y="795" type="line"/>
      <point x="197" y="795" type="line"/>
      <point x="197" y="847" type="line"/>
      <point x="173" y="847" type="line"/>
    </contour>
  </outline>
</glyph>
<glyph name="ohorntilde.color6" format="2">
  <advance width="600"/>
  <unicode hex="1EE1"/>
  <outline>
    <contour>
      <point x="49" y="581" type="line"/>
      <point x="69" y="581" type="line"/>
      <point x="69" y="633" type="line"/>
      <point x="49" y="632" type="line"/>
    </contour>
  </outline>
</glyph>
<glyph name="ohorntilde" format="2">
  <advance width="198"/>
  <unicode hex="1EE1"/>
  <anchor x="99" y="0" name="bottom"/>
  <anchor x="124" y="500" name="horn"/>
  <anchor x="99" y="500" name="top"/>
  <outline>
    <contour>
      <point x="74" y="476" type="line"/>
      <point x="148" y="476" type="line"/>
      <point x="148" y="477" type="line"/>
      <point x="125" y="500" type="line"/>
      <point x="74" y="500" type="line"/>
    </contour>
    <contour>
      <point x="73" y="0" type="line"/>
      <point x="124" y="0" type="line"/>
      <point x="124" y="24" type="line"/>
      <point x="50" y="24" type="line"/>
      <point x="50" y="23" type="line"/>
    </contour>
    <contour>
      <point x="50" y="24" type="line"/>
      <point x="74" y="24" type="line"/>
      <point x="74" y="500" type="line"/>
      <point x="73" y="500" type="line"/>
      <point x="50" y="477" type="line"/>
    </contour>
    <contour>
      <point x="124" y="0" type="line"/>
      <point x="125" y="0" type="line"/>
      <point x="148" y="23" type="line"/>
      <point x="148" y="476" type="line"/>
      <point x="124" y="476" type="line"/>
    </contour>
    <contour>
      <point x="155" y="476" type="line"/>
      <point x="156" y="476" type="line"/>
      <point x="179" y="499" type="line"/>
      <point x="179" y="567" type="line"/>
      <point x="155" y="567" type="line"/>
    </contour>
    <contour>
      <point x="147" y="476" type="line"/>
      <point x="155" y="476" type="line"/>
      <point x="155" y="500" type="line"/>
      <point x="124" y="500" type="line"/>
    </contour>
    <contour>
      <point x="49" y="581" type="line"/>
      <point x="69" y="581" type="line"/>
      <point x="69" y="633" type="line"/>
      <point x="49" y="632" type="line"/>
    </contour>
    <contour>
      <point x="129" y="590" type="line"/>
      <point x="149" y="590" type="line"/>
      <point x="149" y="642" type="line"/>
      <point x="129" y="642" type="line"/>
    </contour>
    <contour>
      <point x="128" y="580" type="line"/>
      <point x="129" y="580" type="line"/>
      <point x="149" y="589" type="line"/>
      <point x="149" y="590" type="line"/>
      <point x="70" y="642" type="line"/>
      <point x="69" y="642" type="line"/>
      <point x="49" y="633" type="line"/>
      <point x="49" y="632" type="line"/>
    </contour>
  </outline>
</glyph>
<glyph name="Ohorndotbelow.color1" format="2">
  <advance width="600"/>
  <unicode hex="1EE2"/>
  <outline>
    <contour>
      <point x="76" y="0" type="line"/>
      <point x="196" y="0" type="line"/>
      <point x="196" y="24" type="line"/>
      <point x="53" y="24" type="line"/>
      <point x="53" y="23" type="line"/>
    </contour>
  </outline>
</glyph>
<glyph name="Ohorndotbelow.color5" format="2">
  <advance width="600"/>
  <unicode hex="1EE2"/>
  <outline>
    <contour>
      <point x="220" y="676" type="line"/>
      <point x="228" y="676" type="line"/>
      <point x="228" y="700" type="line"/>
      <point x="197" y="700" type="line"/>
      <point x="197" y="699" type="line"/>
    </contour>
  </outline>
</glyph>
<glyph name="ohorndotbelow" format="2">
  <advance width="198"/>
  <unicode hex="1EE3"/>
  <anchor x="99" y="0" name="bottom"/>
  <anchor x="124" y="500" name="horn"/>
  <anchor x="99" y="500" name="top"/>
  <outline>
    <contour>
      <point x="74" y="476" type="line"/>
      <point x="148" y="476" type="line"/>
      <point x="148" y="477" type="line"/>
      <point x="125" y="500" type="line"/>
      <point x="74" y="500" type="line"/>
    </contour>
    <contour>
      <point x="73" y="0" type="line"/>
      <point x="124" y="0" type="line"/>
      <point x="124" y="24" type="line"/>
      <point x="50" y="24" type="line"/>
      <point x="50" y="23" type="line"/>
    </contour>
    <contour>
      <point x="50" y="24" type="line"/>
      <point x="74" y="24" type="line"/>
      <point x="74" y="500" type="line"/>
      <point x="73" y="500" type="line"/>
      <point x="50" y="477" type="line"/>
    </contour>
    <contour>
      <point x="124" y="0" type="line"/>
      <point x="125" y="0" type="line"/>
      <point x="148" y="23" type="line"/>
      <point x="148" y="476" type="line"/>
      <point x="124" y="476" type="line"/>
    </contour>
    <contour>
      <point x="155" y="476" type="line"/>
      <point x="156" y="476" type="line"/>
      <point x="179" y="499" type="line"/>
      <point x="179" y="567" type="line"/>
      <point x="155" y="567" type="line"/>
    </contour>
    <contour>
      <point x="147" y="476" type="line"/>
      <point x="155" y="476" type="line"/>
      <point x="155" y="500" type="line"/>
      <point x="124" y="500" type="line"/>
    </contour>
    <contour>
      <point x="85" y="-119" type="line"/>
      <point x="115" y="-119" type="line"/>
      <point x="115" y="-85" type="line"/>
      <point x="85" y="-85" type="line"/>
    </contour>
  </outline>
</glyph>
<glyph name="Uhornacute.color4" format="2">
  <advance width="600"/>
  <unicode hex="1EE8"/>
  <outline>
    <contour>
      <point x="219" y="676" type="line"/>
      <point x="227" y="676" type="line"/>
      <point x="227" y="700" type="line"/>
      <point x="196" y="700" type="line"/>
      <point x="196" y="699" type="line"/>
    </contour>
  </outline>
</glyph>
<glyph name="Uhornhookabove.color3" format="2">
  <advance width="600"/>
  <unicode hex="1EEC"/>
  <outline>
    <contour>
      <point x="227" y="676" type="line"/>
      <point x="228" y="676" type="line"/>
      <point x="251" y="699" type="line"/>
      <point x="251" y="767" type="line"/>
      <point x="227" y="767" type="line"/>
    </contour>
  </outline>
</glyph>
<glyph name="Uhornhookabove.color6" format="2">
  <advance width="600"/>
  <unicode hex="1EEC"/>
  <outline>
    <contour>
      <point x="107" y="847" type="line"/>
      <point x="184" y="847" type="line"/>
      <point x="184" y="848" type="line"/>
      <point x="166" y="871" type="line"/>
      <point x="107" y="871" type="line"/>
    </contour>
  </outline>
</glyph>
